SplineFontDB: 3.0
FontName: Stoke-Regular
FullName: Stoke
FamilyName: Stoke
Weight: Book
Copyright: Copyright (c) 2010 by Sorkin Type Co with Reserved Font Name Stoke.
Version: 1.001
ItalicAngle: 0
UnderlinePosition: -47
UnderlineWidth: 137
Ascent: 1638
Descent: 410
LayerCount: 2
Layer: 0 1 "Back"  1
Layer: 1 1 "Fore"  0
XUID: [1021 631 1661839179 16384452]
FSType: 0
OS2Version: 3
OS2_WeightWidthSlopeOnly: 0
OS2_UseTypoMetrics: 1
CreationTime: 1323872580
ModificationTime: 1323856970
PfmFamily: 17
TTFWeight: 400
TTFWidth: 5
LineGap: 0
VLineGap: 0
Panose: 2 3 5 2 7 8 0 3 3 3
OS2TypoAscent: 392
OS2TypoAOffset: 1
OS2TypoDescent: -120
OS2TypoDOffset: 1
OS2TypoLinegap: 0
OS2WinAscent: 0
OS2WinAOffset: 1
OS2WinDescent: 0
OS2WinDOffset: 1
HheadAscent: 0
HheadAOffset: 1
HheadDescent: 0
HheadDOffset: 1
OS2SubXSize: 1434
OS2SubYSize: 1331
OS2SubXOff: 0
OS2SubYOff: 287
OS2SupXSize: 1434
OS2SupYSize: 1331
OS2SupXOff: 0
OS2SupYOff: 977
OS2StrikeYSize: 137
OS2StrikeYPos: 512
OS2Vendor: 'STC '
OS2CodePages: 20000093.00000000
OS2UnicodeRanges: a00000af.4000204a.00000000.00000000
DEI: 91125
TtTable: prep
PUSHW_1
 511
SCANCTRL
PUSHB_1
 4
SVTCA[y-axis]
EndTTInstrs
ShortTable: maxp 16
  1
  0
  427
  266
  7
  268
  4
  1
  0
  0
  0
  0
  0
  0
  2
  1
EndShort
LangName: 1033 "" "" "" "NicoleFally: Stoke Regular: 2011" "" "Version 1.001" "" "Stoke is a trademark of Sorkin Type Co." "Nicole Fally" "Nicole Fally" "Stoke is a semi-wide high contrast serifed text typeface. Stoke is inspired by letters found on 20th century UK posters showing an odd combination of seriousness of form and whimsical proportions and details. Stoke's low x height make it most suitable for use at medium to large sizes." "sorkintype.com" "sorkintype.com" "This Font Software is licensed under the SIL Open Font License, Version 1.1. This license is available with a FAQ at: http://scripts.sil.org/OFL" "http://scripts.sil.org/OFL" "" "" "" "Stoke" 
GaspTable: 1 65535 15
Encoding: UnicodeBmp
UnicodeInterp: none

StartChar: .notdef
Encoding: 65536 -1 0
Width: 1528
Flags: HW
LayerCount: 2
Fore
SplineSet
170 1307 m 1,0,-1
 1360 1307 l 1,1,-1
 1360 0 l 1,2,-1
 170 0 l 1,3,-1
 170 1307 l 1,0,-1
431 214 m 1,4,-1
 762 545 l 1,5,-1
 1101 205 l 1,6,-1
 1201 305 l 1,7,-1
 862 645 l 1,8,-1
 1193 976 l 1,9,-1
 1096 1073 l 1,10,-1
 765 742 l 1,11,-1
 426 1082 l 1,12,-1
 326 982 l 1,13,-1
 665 642 l 1,14,-1
 334 311 l 1,15,-1
 431 214 l 1,4,-1
EndSplineSet
EndChar

StartChar: D
Encoding: 68 68 4
Width: 1880
Flags: HW
LayerCount: 2
Fore
SplineSet
182 1462 m 1,0,-1
 133 1455 l 1,1,2
 100 1455 100 1455 100 1483 c 0,3,4
 100 1499 100 1499 118.5 1513.5 c 128,-1,5
 137 1528 137 1528 181 1528 c 128,-1,6
 225 1528 225 1528 250 1526 c 2,7,-1
 298 1522 l 1,8,9
 367.333 1514 367.333 1514 432.667 1514 c 0,10,11
 534 1514 534 1514 632.5 1524 c 0,12,13
 809.8 1542 809.8 1542 905 1542 c 0,14,15
 1294.87 1542 1294.87 1542 1530.5 1331.5 c 0,16,17
 1765 1122.01 1765 1122.01 1765 770 c 0,18,19
 1765 427.901 1765 427.901 1505 200 c 0,20,21
 1249.45 -24 1249.45 -24 872 -24 c 0,22,23
 789 -24 789 -24 730.5 -16 c 2,24,-1
 623 -1 l 2,25,26
 513.286 15 513.286 15 465.643 15 c 128,-1,27
 418 15 418 15 400 14.5 c 128,-1,28
 382 14 382 14 363.5 13 c 0,29,30
 319.84 10.64 319.84 10.64 299.92 7.82 c 0,31,32
 153.006 -12.978 153.006 -12.978 118.5 15 c 0,33,34
 100 30 100 30 100 46 c 0,35,36
 100 73 100 73 133 73 c 1,37,-1
 197 66 l 1,38,39
 254.158 66 254.158 66 275 102 c 0,40,41
 305.612 157.102 305.612 157.102 309.306 218.051 c 128,-1,42
 313 279 313 279 313 321 c 2,43,-1
 313 1195 l 2,44,45
 313 1317.6 313 1317.6 299 1356.8 c 128,-1,46
 285 1396 285 1396 273.5 1417.5 c 0,47,48
 249.698 1462 249.698 1462 182 1462 c 1,0,-1
539 1311 m 2,49,-1
 539 239 l 2,50,51
 539 148.959 539 148.959 603.5 114.5 c 0,52,53
 675.564 76 675.564 76 846.282 76 c 128,-1,54
 1017 76 1017 76 1139 113 c 128,-1,55
 1261 150 1261 150 1345 230.5 c 0,56,57
 1518 396.292 1518 396.292 1518 748 c 0,58,59
 1518 1091.13 1518 1091.13 1334 1271 c 0,60,61
 1156 1445 1156 1445 847.5 1445 c 128,-1,62
 539 1445 539 1445 539 1311 c 2,49,-1
EndSplineSet
EndChar

StartChar: O
Encoding: 79 79 5
Width: 1880
Flags: HW
LayerCount: 2
Fore
SplineSet
132 734.5 m 0,0,1
 132 908 132 908 190 1060.5 c 128,-1,2
 248 1213 248 1213 356 1324 c 0,3,4
 586.595 1561 586.595 1561 966 1561 c 0,5,6
 1185.71 1561 1185.71 1561 1369 1452.5 c 0,7,8
 1543.51 1349.2 1543.51 1349.2 1645.5 1172 c 0,9,10
 1748 993.919 1748 993.919 1748 786 c 0,11,12
 1748 410.434 1748 410.434 1503 188 c 0,13,14
 1270.59 -23 1270.59 -23 929 -23 c 0,15,16
 567.505 -23 567.505 -23 349 185 c 0,17,18
 132 391.567 132 391.567 132 734.5 c 0,0,1
340 889 m 256,19,20
 340 650.909 340 650.909 446.5 460.5 c 0,21,22
 544.305 285.637 544.305 285.637 708 187 c 0,23,24
 867.319 91 867.319 91 1042 91 c 0,25,26
 1244.07 91 1244.07 91 1375 232 c 0,27,28
 1516 383.846 1516 383.846 1516 648 c 0,29,30
 1516 867.438 1516 867.438 1421.5 1057.5 c 0,31,32
 1332.66 1236.19 1332.66 1236.19 1179.5 1343.5 c 0,33,34
 1026.08 1451 1026.08 1451 855 1451 c 0,35,36
 636.43 1451 636.43 1451 489.5 1293.5 c 0,37,38
 340 1133.24 340 1133.24 340 889 c 256,19,20
EndSplineSet
EndChar

StartChar: S
Encoding: 83 83 6
Width: 1539
Flags: HW
LayerCount: 2
Fore
SplineSet
1266 1355.5 m 128,-1,1
 1274 1318 1274 1318 1288 1261 c 128,-1,2
 1302 1204 1302 1204 1302 1166 c 128,-1,3
 1302 1128 1302 1128 1277 1128 c 0,4,5
 1258.76 1128 1258.76 1128 1235 1181 c 1,6,7
 1098.18 1465 1098.18 1465 786 1465 c 0,8,9
 620.444 1465 620.444 1465 517 1398.5 c 0,10,11
 415 1332.93 415 1332.93 415 1233 c 256,12,13
 415 1125.98 415 1125.98 498 1052 c 0,14,15
 596.323 964.364 596.323 964.364 791.162 918.682 c 128,-1,16
 986 873 986 873 1098.5 824.5 c 128,-1,17
 1211 776 1211 776 1278.5 716 c 0,18,19
 1402 606.222 1402 606.222 1402 422 c 0,20,21
 1402 219.613 1402 219.613 1239.5 98 c 0,22,23
 1077.82 -23 1077.82 -23 810 -23 c 0,24,25
 532.962 -23 532.962 -23 319 71.5 c 1,26,-1
 203 125 l 1,27,-1
 203 470 l 2,28,29
 203 585 203 585 239 585 c 0,30,31
 262.25 585 262.25 585 271 529 c 1,32,33
 292.992 331.069 292.992 331.069 446 202.5 c 0,34,35
 597.736 75 597.736 75 815 75 c 0,36,37
 1100.89 75 1100.89 75 1186 228.5 c 0,38,39
 1214 279 1214 279 1214 336 c 128,-1,40
 1214 393 1214 393 1191 439.5 c 128,-1,41
 1168 486 1168 486 1115 528 c 0,42,43
 1002.84 616.878 1002.84 616.878 760 670 c 0,44,45
 493.965 728.908 493.965 728.908 357.5 860 c 0,46,47
 235 977.677 235 977.677 235 1138 c 0,48,49
 235 1308.92 235 1308.92 375.5 1427.5 c 0,50,51
 533.681 1561 533.681 1561 797 1561 c 0,52,53
 944.357 1561 944.357 1561 1058 1524 c 1,54,-1
 1085.5 1514.5 l 2,55,56
 1108 1507 1108 1507 1118.5 1507 c 0,57,58
 1142.86 1507 1142.86 1507 1164.43 1536.5 c 0,59,60
 1199.16 1584 1199.16 1584 1213.08 1584 c 0,61,62
 1238.31 1584 1238.31 1584 1239.66 1547 c 128,-1,63
 1241 1510 1241 1510 1244 1483 c 128,-1,64
 1247 1456 1247 1456 1252.5 1424.5 c 128,-1,0
 1258 1393 1258 1393 1266 1355.5 c 128,-1,1
EndSplineSet
EndChar

StartChar: A
Encoding: 65 65 7
Width: 1707
Flags: HW
LayerCount: 2
Fore
SplineSet
190 15 m 1,0,-1
 50 0 l 1,1,2
 10 0 10 0 -8.5 13.5 c 128,-1,3
 -27 27 -27 27 -27 45 c 0,4,5
 -27 73 -27 73 6 73 c 1,6,-1
 55 66 l 1,7,8
 100.525 66 100.525 66 129.763 103.5 c 0,9,10
 184.725 173.995 184.725 173.995 267 355 c 1,11,12
 777.756 1462.51 777.756 1462.51 794.378 1495.76 c 128,-1,13
 811 1529 811 1529 822 1545 c 0,14,15
 839.188 1570 839.188 1570 857 1570 c 256,16,17
 875.333 1570 875.333 1570 891.667 1545.5 c 0,18,19
 917.75 1506.38 917.75 1506.38 965 1404 c 2,20,-1
 1486 265 l 2,21,22
 1560.18 102.912 1560.18 102.912 1616 75 c 0,23,24
 1634 66 1634 66 1653 66 c 1,25,-1
 1702 74 l 1,26,27
 1735 74 1735 74 1735 45 c 0,28,29
 1735 0 1735 0 1655 0 c 1,30,-1
 1461 15 l 1,31,-1
 1216 0 l 1,32,33
 1165 0 1165 0 1143.5 15 c 128,-1,34
 1122 30 1122 30 1122 45 c 0,35,36
 1122 73 1122 73 1154 73 c 1,37,-1
 1225 63 l 1,38,39
 1254 63 1254 63 1267 71.5 c 128,-1,40
 1280 80 1280 80 1280 98 c 128,-1,41
 1280 116 1280 116 1278 129 c 128,-1,42
 1276 142 1276 142 1271.5 158 c 0,43,44
 1263.16 187.653 1263.16 187.653 1239 240 c 2,45,-1
 1162 401 l 2,46,47
 1146.96 433.222 1146.96 433.222 1130.48 443.111 c 0,48,49
 1102.33 460 1102.33 460 1050 460 c 2,50,-1
 533 460 l 2,51,52
 459 460 459 460 435 424 c 0,53,54
 427 412 427 412 420 395 c 2,55,-1
 371 279 l 2,56,57
 316 147 316 147 316 116 c 256,58,59
 316 66 316 66 393 66 c 1,60,-1
 442 74 l 1,61,62
 474 74 474 74 474 45 c 0,63,64
 474 0 474 0 379 0 c 0,65,66
 322.75 0 322.75 0 288.875 5 c 0,67,68
 221.125 15 221.125 15 190 15 c 1,0,-1
504 578 m 256,69,70
 504 547 504 547 617 547 c 2,71,-1
 960 547 l 2,72,73
 1055.83 547 1055.83 547 1070 564 c 0,74,75
 1075 570 1075 570 1075 578 c 256,76,77
 1075 586 1075 586 1067.5 604.5 c 2,78,-1
 846 1141 l 2,79,80
 806.889 1237 806.889 1237 787 1237 c 0,81,82
 770.73 1237 770.73 1237 746 1176 c 2,83,-1
 517 623 l 1,84,85
 504 594.4 504 594.4 504 578 c 256,69,70
EndSplineSet
EndChar

StartChar: N
Encoding: 78 78 8
Width: 1876
Flags: HW
LayerCount: 2
Fore
SplineSet
603 0 m 1,0,-1
 415 15 l 257,1,2
 387.667 15 387.667 15 347.833 9.5 c 0,3,4
 146 -18.3682 146 -18.3682 146 46 c 0,5,6
 146 73 146 73 179 73 c 1,7,-1
 243 66 l 1,8,9
 300.158 66 300.158 66 321 102 c 0,10,11
 351.612 157.102 351.612 157.102 355.306 218.051 c 128,-1,12
 359 279 359 279 359 321 c 2,13,-1
 360 1153 l 2,14,15
 360 1202.23 360 1202.23 335 1255.12 c 128,-1,16
 310 1308 310 1308 294 1330 c 128,-1,17
 278 1352 278 1352 259 1372.5 c 128,-1,18
 240 1393 240 1393 217.5 1412 c 0,19,20
 168.125 1453.69 168.125 1453.69 134.562 1465.85 c 0,21,22
 82 1484.88 82 1484.88 82 1506.44 c 128,-1,23
 82 1528 82 1528 135 1528 c 1,24,-1
 444 1517 l 1,25,-1
 1484 418 l 1,26,-1
 1484 1200 l 2,27,28
 1484 1324.47 1484 1324.47 1470 1362.73 c 128,-1,29
 1456 1401 1456 1401 1445.5 1419.5 c 0,30,31
 1425.35 1455 1425.35 1455 1368 1455 c 1,32,-1
 1295 1448 l 1,33,34
 1262 1448 1262 1448 1262 1475 c 0,35,36
 1262 1491 1262 1491 1281.5 1506 c 128,-1,37
 1301 1521 1301 1521 1352 1521 c 1,38,-1
 1540 1506 l 257,39,40
 1567.33 1506 1567.33 1506 1607.17 1511.5 c 0,41,42
 1675.97 1521 1675.97 1521 1723.98 1521 c 128,-1,43
 1772 1521 1772 1521 1790.5 1506 c 128,-1,44
 1809 1491 1809 1491 1809 1475 c 0,45,46
 1809 1448 1809 1448 1776 1448 c 1,47,-1
 1712 1455 l 1,48,49
 1654.84 1455 1654.84 1455 1634 1419 c 0,50,51
 1603.39 1363.9 1603.39 1363.9 1599.69 1302.95 c 128,-1,52
 1596 1242 1596 1242 1596 1200 c 2,53,-1
 1596 181 l 2,54,55
 1596 60.375 1596 60.375 1618 20.5 c 0,56,57
 1626 6 1626 6 1639.5 -5.5 c 0,58,59
 1660 -22.963 1660 -22.963 1660 -41 c 0,60,61
 1660 -65 1660 -65 1631 -65 c 0,62,63
 1592.38 -65 1592.38 -65 1525 8 c 2,64,-1
 471 1134 l 1,65,-1
 471 321 l 2,66,67
 471 196.533 471 196.533 485 158.267 c 128,-1,68
 499 120 499 120 509.5 101.5 c 0,69,70
 529.649 66.0001 529.649 66.0001 587 66 c 1,71,-1
 660 73 l 1,72,73
 693 73 693 73 693 46 c 0,74,75
 693 30 693 30 673.5 15 c 128,-1,76
 654 0 654 0 603 0 c 1,0,-1
EndSplineSet
EndChar

StartChar: a
Encoding: 97 97 9
Width: 1366
Flags: HW
LayerCount: 2
Fore
SplineSet
979 0 m 0,0,1
 922.361 0 922.361 0 914 102 c 1,2,3
 826.296 11.1633 826.296 11.1633 682 -15.5 c 0,4,5
 636 -24 636 -24 560.5 -24 c 128,-1,6
 485 -24 485 -24 407 -1.5 c 128,-1,7
 329 21 329 21 277 62 c 0,8,9
 173 144 173 144 173 293 c 0,10,11
 173 454.915 173 454.915 302 538 c 0,12,13
 415.342 611 415.342 611 593.171 611 c 128,-1,14
 771 611 771 611 913 535 c 1,15,-1
 913 655 l 2,16,17
 913 795.949 913 795.949 830 871.5 c 0,18,19
 752.549 942 752.549 942 618 942 c 0,20,21
 459.067 942 459.067 942 330 766 c 1,22,23
 282.762 704 282.762 704 258.881 704 c 128,-1,24
 235 704 235 704 235 726 c 128,-1,25
 235 748 235 748 248 786 c 0,26,27
 273 859.077 273 859.077 273 995 c 0,28,29
 273 1039 273 1039 305 1039 c 0,30,31
 345.364 1039 345.364 1039 395 1000 c 0,32,33
 409 989 409 989 419 989 c 256,34,35
 433 989 433 989 453 996.5 c 128,-1,36
 473 1004 473 1004 498.5 1009.5 c 128,-1,37
 524 1015 524 1015 553 1020 c 0,38,39
 622.6 1032 622.6 1032 659 1032 c 0,40,41
 1050.23 1032 1050.23 1032 1114 787 c 0,42,43
 1133 714 1133 714 1133 631 c 2,44,-1
 1133 345 l 2,45,46
 1133 200.25 1133 200.25 1140 166.125 c 128,-1,47
 1147 132 1147 132 1156.5 109 c 128,-1,48
 1166 86 1166 86 1194 74 c 128,-1,49
 1222 62 1222 62 1249 62 c 1,50,-1
 1305 70 l 1,51,52
 1337 70 1337 70 1337 44 c 0,53,54
 1337 -3 1337 -3 1244 -3 c 1,55,-1
 1091 6 l 2,56,57
 1078 6 1078 6 1064.5 5 c 2,58,-1
 1038 3 l 2,59,60
 1011 0 1011 0 979 0 c 0,0,1
421.5 391 m 128,-1,62
 406 355 406 355 406 309 c 128,-1,63
 406 263 406 263 422.5 220.5 c 128,-1,64
 439 178 439 178 471 148 c 0,65,66
 537.133 86 537.133 86 660 86 c 0,67,68
 772.364 86 772.364 86 862 154 c 0,69,70
 891 176 891 176 913 205 c 1,71,-1
 913 443 l 1,72,73
 835.988 491.133 835.988 491.133 727.5 510 c 0,74,75
 693 516 693 516 644 516 c 128,-1,76
 595 516 595 516 547.5 499.5 c 128,-1,77
 500 483 500 483 468.5 455 c 128,-1,61
 437 427 437 427 421.5 391 c 128,-1,62
EndSplineSet
EndChar

StartChar: d
Encoding: 100 100 10
Width: 1364
Flags: HW
LayerCount: 2
Fore
SplineSet
926 57 m 1,0,1
 804.083 -20 804.083 -20 665.042 -20 c 128,-1,2
 526 -20 526 -20 423.5 17.5 c 128,-1,3
 321 55 321 55 249 124 c 0,4,5
 101 265.833 101 265.833 101 507 c 0,6,7
 101 726.274 101 726.274 257 878 c 0,8,9
 415.338 1032 415.338 1032 645 1032 c 0,10,11
 804.071 1032 804.071 1032 918 974 c 1,12,-1
 918 1332 l 2,13,14
 918 1531 918 1531 872 1589 c 1,15,16
 836.515 1629.22 836.515 1629.22 747 1637 c 0,17,18
 695 1642.2 695 1642.2 695 1670 c 0,19,20
 695 1682 695 1682 709 1691.5 c 128,-1,21
 723 1701 723 1701 748.5 1701 c 128,-1,22
 774 1701 774 1701 794.5 1699 c 2,23,-1
 836 1695 l 2,24,25
 893 1689 893 1689 933 1689 c 256,26,27
 989.8 1689 989.8 1689 1030.4 1696 c 128,-1,28
 1071 1703 1071 1703 1087.5 1703 c 128,-1,29
 1104 1703 1104 1703 1115.5 1699.5 c 128,-1,30
 1127 1696 1127 1696 1133 1683.5 c 0,31,32
 1143 1662.67 1143 1662.67 1143 1580 c 2,33,-1
 1143 345 l 2,34,35
 1143 157 1143 157 1159.5 117 c 128,-1,36
 1176 77 1176 77 1200 70 c 128,-1,37
 1224 63 1224 63 1251 63 c 1,38,-1
 1307 70 l 257,39,40
 1339 70 1339 70 1339 45 c 0,41,42
 1339 -3 1339 -3 1246 -3 c 1,43,-1
 1093 6 l 2,44,45
 1080 6 1080 6 1068 5 c 2,46,-1
 1043 3 l 2,47,48
 1016 0 1016 0 984 0 c 0,49,50
 939.818 0 939.818 0 926 57 c 1,0,1
700 64 m 1,51,52
 825.061 61.8059 825.061 61.8059 918 147 c 1,53,-1
 918 821 l 1,54,55
 852.003 907.083 852.003 907.083 730 932.5 c 0,56,57
 694 940 694 940 637.5 940 c 128,-1,58
 581 940 581 940 520 909 c 128,-1,59
 459 878 459 878 417 825 c 0,60,61
 331 716.476 331 716.476 331 557 c 0,62,63
 331 349 331 349 436 206.5 c 128,-1,64
 541 64 541 64 700 64 c 1,51,52
EndSplineSet
EndChar

StartChar: e
Encoding: 101 101 11
Width: 1194
Flags: HW
LayerCount: 2
Fore
SplineSet
137.5 283 m 128,-1,1
 93 381 93 381 93 494 c 128,-1,2
 93 607 93 607 133.5 702.5 c 128,-1,3
 174 798 174 798 247.5 871 c 0,4,5
 409.603 1032 409.603 1032 651 1032 c 0,6,7
 829.407 1032 829.407 1032 954.5 935.5 c 0,8,9
 1029.23 877.854 1029.23 877.854 1092 768 c 0,10,11
 1118 722 1118 722 1118 695 c 256,12,13
 1118 651.323 1118 651.323 1072 635 c 0,14,15
 805.636 537.719 805.636 537.719 507.5 465.5 c 1,16,-1
 345 427 l 1,17,18
 380.005 271.423 380.005 271.423 489.5 180 c 0,19,20
 594.895 92 594.895 92 729 92 c 0,21,22
 855.6 92 855.6 92 969 173 c 0,23,24
 1004 198 1004 198 1022 223.5 c 128,-1,25
 1040 249 1040 249 1049.5 258 c 128,-1,26
 1059 267 1059 267 1072 267 c 0,27,28
 1100 267 1100 267 1100 241 c 0,29,30
 1100 205.875 1100 205.875 1065 157.938 c 128,-1,31
 1030 110 1030 110 985.5 76.5 c 128,-1,32
 941 43 941 43 889 20.5 c 0,33,34
 786.156 -24 786.156 -24 663.578 -24 c 128,-1,35
 541 -24 541 -24 438 12 c 128,-1,36
 335 48 335 48 258.5 116.5 c 128,-1,0
 182 185 182 185 137.5 283 c 128,-1,1
333 511 m 1,37,38
 673.364 596.091 673.364 596.091 855 660 c 0,39,40
 879 667.5 879 667.5 879 687.75 c 128,-1,41
 879 708 879 708 871 733.5 c 128,-1,42
 863 759 863 759 848 787 c 128,-1,43
 833 815 833 815 811 842.5 c 128,-1,44
 789 870 789 870 760.5 891.5 c 0,45,46
 696.209 940 696.209 940 630.105 940 c 128,-1,47
 564 940 564 940 511 916.5 c 128,-1,48
 458 893 458 893 418 845 c 0,49,50
 332 741.8 332 741.8 332 552 c 2,51,-1
 332 531 l 2,52,53
 332 521 332 521 333 511 c 1,37,38
EndSplineSet
EndChar

StartChar: h
Encoding: 104 104 12
Width: 1532
Flags: HW
LayerCount: 2
Fore
SplineSet
219 0 m 0,0,1
 124 0 124 0 124 45 c 0,2,3
 124 73 124 73 157 73 c 1,4,-1
 206 66 l 1,5,6
 264.571 66 264.571 66 285 118 c 1,7,8
 315 198.769 315 198.769 315 348 c 2,9,-1
 315 1333 l 2,10,11
 315 1531 315 1531 269 1589 c 1,12,13
 233.515 1629.22 233.515 1629.22 144 1637 c 0,14,15
 92 1642.2 92 1642.2 92 1670 c 0,16,17
 92 1682 92 1682 106 1691.5 c 128,-1,18
 120 1701 120 1701 145.5 1701 c 128,-1,19
 171 1701 171 1701 191.5 1699 c 2,20,-1
 233 1695 l 2,21,22
 290 1689 290 1689 330 1689 c 256,23,24
 386.8 1689 386.8 1689 427.4 1696 c 128,-1,25
 468 1703 468 1703 484.5 1703 c 128,-1,26
 501 1703 501 1703 512.5 1699.5 c 128,-1,27
 524 1696 524 1696 530 1683.5 c 0,28,29
 540 1662.67 540 1662.67 540 1580 c 2,30,-1
 540 849 l 1,31,32
 705.977 1032 705.977 1032 929 1032 c 0,33,34
 1123.14 1032 1123.14 1032 1208.5 912.5 c 0,35,36
 1273 822.2 1273 822.2 1273 674 c 2,37,-1
 1273 348 l 2,38,39
 1273 216 1273 216 1283 176 c 128,-1,40
 1293 136 1293 136 1301.5 113.5 c 128,-1,41
 1310 91 1310 91 1331.5 78.5 c 128,-1,42
 1353 66 1353 66 1374 66 c 1,43,-1
 1426 73 l 1,44,45
 1457 73 1457 73 1457 46 c 0,46,47
 1457 0 1457 0 1366 0 c 0,48,49
 1339.5 0 1339.5 0 1300.75 5.5 c 0,50,51
 1194.98 20.5126 1194.98 20.5126 1139.49 15.7563 c 2,52,-1
 1067.5 9.5 l 2,53,54
 1051 8 1051 8 1031.5 5.5 c 0,55,56
 988.6 -3.29988e-06 988.6 -3.29988e-06 960 0 c 0,57,58
 860 0 860 0 860 45 c 0,59,60
 860 73 860 73 893 73 c 1,61,-1
 945 66 l 1,62,63
 1035.36 66 1035.36 66 1044.5 207 c 0,64,65
 1048 261 1048 261 1048 348 c 2,66,-1
 1048 636 l 2,67,68
 1048 820.281 1048 820.281 944 887.5 c 0,69,70
 903 914 903 914 848 914 c 128,-1,71
 793 914 793 914 750.5 900 c 128,-1,72
 708 886 708 886 670 863 c 0,73,74
 597.395 819.055 597.395 819.055 540 744 c 1,75,-1
 540 348 l 2,76,77
 540 207.727 540 207.727 550 171.364 c 128,-1,78
 560 135 560 135 571 112 c 0,79,80
 593 66 593 66 656 66 c 1,81,-1
 705 73 l 1,82,83
 737 73 737 73 737 45 c 0,84,85
 737 0 737 0 638 0 c 0,86,87
 609 0 609 0 591.5 2.5 c 128,-1,88
 574 5 574 5 559 6.5 c 2,89,-1
 528 9.5 l 2,90,91
 512 11 512 11 494 12 c 128,-1,92
 476 13 476 13 458 14 c 128,-1,93
 440 15 440 15 425 15 c 256,94,95
 410 15 410 15 390.5 14 c 2,96,-1
 352.5 12 l 2,97,98
 317.913 10.1304 317.913 10.1304 296.957 7.06522 c 0,99,100
 248.652 -7.31774e-07 248.652 -7.31774e-07 219 0 c 0,0,1
EndSplineSet
EndChar

StartChar: i
Encoding: 105 105 13
Width: 855
Flags: HW
LayerCount: 2
Fore
SplineSet
484 1233.5 m 128,-1,1
 457 1221 457 1221 421 1221 c 128,-1,2
 385 1221 385 1221 357.5 1234 c 128,-1,3
 330 1247 330 1247 312.5 1268 c 0,4,5
 279 1308.2 279 1308.2 279 1354.1 c 128,-1,6
 279 1400 279 1400 289.5 1427.5 c 128,-1,7
 300 1455 300 1455 319.5 1475 c 0,8,9
 361.425 1518 361.425 1518 412.212 1518 c 128,-1,10
 463 1518 463 1518 490 1505 c 128,-1,11
 517 1492 517 1492 535 1470.5 c 0,12,13
 570 1428.69 570 1428.69 570 1383.85 c 128,-1,14
 570 1339 570 1339 559.5 1313 c 128,-1,15
 549 1287 549 1287 530 1266.5 c 128,-1,0
 511 1246 511 1246 484 1233.5 c 128,-1,1
238 0 m 0,16,17
 143 0 143 0 143 45 c 0,18,19
 143 73 143 73 176 73 c 1,20,-1
 225 66 l 1,21,22
 283.571 66 283.571 66 304 118 c 1,23,24
 334 198.769 334 198.769 334 348 c 2,25,-1
 334 639 l 2,26,27
 334 834 334 834 290 892 c 0,28,29
 270 918 270 918 241.5 926.5 c 128,-1,30
 213 935 213 935 186.5 938.5 c 128,-1,31
 160 942 160 942 145 948.5 c 128,-1,32
 130 955 130 955 130 970 c 0,33,34
 130 1009 130 1009 190 1009 c 1,35,-1
 335 997 l 1,36,37
 354 997 354 997 372 999 c 2,38,-1
 446 1007 l 2,39,40
 465 1009 465 1009 483 1009 c 128,-1,41
 501 1009 501 1009 515 1006 c 128,-1,42
 529 1003 529 1003 538.5 990.5 c 0,43,44
 559 963.526 559 963.526 559 887 c 2,45,-1
 559 348 l 2,46,47
 559 207.727 559 207.727 569 171.364 c 128,-1,48
 579 135 579 135 590 112 c 0,49,50
 612 66 612 66 675 66 c 1,51,-1
 724 73 l 1,52,53
 756 73 756 73 756 45 c 0,54,55
 756 0 756 0 657 0 c 0,56,57
 628 0 628 0 610.5 2.5 c 128,-1,58
 593 5 593 5 578 6.5 c 2,59,-1
 547 9.5 l 2,60,61
 531 11 531 11 513 12 c 128,-1,62
 495 13 495 13 477 14 c 128,-1,63
 459 15 459 15 444 15 c 256,64,65
 429 15 429 15 409.5 14 c 2,66,-1
 371.5 12 l 2,67,68
 336.913 10.1304 336.913 10.1304 315.957 7.06522 c 0,69,70
 267.652 1.50006e-06 267.652 1.50006e-06 238 0 c 0,16,17
EndSplineSet
EndChar

StartChar: n
Encoding: 110 110 14
Width: 1532
Flags: HW
LayerCount: 2
Fore
SplineSet
219 0 m 0,0,1
 124 0 124 0 124 45 c 0,2,3
 124 73 124 73 157 73 c 1,4,-1
 206 66 l 1,5,6
 264.571 66 264.571 66 285 118 c 1,7,8
 315 198.769 315 198.769 315 348 c 2,9,-1
 315 639 l 2,10,11
 315 834 315 834 271 892 c 0,12,13
 251 918 251 918 222.5 926.5 c 128,-1,14
 194 935 194 935 167.5 938.5 c 128,-1,15
 141 942 141 942 126 948.5 c 128,-1,16
 111 955 111 955 111 970 c 0,17,18
 111 1009 111 1009 171 1009 c 1,19,-1
 316 997 l 1,20,21
 335 997 335 997 353 999 c 2,22,-1
 427 1007 l 2,23,24
 446 1009 446 1009 464 1009 c 128,-1,25
 482 1009 482 1009 496 1006 c 128,-1,26
 510 1003 510 1003 519.5 990.5 c 0,27,28
 540 963.526 540 963.526 540 887 c 2,29,-1
 540 849 l 1,30,31
 705.977 1032 705.977 1032 929 1032 c 0,32,33
 1123.14 1032 1123.14 1032 1208.5 912.5 c 0,34,35
 1273 822.2 1273 822.2 1273 674 c 2,36,-1
 1273 348 l 2,37,38
 1273 216 1273 216 1283 176 c 128,-1,39
 1293 136 1293 136 1301.5 113.5 c 128,-1,40
 1310 91 1310 91 1331.5 78.5 c 128,-1,41
 1353 66 1353 66 1374 66 c 1,42,-1
 1426 73 l 1,43,44
 1457 73 1457 73 1457 46 c 0,45,46
 1457 0 1457 0 1366 0 c 0,47,48
 1339.5 0 1339.5 0 1300.75 5.5 c 0,49,50
 1194.98 20.5126 1194.98 20.5126 1139.49 15.7563 c 2,51,-1
 1067.5 9.5 l 2,52,53
 1051 8 1051 8 1031.5 5.5 c 0,54,55
 988.6 -3.29988e-06 988.6 -3.29988e-06 960 0 c 0,56,57
 860 0 860 0 860 45 c 0,58,59
 860 73 860 73 893 73 c 1,60,-1
 945 66 l 1,61,62
 1035.36 66 1035.36 66 1044.5 207 c 0,63,64
 1048 261 1048 261 1048 348 c 2,65,-1
 1048 636 l 2,66,67
 1048 820.281 1048 820.281 944 887.5 c 0,68,69
 903 914 903 914 848 914 c 128,-1,70
 793 914 793 914 750.5 900 c 128,-1,71
 708 886 708 886 670 863 c 0,72,73
 597.395 819.055 597.395 819.055 540 744 c 1,74,-1
 540 348 l 2,75,76
 540 207.727 540 207.727 550 171.364 c 128,-1,77
 560 135 560 135 571 112 c 0,78,79
 593 66 593 66 656 66 c 1,80,-1
 705 73 l 1,81,82
 737 73 737 73 737 45 c 0,83,84
 737 0 737 0 638 0 c 0,85,86
 609 0 609 0 591.5 2.5 c 128,-1,87
 574 5 574 5 559 6.5 c 2,88,-1
 528 9.5 l 2,89,90
 512 11 512 11 494 12 c 128,-1,91
 476 13 476 13 458 14 c 128,-1,92
 440 15 440 15 425 15 c 256,93,94
 410 15 410 15 390.5 14 c 2,95,-1
 352.5 12 l 2,96,97
 317.913 10.1304 317.913 10.1304 296.957 7.06522 c 0,98,99
 248.652 -7.31774e-07 248.652 -7.31774e-07 219 0 c 0,0,1
EndSplineSet
EndChar

StartChar: o
Encoding: 111 111 15
Width: 1366
Flags: HW
LayerCount: 2
Fore
SplineSet
123 527 m 0,0,1
 123 611 123 611 166.5 707.5 c 128,-1,2
 210 804 210 804 285.5 876 c 0,3,4
 449.083 1032 449.083 1032 684 1032 c 0,5,6
 953.375 1032 953.375 1032 1107.5 870 c 0,7,8
 1242 728.628 1242 728.628 1242 522 c 0,9,10
 1242 283.6 1242 283.6 1100 134.5 c 0,11,12
 949.048 -24 949.048 -24 688 -24 c 0,13,14
 312.171 -24 312.171 -24 176 260.5 c 0,15,16
 123 371.232 123 371.232 123 527 c 0,0,1
380 728 m 128,-1,18
 359 662 359 662 359 568 c 128,-1,19
 359 474 359 474 390.5 379 c 128,-1,20
 422 284 422 284 474.5 214 c 0,21,22
 587 64 587 64 734 64 c 0,23,24
 846.326 64 846.326 64 922.5 160 c 0,25,26
 1002 260.192 1002 260.192 1002 397.596 c 128,-1,27
 1002 535 1002 535 969 633.5 c 128,-1,28
 936 732 936 732 883 800.5 c 128,-1,29
 830 869 830 869 763 905 c 128,-1,30
 696 941 696 941 634 941 c 128,-1,31
 572 941 572 941 523 914.5 c 128,-1,32
 474 888 474 888 437.5 841 c 128,-1,17
 401 794 401 794 380 728 c 128,-1,18
EndSplineSet
EndChar

StartChar: s
Encoding: 115 115 16
Width: 1196
Flags: HW
LayerCount: 2
Fore
SplineSet
1011 709 m 128,-1,1
 989.174 709 989.174 709 965.587 756.5 c 128,-1,2
 942 804 942 804 898 842 c 128,-1,3
 854 880 854 880 803.5 903 c 0,4,5
 711.283 945 711.283 945 630.141 945 c 128,-1,6
 549 945 549 945 506 932.5 c 128,-1,7
 463 920 463 920 433.5 900.5 c 0,8,9
 374 861.169 374 861.169 374 817.585 c 128,-1,10
 374 774 374 774 387.5 748 c 128,-1,11
 401 722 401 722 435 699.5 c 0,12,13
 498.112 657.735 498.112 657.735 644.056 622.867 c 128,-1,14
 790 588 790 588 872.5 556.5 c 128,-1,15
 955 525 955 525 1006.5 485.5 c 0,16,17
 1105 409.951 1105 409.951 1105 284 c 0,18,19
 1105 83.6757 1105 83.6757 865.5 6 c 0,20,21
 773 -24 773 -24 672 -24 c 128,-1,22
 571 -24 571 -24 500 -14.5 c 128,-1,23
 429 -5 429 -5 360.5 11 c 0,24,25
 208.203 46.5731 208.203 46.5731 145 92 c 1,26,-1
 145 336 l 2,27,28
 145 346 145 346 152 353 c 128,-1,29
 159 360 159 360 170.5 360 c 0,30,31
 193.9 360 193.9 360 207.45 313 c 128,-1,32
 221 266 221 266 264 218 c 128,-1,33
 307 170 307 170 368 135.5 c 0,34,35
 496.188 63 496.188 63 663 63 c 0,36,37
 836.197 63 836.197 63 891.5 149.5 c 0,38,39
 911 180 911 180 911 215 c 128,-1,40
 911 250 911 250 898 272 c 128,-1,41
 885 294 885 294 849 315 c 0,42,43
 775.5 357.875 775.5 357.875 620.75 396.438 c 128,-1,44
 466 435 466 435 386 472.5 c 128,-1,45
 306 510 306 510 258.5 553.5 c 0,46,47
 172 632.716 172 632.716 172 746 c 0,48,49
 172 855.642 172 855.642 279.5 937.5 c 0,50,51
 403.602 1032 403.602 1032 611 1032 c 0,52,53
 706 1032 706 1032 841 997 c 0,54,55
 845 996 845 996 853.5 993 c 128,-1,56
 862 990 862 990 872 987 c 0,57,58
 895.333 980 895.333 980 907.167 980 c 0,59,60
 922.2 980 922.2 980 943 1006 c 256,61,62
 963.8 1032 963.8 1032 979 1032 c 0,63,64
 1007 1032 1007 1032 1007 995 c 0,65,66
 1007 847.25 1007 847.25 1019 803.625 c 0,67,68
 1033 752.729 1033 752.729 1033 730.865 c 128,-1,0
 1033 709 1033 709 1011 709 c 128,-1,1
EndSplineSet
EndChar

StartChar: m
Encoding: 109 109 17
Width: 2216
Flags: HW
LayerCount: 2
Fore
SplineSet
199 0 m 0,0,1
 104 0 104 0 104 45 c 0,2,3
 104 73 104 73 137 73 c 1,4,-1
 186 66 l 1,5,6
 244.571 66 244.571 66 265 118 c 1,7,8
 295 198.769 295 198.769 295 348 c 2,9,-1
 295 639 l 2,10,11
 295 834 295 834 251 892 c 0,12,13
 231 918 231 918 202.5 926.5 c 128,-1,14
 174 935 174 935 147.5 938.5 c 128,-1,15
 121 942 121 942 106 948.5 c 128,-1,16
 91 955 91 955 91 970 c 0,17,18
 91 1009 91 1009 151 1009 c 1,19,-1
 296 997 l 1,20,21
 315 997 315 997 333 999 c 2,22,-1
 407 1007 l 2,23,24
 426 1009 426 1009 444 1009 c 128,-1,25
 462 1009 462 1009 475.5 1006 c 128,-1,26
 489 1003 489 1003 498.5 991 c 0,27,28
 520 963.842 520 963.842 520 889 c 1,29,30
 691.6 1032 691.6 1032 894 1032 c 0,31,32
 1012 1032 1012 1032 1097 985 c 128,-1,33
 1182 938 1182 938 1224 855 c 1,34,35
 1345.64 976.636 1345.64 976.636 1517 1018 c 0,36,37
 1575 1032 1575 1032 1647 1032 c 128,-1,38
 1719 1032 1719 1032 1786.5 1007.5 c 128,-1,39
 1854 983 1854 983 1902 938.5 c 0,40,41
 2001 846.719 2001 846.719 2001 693 c 2,42,-1
 2001 348 l 2,43,44
 2001 216 2001 216 2011 176 c 128,-1,45
 2021 136 2021 136 2029.5 113.5 c 128,-1,46
 2038 91 2038 91 2059.5 78.5 c 128,-1,47
 2081 66 2081 66 2102 66 c 1,48,-1
 2154 73 l 1,49,50
 2185 73 2185 73 2185 46 c 0,51,52
 2185 0 2185 0 2094 0 c 0,53,54
 2067.5 0 2067.5 0 2028.75 5.5 c 0,55,56
 1922.98 20.5126 1922.98 20.5126 1867.49 15.7563 c 2,57,-1
 1795.5 9.5 l 2,58,59
 1779 8 1779 8 1759.5 5.5 c 0,60,61
 1716.6 -3.29988e-06 1716.6 -3.29988e-06 1688 0 c 0,62,63
 1588 0 1588 0 1588 45 c 0,64,65
 1588 73 1588 73 1621 73 c 1,66,-1
 1673 66 l 1,67,68
 1763.36 66 1763.36 66 1772.5 207 c 0,69,70
 1776 261 1776 261 1776 348 c 2,71,-1
 1776 694 l 2,72,73
 1776 801 1776 801 1722 861.5 c 128,-1,74
 1668 922 1668 922 1579 922 c 0,75,76
 1418.09 922 1418.09 922 1253 771 c 1,77,78
 1261 731 1261 731 1261 693 c 2,79,-1
 1261 348 l 2,80,81
 1261 216 1261 216 1271 176 c 128,-1,82
 1281 136 1281 136 1289.5 113.5 c 128,-1,83
 1298 91 1298 91 1319.5 78.5 c 128,-1,84
 1341 66 1341 66 1362 66 c 1,85,-1
 1414 73 l 1,86,87
 1445 73 1445 73 1445 46 c 0,88,89
 1445 0 1445 0 1354 0 c 0,90,91
 1327.5 0 1327.5 0 1288.75 5.5 c 0,92,93
 1182.98 20.5126 1182.98 20.5126 1127.49 15.7563 c 2,94,-1
 1055.5 9.5 l 2,95,96
 1039 8 1039 8 1019.5 5.5 c 0,97,98
 976.6 -3.29988e-06 976.6 -3.29988e-06 948 0 c 0,99,100
 848 0 848 0 848 45 c 0,101,102
 848 73 848 73 881 73 c 1,103,-1
 933 66 l 1,104,105
 1023.36 66 1023.36 66 1032.5 207 c 0,106,107
 1036 261 1036 261 1036 348 c 2,108,-1
 1036 694 l 2,109,110
 1036 801 1036 801 982 861.5 c 128,-1,111
 928 922 928 922 831 922 c 0,112,113
 678 922 678 922 520 778 c 1,114,-1
 520 348 l 2,115,116
 520 207.727 520 207.727 530 171.364 c 128,-1,117
 540 135 540 135 551 112 c 0,118,119
 573 66 573 66 636 66 c 1,120,-1
 685 73 l 1,121,122
 717 73 717 73 717 45 c 0,123,124
 717 0 717 0 618 0 c 0,125,126
 589 0 589 0 571.5 2.5 c 128,-1,127
 554 5 554 5 539 6.5 c 2,128,-1
 508 9.5 l 2,129,130
 492 11 492 11 474 12 c 128,-1,131
 456 13 456 13 438 14 c 128,-1,132
 420 15 420 15 405 15 c 256,133,134
 390 15 390 15 370.5 14 c 2,135,-1
 332.5 12 l 2,136,137
 297.913 10.1304 297.913 10.1304 276.957 7.06522 c 0,138,139
 228.652 -7.31774e-07 228.652 -7.31774e-07 199 0 c 0,0,1
EndSplineSet
EndChar

StartChar: l
Encoding: 108 108 18
Width: 855
Flags: HW
LayerCount: 2
Fore
SplineSet
246 0 m 0,0,1
 146 0 146 0 146 45 c 0,2,3
 146 73 146 73 179 73 c 1,4,-1
 231 66 l 1,5,6
 321.361 66 321.361 66 330.5 207 c 0,7,8
 334 261 334 261 334 348 c 2,9,-1
 334 1330 l 2,10,11
 334 1533 334 1533 288 1589 c 1,12,13
 252.515 1629.22 252.515 1629.22 163 1637 c 0,14,15
 111 1642.2 111 1642.2 111 1670 c 0,16,17
 111 1682 111 1682 125 1691.5 c 128,-1,18
 139 1701 139 1701 164.5 1701 c 128,-1,19
 190 1701 190 1701 210.5 1699 c 2,20,-1
 252 1695 l 2,21,22
 309 1689 309 1689 349 1689 c 256,23,24
 405.8 1689 405.8 1689 446.4 1696 c 128,-1,25
 487 1703 487 1703 503.5 1703 c 128,-1,26
 520 1703 520 1703 531.5 1699.5 c 128,-1,27
 543 1696 543 1696 549 1683.5 c 0,28,29
 559 1662.67 559 1662.67 559 1580 c 2,30,-1
 559 348 l 2,31,32
 559 216 559 216 569 176 c 128,-1,33
 579 136 579 136 587.5 113.5 c 128,-1,34
 596 91 596 91 617.5 78.5 c 128,-1,35
 639 66 639 66 660 66 c 1,36,-1
 712 73 l 1,37,38
 743 73 743 73 743 46 c 0,39,40
 743 0 743 0 652 0 c 0,41,42
 625.5 0 625.5 0 586.75 5.5 c 0,43,44
 519.818 15 519.818 15 479.909 15 c 128,-1,45
 440 15 440 15 422.5 14.5 c 128,-1,46
 405 14 405 14 387.5 12.5 c 2,47,-1
 353.5 9.5 l 2,48,49
 337 8 337 8 317.5 5.5 c 0,50,51
 274.6 6.12629e-07 274.6 6.12629e-07 246 0 c 0,0,1
EndSplineSet
EndChar

StartChar: V
Encoding: 86 86 19
Width: 1707
Flags: HW
LayerCount: 2
Fore
SplineSet
1702 1455 m 1,0,-1
 1646 1463 l 1,1,2
 1594.82 1463 1594.82 1463 1565.41 1424 c 0,3,4
 1516.32 1358.9 1516.32 1358.9 1430 1169 c 0,5,6
 998.789 222.114 998.789 222.114 981.394 176.557 c 128,-1,7
 964 131 964 131 958.5 110.5 c 0,8,9
 949 75.0909 949 75.0909 949 46.0455 c 0,10,11
 949 -9.4 949 -9.4 988 -25 c 0,12,13
 1021 -38.8947 1021 -38.8947 1021 -61.4474 c 128,-1,14
 1021 -84 1021 -84 989 -84 c 128,-1,15
 957 -84 957 -84 921.5 -65 c 128,-1,16
 886 -46 886 -46 844 1.5 c 0,17,18
 748.084 109.977 748.084 109.977 647 332 c 2,19,-1
 222 1259 l 1,20,21
 142.587 1436.36 142.587 1436.36 93 1456.5 c 0,22,23
 77 1463 77 1463 61 1463 c 1,24,-1
 6 1455 l 1,25,26
 -27 1455 -27 1455 -27 1481 c 0,27,28
 -27 1499 -27 1499 -5.5 1513.5 c 128,-1,29
 16 1528 16 1528 61 1528 c 1,30,-1
 258 1514 l 1,31,-1
 524 1528 l 1,32,33
 620 1528 620 1528 620 1481 c 0,34,35
 620 1456 620 1456 588 1456 c 1,36,-1
 512 1465 l 1,37,38
 444 1465 444 1465 444 1414 c 0,39,40
 444 1376.25 444 1376.25 485 1284 c 2,41,-1
 866 409 l 2,42,43
 907.143 313 907.143 313 925 313 c 0,44,45
 937.676 313 937.676 313 962 373 c 1,46,-1
 1338 1245 l 2,47,48
 1387 1356.19 1387 1356.19 1387 1424 c 0,49,50
 1387 1466 1387 1466 1329 1466 c 1,51,-1
 1243 1456 l 1,52,53
 1211 1456 1211 1456 1211 1481 c 0,54,55
 1211 1500 1211 1500 1233 1514 c 128,-1,56
 1255 1528 1255 1528 1295.5 1528 c 128,-1,57
 1336 1528 1336 1528 1362 1525.5 c 2,58,-1
 1410 1521 l 1,59,60
 1466 1514 1466 1514 1495.5 1514 c 0,61,62
 1542 1514 1542 1514 1571.5 1518.5 c 2,63,-1
 1618 1525.5 l 2,64,65
 1635 1528 1635 1528 1662 1528 c 128,-1,66
 1689 1528 1689 1528 1712 1515.5 c 128,-1,67
 1735 1503 1735 1503 1735 1479 c 128,-1,68
 1735 1455 1735 1455 1702 1455 c 1,0,-1
EndSplineSet
EndChar

StartChar: W
Encoding: 87 87 20
Width: 2389
Flags: HW
LayerCount: 2
Fore
SplineSet
648.5 -84 m 0,0,1
 616 -84 616 -84 616 -59 c 0,2,3
 616 -44 616 -44 626.5 -37.5 c 128,-1,4
 637 -31 637 -31 653.5 -23 c 0,5,6
 688 -6.27273 688 -6.27273 688 27.3636 c 0,7,8
 688 82.1034 688 82.1034 624 241 c 1,9,-1
 196 1255 l 2,10,11
 141.813 1382.06 141.813 1382.06 112.907 1415.53 c 128,-1,12
 84 1449 84 1449 68 1456 c 128,-1,13
 52 1463 52 1463 36 1463 c 1,14,-1
 -19 1455 l 1,15,16
 -52 1455 -52 1455 -52 1481 c 0,17,18
 -52 1499 -52 1499 -30.5 1513.5 c 128,-1,19
 -9 1528 -9 1528 36 1528 c 1,20,-1
 233 1514 l 1,21,-1
 499 1528 l 1,22,23
 595 1528 595 1528 595 1481 c 0,24,25
 595 1456 595 1456 563 1456 c 1,26,-1
 487 1465 l 1,27,28
 419 1465 419 1465 419 1414 c 0,29,30
 419 1382.18 419 1382.18 459 1284 c 2,31,-1
 810 409 l 1,32,33
 845.657 313 845.657 313 868 313 c 0,34,35
 885.474 313 885.474 313 906 373 c 2,36,-1
 1162 1121 l 1,37,-1
 1114 1259 l 2,38,39
 1069.22 1387.74 1069.22 1387.74 1042.11 1419.37 c 128,-1,40
 1015 1451 1015 1451 996 1457 c 128,-1,41
 977 1463 977 1463 955 1463 c 1,42,-1
 900 1455 l 1,43,44
 867 1455 867 1455 867 1481 c 0,45,46
 867 1499 867 1499 888.5 1513.5 c 128,-1,47
 910 1528 910 1528 955 1528 c 1,48,-1
 1144 1514 l 1,49,-1
 1410 1528 l 1,50,51
 1506 1528 1506 1528 1506 1481 c 0,52,53
 1506 1456 1506 1456 1474 1456 c 1,54,-1
 1398 1465 l 1,55,56
 1334 1465 1334 1465 1334 1416 c 0,57,58
 1334 1392.89 1334 1392.89 1369 1284 c 2,59,-1
 1650 409 l 1,60,61
 1679.33 313 1679.33 313 1703 313 c 256,62,63
 1715.17 313 1715.17 313 1724.09 333.5 c 128,-1,64
 1733 354 1733 354 1740 373 c 2,65,-1
 2041 1245 l 2,66,67
 2090 1385 2090 1385 2090 1425.5 c 128,-1,68
 2090 1466 2090 1466 2022 1466 c 1,69,-1
 1946 1456 l 1,70,71
 1914 1456 1914 1456 1914 1481 c 0,72,73
 1914 1500 1914 1500 1936 1514 c 128,-1,74
 1958 1528 1958 1528 1998.5 1528 c 128,-1,75
 2039 1528 2039 1528 2065 1525.5 c 2,76,-1
 2113 1521 l 1,77,78
 2169 1514 2169 1514 2198.5 1514 c 0,79,80
 2245 1514 2245 1514 2274.5 1518.5 c 2,81,-1
 2321 1525.5 l 2,82,83
 2338 1528 2338 1528 2365 1528 c 128,-1,84
 2392 1528 2392 1528 2415 1515.5 c 128,-1,85
 2438 1503 2438 1503 2438 1479 c 128,-1,86
 2438 1455 2438 1455 2405 1455 c 1,87,-1
 2349 1463 l 1,88,89
 2290 1463 2290 1463 2257.5 1424 c 0,90,91
 2197.84 1352.41 2197.84 1352.41 2133 1169 c 2,92,-1
 1876 442 l 1,93,94
 1744.85 89.6675 1744.85 89.6675 1741.43 66.8338 c 128,-1,95
 1738 44 1738 44 1738 28.5 c 0,96,97
 1738 -9.95652 1738 -9.95652 1779 -26 c 0,98,99
 1811 -39.4737 1811 -39.4737 1811 -59 c 0,100,101
 1811 -84 1811 -84 1775.5 -84 c 128,-1,102
 1740 -84 1740 -84 1697 -59.5 c 128,-1,103
 1654 -35 1654 -35 1610 11.5 c 0,104,105
 1510.02 117.165 1510.02 117.165 1457 280 c 1,106,-1
 1220 957 l 1,107,-1
 1007 343 l 1,108,109
 933.369 136.474 933.369 136.474 818.5 14.5 c 0,110,111
 725.738 -84 725.738 -84 648.5 -84 c 0,0,1
EndSplineSet
EndChar

StartChar: G
Encoding: 71 71 21
Width: 1707
Flags: HW
LayerCount: 2
Fore
SplineSet
1660 747 m 1,0,-1
 1589 755 l 1,1,2
 1534.46 755 1534.46 755 1532.5 580.5 c 0,3,4
 1532 536 1532 536 1532 500 c 2,5,-1
 1532 199 l 1,6,-1
 1448.5 154.5 l 2,7,8
 1408 133 1408 133 1373.5 108 c 128,-1,9
 1339 83 1339 83 1287 57 c 128,-1,10
 1235 31 1235 31 1173.5 13 c 0,11,12
 1050.5 -23 1050.5 -23 878.25 -23 c 128,-1,13
 706 -23 706 -23 565.5 36.5 c 128,-1,14
 425 96 425 96 325.5 198.5 c 0,15,16
 118 412.256 118 412.256 118 729 c 0,17,18
 118 1088.44 118 1088.44 341 1324 c 0,19,20
 484.049 1475.11 484.049 1475.11 696.5 1532.5 c 0,21,22
 802 1561 802 1561 903.5 1561 c 0,23,24
 1080.31 1561 1080.31 1561 1216 1505 c 1,25,26
 1258 1489 1258 1489 1273.5 1489 c 128,-1,27
 1289 1489 1289 1489 1294.5 1490 c 128,-1,28
 1300 1491 1300 1491 1307.5 1495.5 c 0,29,30
 1320 1503 1320 1503 1348 1531 c 2,31,-1
 1377 1561 l 2,32,33
 1403 1587 1403 1587 1419 1587 c 0,34,35
 1443 1587 1443 1587 1443 1549.5 c 128,-1,36
 1443 1512 1443 1512 1447 1480 c 128,-1,37
 1451 1448 1451 1448 1457.5 1415 c 0,38,39
 1471.79 1342.46 1471.79 1342.46 1485.39 1297.23 c 0,40,41
 1508 1222.08 1508 1222.08 1508 1181.04 c 128,-1,42
 1508 1140 1508 1140 1486 1140 c 0,43,44
 1466.57 1140 1466.57 1140 1454 1162 c 0,45,46
 1383.29 1293.59 1383.29 1293.59 1232 1373.5 c 0,47,48
 1085.27 1451 1085.27 1451 932.133 1451 c 128,-1,49
 779 1451 779 1451 672 1409.5 c 128,-1,50
 565 1368 565 1368 489.5 1293.5 c 0,51,52
 332 1138.09 332 1138.09 332 889 c 256,53,54
 332 531.309 332 531.309 557 303 c 0,55,56
 691.966 166.05 691.966 166.05 872.5 115.5 c 0,57,58
 960 91 960 91 1032.5 91 c 128,-1,59
 1105 91 1105 91 1153.5 104 c 128,-1,60
 1202 117 1202 117 1238 142.5 c 0,61,62
 1315 197.042 1315 197.042 1315 293 c 2,63,-1
 1315 500 l 2,64,65
 1315 624.467 1315 624.467 1301 662.733 c 128,-1,66
 1287 701 1287 701 1276.5 719.5 c 0,67,68
 1256.35 755 1256.35 755 1199 755 c 1,69,-1
 1125 745 l 1,70,71
 1109 745 1109 745 1100.5 754 c 128,-1,72
 1092 763 1092 763 1092 777 c 128,-1,73
 1092 791 1092 791 1110.5 806 c 128,-1,74
 1129 821 1129 821 1162 821 c 128,-1,75
 1195 821 1195 821 1212 820.5 c 128,-1,76
 1229 820 1229 820 1245.5 819 c 128,-1,77
 1262 818 1262 818 1276.5 816.5 c 2,78,-1
 1300 814 l 1,79,80
 1348 806 1348 806 1401 806 c 0,81,82
 1475 806 1475 806 1520 813.5 c 128,-1,83
 1565 821 1565 821 1610.5 821 c 128,-1,84
 1656 821 1656 821 1674.5 806 c 128,-1,85
 1693 791 1693 791 1693 775 c 0,86,87
 1693 747 1693 747 1660 747 c 1,0,-1
EndSplineSet
EndChar

StartChar: C
Encoding: 67 67 22
Width: 1707
Flags: HW
LayerCount: 2
Fore
SplineSet
1557 202 m 1,0,1
 1319.61 -23.0001 1319.61 -23.0001 957 -23 c 0,2,3
 593.034 -23 593.034 -23 367 195.5 c 0,4,5
 149 406.233 149 406.233 149 729 c 0,6,7
 149 1094.78 149 1094.78 382.5 1331.5 c 0,8,9
 528.431 1479.44 528.431 1479.44 731.5 1534 c 0,10,11
 832 1561 832 1561 915.5 1561 c 128,-1,12
 999 1561 999 1561 1048.5 1553.5 c 128,-1,13
 1098 1546 1098 1546 1138.5 1535 c 0,14,15
 1200.26 1518.23 1200.26 1518.23 1243.63 1500.11 c 0,16,17
 1308.55 1473 1308.55 1473 1325.28 1473 c 0,18,19
 1357 1473 1357 1473 1389 1505 c 2,20,-1
 1432.5 1548.5 l 2,21,22
 1460 1576 1460 1576 1473 1576 c 0,23,24
 1498 1576 1498 1576 1498 1534.5 c 128,-1,25
 1498 1493 1498 1493 1499.5 1463.5 c 128,-1,26
 1501 1434 1501 1434 1505 1405.5 c 0,27,28
 1514.11 1340.6 1514.11 1340.6 1529.55 1282.3 c 2,29,-1
 1554.5 1189 l 2,30,31
 1564 1154 1564 1154 1564 1131 c 256,32,33
 1564 1089 1564 1089 1540 1089 c 256,34,35
 1520.5 1089 1520.5 1089 1509 1112 c 0,36,37
 1426.17 1271.75 1426.17 1271.75 1263.5 1368.5 c 0,38,39
 1104.62 1463 1104.62 1463 934 1463 c 0,40,41
 693 1463 693 1463 530.5 1300.5 c 0,42,43
 364 1134 364 1134 364 877 c 0,44,45
 364 709 364 709 418.5 565.5 c 128,-1,46
 473 422 473 422 566.5 316.5 c 128,-1,47
 660 211 660 211 784.5 151.5 c 128,-1,48
 909 92 909 92 1050 92 c 0,49,50
 1285.98 92 1285.98 92 1420 298.5 c 0,51,52
 1469 374 1469 374 1497 485 c 0,53,54
 1504 511 1504 511 1511.5 527.5 c 128,-1,55
 1519 544 1519 544 1538 544 c 128,-1,56
 1557 544 1557 544 1557 485 c 2,57,-1
 1557 202 l 1,0,1
EndSplineSet
EndChar

StartChar: F
Encoding: 70 70 23
Width: 1363
Flags: HW
LayerCount: 2
Fore
SplineSet
610 66 m 1,0,-1
 704 76 l 1,1,2
 720 76 720 76 728.5 67 c 128,-1,3
 737 58 737 58 737 44 c 128,-1,4
 737 30 737 30 713.5 15 c 128,-1,5
 690 0 690 0 657 0 c 128,-1,6
 624 0 624 0 605.5 0.5 c 128,-1,7
 587 1 587 1 568.5 2 c 0,8,9
 540.263 3.52631 540.263 3.52631 518.632 6.26316 c 128,-1,10
 497 9 497 9 481 10.5 c 128,-1,11
 465 12 465 12 447.5 13 c 0,12,13
 412.5 15 412.5 15 383 15 c 256,14,15
 305 15 305 15 272 10 c 0,16,17
 113.319 -14.0426 113.319 -14.0426 77.5 15 c 0,18,19
 59 30 59 30 59 46 c 0,20,21
 59 73 59 73 92 73 c 1,22,-1
 156 66 l 1,23,24
 213.158 66 213.158 66 234 102 c 0,25,26
 264.612 157.102 264.612 157.102 268.306 218.051 c 128,-1,27
 272 279 272 279 272 321 c 2,28,-1
 272 1195 l 2,29,30
 272 1317.6 272 1317.6 258 1356.8 c 128,-1,31
 244 1396 244 1396 232.5 1417.5 c 0,32,33
 208.698 1462 208.698 1462 141 1462 c 1,34,-1
 92 1455 l 1,35,36
 59 1455 59 1455 59 1483 c 0,37,38
 59 1499 59 1499 77.5 1513.5 c 128,-1,39
 96 1528 96 1528 140 1528 c 128,-1,40
 184 1528 184 1528 209 1526 c 2,41,-1
 257 1522 l 1,42,43
 281.44 1518.24 281.44 1518.24 312.22 1516.62 c 2,44,-1
 361.5 1514 l 2,45,46
 380 1513 380 1513 396 1513 c 2,47,-1
 1210 1513 l 1,48,49
 1220.68 1432.87 1220.68 1432.87 1246.34 1351.44 c 0,50,51
 1291 1209.7 1291 1209.7 1291 1185.35 c 128,-1,52
 1291 1161 1291 1161 1275 1161 c 128,-1,53
 1259.12 1161 1259.12 1161 1245.06 1179 c 128,-1,54
 1231 1197 1231 1197 1212.5 1218 c 0,55,56
 1123.31 1317.35 1123.31 1317.35 1098.15 1337.68 c 128,-1,57
 1073 1358 1073 1358 1051 1371.5 c 128,-1,58
 1029 1385 1029 1385 1002 1395 c 0,59,60
 948 1415 948 1415 867 1415 c 2,61,-1
 591 1415 l 2,62,63
 545 1415 545 1415 519.5 1385.5 c 128,-1,64
 494 1356 494 1356 494 1303 c 2,65,-1
 494 895 l 2,66,67
 494 838 494 838 585 838 c 2,68,-1
 877 838 l 2,69,70
 947.667 838 947.667 838 1006 908 c 0,71,72
 1026 932 1026 932 1036 954.5 c 128,-1,73
 1046 977 1046 977 1051.5 985 c 128,-1,74
 1057 993 1057 993 1067 993 c 0,75,76
 1092 993 1092 993 1092 942 c 1,77,-1
 1084 782 l 1,78,-1
 1092 627 l 1,79,80
 1092 577 1092 577 1067 577 c 0,81,82
 1052.82 577 1052.82 577 1039.41 607 c 128,-1,83
 1026 637 1026 637 1006 662.5 c 128,-1,84
 986 688 986 688 963.5 705 c 0,85,86
 917.176 740 917.176 740 877 740 c 2,87,-1
 584 740 l 2,88,89
 541 740 541 740 517.5 721 c 128,-1,90
 494 702 494 702 494 674 c 2,91,-1
 494 321 l 2,92,93
 494 196.533 494 196.533 508 158.267 c 128,-1,94
 522 120 522 120 532.5 101.5 c 0,95,96
 552.649 66.0001 552.649 66.0001 610 66 c 1,0,-1
EndSplineSet
EndChar

StartChar: R
Encoding: 82 82 24
Width: 1539
Flags: HW
LayerCount: 2
Fore
SplineSet
692 73 m 1,0,1
 725 73 725 73 725 46 c 0,2,3
 725 30 725 30 706.5 15 c 128,-1,4
 688 0 688 0 648 0 c 0,5,6
 590 0 590 0 552.5 4.5 c 128,-1,7
 515 9 515 9 499 10.5 c 128,-1,8
 483 12 483 12 465.5 13 c 0,9,10
 430.5 15 430.5 15 401 15 c 256,11,12
 323 15 323 15 290 10 c 0,13,14
 131.319 -14.0426 131.319 -14.0426 95.5 15 c 0,15,16
 77 30 77 30 77 46 c 0,17,18
 77 73 77 73 110 73 c 1,19,-1
 174 66 l 1,20,21
 231.158 66 231.158 66 252 102 c 0,22,23
 282.612 157.102 282.612 157.102 286.306 218.051 c 128,-1,24
 290 279 290 279 290 321 c 2,25,-1
 290 1195 l 2,26,27
 290 1317.6 290 1317.6 276 1356.8 c 128,-1,28
 262 1396 262 1396 250.5 1417.5 c 0,29,30
 226.698 1462 226.698 1462 159 1462 c 1,31,-1
 110 1455 l 1,32,33
 77 1455 77 1455 77 1483 c 0,34,35
 77 1499 77 1499 95.5 1513.5 c 128,-1,36
 114 1528 114 1528 158 1528 c 128,-1,37
 202 1528 202 1528 227 1526 c 2,38,-1
 275 1522 l 1,39,40
 344.333 1514 344.333 1514 396.167 1514 c 128,-1,41
 448 1514 448 1514 475.5 1515 c 128,-1,42
 503 1516 503 1516 526 1517.5 c 128,-1,43
 549 1519 549 1519 570 1521.5 c 128,-1,44
 591 1524 591 1524 611.5 1526 c 128,-1,45
 632 1528 632 1528 654 1530.5 c 128,-1,46
 676 1533 676 1533 701.5 1535.5 c 0,47,48
 757.6 1541 757.6 1541 864.8 1541 c 128,-1,49
 972 1541 972 1541 1080 1507.5 c 128,-1,50
 1188 1474 1188 1474 1259 1417.5 c 0,51,52
 1401 1304.5 1401 1304.5 1401 1133 c 0,53,54
 1401 915.554 1401 915.554 1238 790 c 0,55,56
 1090 676 1090 676 869 676 c 2,57,-1
 834 676 l 1,58,59
 931.054 625.451 931.054 625.451 986.027 562.725 c 0,60,61
 1070.47 466.372 1070.47 466.372 1141.74 342.686 c 128,-1,62
 1213 219 1213 219 1252 171 c 128,-1,63
 1291 123 1291 123 1326 96 c 0,64,65
 1385.63 50 1385.63 50 1447 50 c 0,66,67
 1463.2 50 1463.2 50 1480.1 56.5 c 128,-1,68
 1497 63 1497 63 1503 63 c 0,69,70
 1530 63 1530 63 1530 35 c 0,71,72
 1530 15 1530 15 1499.5 1.5 c 128,-1,73
 1469 -12 1469 -12 1408 -12 c 128,-1,74
 1347 -12 1347 -12 1288 -3.5 c 128,-1,75
 1229 5 1229 5 1178.5 26.5 c 128,-1,76
 1128 48 1128 48 1082.5 85 c 128,-1,77
 1037 122 1037 122 990.5 179.5 c 0,78,79
 907.553 282.069 907.553 282.069 779 506 c 0,80,81
 705.938 632.453 705.938 632.453 594.5 680 c 0,82,83
 557 696 557 696 512 708 c 1,84,-1
 512 321 l 2,85,86
 512 196.533 512 196.533 526 158.267 c 128,-1,87
 540 120 540 120 550.5 101.5 c 0,88,89
 570.649 66.0001 570.649 66.0001 628 66 c 1,90,-1
 692 73 l 1,0,1
512 826 m 1,91,92
 643.879 758 643.879 758 830 758 c 0,93,94
 966.076 758 966.076 758 1056.5 836.5 c 0,95,96
 1158 924.615 1158 924.615 1158 1074 c 0,97,98
 1158 1227.36 1158 1227.36 1043 1334 c 0,99,100
 923.294 1445 923.294 1445 739 1445 c 0,101,102
 551.216 1445 551.216 1445 522 1370.5 c 0,103,104
 512 1345 512 1345 512 1311 c 2,105,-1
 512 826 l 1,91,92
EndSplineSet
EndChar

StartChar: L
Encoding: 76 76 25
Width: 1367
Flags: HW
LayerCount: 2
Fore
SplineSet
519 236 m 2,0,1
 519 97 519 97 616 97 c 2,2,-1
 806 97 l 2,3,4
 905.8 97 905.8 97 956.9 114.5 c 0,5,6
 1036.84 141.876 1036.84 141.876 1121 206 c 2,7,-1
 1161 237 l 2,8,9
 1201.03 268.604 1201.03 268.604 1231.02 299.302 c 2,10,-1
 1288 359 l 2,11,12
 1318.32 391 1318.32 391 1335.66 391 c 128,-1,13
 1353 391 1353 391 1353 369 c 0,14,15
 1353 346.143 1353 346.143 1331.5 299.071 c 2,16,-1
 1296.5 221 l 2,17,18
 1264.29 147.03 1264.29 147.03 1229 0 c 1,19,-1
 475 0 l 2,20,21
 330 0 330 0 297 -5 c 0,22,23
 231 -15 231 -15 176 -15 c 128,-1,24
 121 -15 121 -15 102.5 0 c 128,-1,25
 84 15 84 15 84 31 c 0,26,27
 84 58 84 58 117 58 c 1,28,-1
 181 51 l 1,29,30
 238.158 51 238.158 51 258.579 86.5 c 0,31,32
 297 153.291 297 153.291 297 321 c 2,33,-1
 297 1207 l 2,34,35
 297 1331.47 297 1331.47 283 1369.73 c 128,-1,36
 269 1408 269 1408 258.5 1426.5 c 0,37,38
 238.351 1462 238.351 1462 181 1462 c 1,39,-1
 117 1455 l 1,40,41
 84 1455 84 1455 84 1482 c 0,42,43
 84 1498 84 1498 102.5 1513 c 128,-1,44
 121 1528 121 1528 161 1528 c 0,45,46
 219 1528 219 1528 256.5 1523.5 c 128,-1,47
 294 1519 294 1519 310 1517.5 c 128,-1,48
 326 1516 326 1516 343.5 1515 c 0,49,50
 378.5 1513 378.5 1513 408 1513 c 256,51,52
 486 1513 486 1513 519 1518 c 0,53,54
 585 1528 585 1528 640 1528 c 128,-1,55
 695 1528 695 1528 713.5 1513 c 128,-1,56
 732 1498 732 1498 732 1482 c 0,57,58
 732 1455 732 1455 699 1455 c 1,59,-1
 635 1462 l 1,60,61
 577.842 1462 577.842 1462 557 1426 c 0,62,63
 526.388 1370.9 526.388 1370.9 522.694 1309.95 c 128,-1,64
 519 1249 519 1249 519 1207 c 2,65,-1
 519 236 l 2,0,1
EndSplineSet
EndChar

StartChar: Y
Encoding: 89 89 26
Width: 1539
Flags: HW
LayerCount: 2
Fore
SplineSet
991 66 m 1,0,-1
 1085 76 l 1,1,2
 1101 76 1101 76 1109.5 67 c 128,-1,3
 1118 58 1118 58 1118 44 c 128,-1,4
 1118 30 1118 30 1094.5 15 c 128,-1,5
 1071 0 1071 0 1038 0 c 128,-1,6
 1005 0 1005 0 986.5 0.5 c 128,-1,7
 968 1 968 1 949.5 2 c 0,8,9
 921.263 3.52631 921.263 3.52631 899.632 6.26316 c 128,-1,10
 878 9 878 9 862 10.5 c 128,-1,11
 846 12 846 12 828.5 13 c 0,12,13
 793.5 15 793.5 15 764 15 c 256,14,15
 686 15 686 15 657.5 10.5 c 128,-1,16
 629 6 629 6 613 4.5 c 128,-1,17
 597 3 597 3 578.5 2 c 0,18,19
 463.597 -4.21096 463.597 -4.21096 436.799 12.8945 c 128,-1,20
 410 30 410 30 410 44 c 0,21,22
 410 76 410 76 443 76 c 1,23,-1
 537 66 l 1,24,25
 594.158 66 594.158 66 615 102 c 0,26,27
 645.612 157.102 645.612 157.102 649.306 218.051 c 128,-1,28
 653 279 653 279 653 321 c 2,29,-1
 653 668 l 1,30,-1
 125 1426 l 2,31,32
 110 1447 110 1447 91.5 1455 c 128,-1,33
 73 1463 73 1463 36 1463 c 1,34,-1
 -19 1455 l 1,35,36
 -52 1455 -52 1455 -52 1481 c 0,37,38
 -52 1499 -52 1499 -30.5 1513.5 c 128,-1,39
 -9 1528 -9 1528 36 1528 c 1,40,-1
 233 1514 l 1,41,-1
 499 1528 l 1,42,43
 595 1528 595 1528 595 1481 c 0,44,45
 595 1456 595 1456 563 1456 c 1,46,-1
 487 1465 l 1,47,48
 419 1465 419 1465 419 1424 c 0,49,50
 419 1389.4 419 1389.4 464 1321 c 2,51,-1
 833 762 l 1,52,-1
 1171.5 1261.5 l 1,53,54
 1249 1380.59 1249 1380.59 1249 1423.29 c 128,-1,55
 1249 1466 1249 1466 1181 1466 c 1,56,-1
 1105 1456 l 1,57,58
 1073 1456 1073 1456 1073 1481 c 0,59,60
 1073 1500 1073 1500 1095 1514 c 128,-1,61
 1117 1528 1117 1528 1157.5 1528 c 128,-1,62
 1198 1528 1198 1528 1224 1525.5 c 2,63,-1
 1272 1521 l 1,64,65
 1328 1514 1328 1514 1357.5 1514 c 0,66,67
 1404 1514 1404 1514 1433.5 1518.5 c 2,68,-1
 1480 1525.5 l 2,69,70
 1497 1528 1497 1528 1524 1528 c 128,-1,71
 1551 1528 1551 1528 1574 1515.5 c 128,-1,72
 1597 1503 1597 1503 1597 1479 c 128,-1,73
 1597 1455 1597 1455 1564 1455 c 1,74,-1
 1498 1463 l 1,75,76
 1443.29 1463 1443.29 1463 1415 1426 c 1,77,-1
 875 664 l 1,78,-1
 875 321 l 2,79,80
 875 196.533 875 196.533 889 158.267 c 128,-1,81
 903 120 903 120 913.5 101.5 c 0,82,83
 933.649 66.0001 933.649 66.0001 991 66 c 1,0,-1
EndSplineSet
EndChar

StartChar: U
Encoding: 85 85 27
Width: 1874
Flags: HW
LayerCount: 2
Fore
SplineSet
1399 0 m 0,0,1
 1336.34 0 1336.34 0 1333 117 c 1,2,3
 1135.35 -23 1135.35 -23 903 -23 c 0,4,5
 601.762 -23 601.762 -23 440 127.5 c 0,6,7
 280 276.361 280 276.361 280 545 c 2,8,-1
 280 1207 l 2,9,10
 280 1331.47 280 1331.47 266 1369.73 c 128,-1,11
 252 1408 252 1408 241.5 1426.5 c 0,12,13
 221.351 1462 221.351 1462 164 1462 c 1,14,-1
 100 1455 l 1,15,16
 67 1455 67 1455 67 1482 c 0,17,18
 67 1498 67 1498 85.5 1513 c 128,-1,19
 104 1528 104 1528 144 1528 c 0,20,21
 202 1528 202 1528 239.5 1523.5 c 128,-1,22
 277 1519 277 1519 293 1517.5 c 128,-1,23
 309 1516 309 1516 326.5 1515 c 0,24,25
 361.5 1513 361.5 1513 391 1513 c 256,26,27
 469 1513 469 1513 502 1518 c 0,28,29
 568 1528 568 1528 623 1528 c 128,-1,30
 678 1528 678 1528 696.5 1513 c 128,-1,31
 715 1498 715 1498 715 1482 c 0,32,33
 715 1455 715 1455 682 1455 c 1,34,-1
 618 1462 l 1,35,36
 560.842 1462 560.842 1462 540 1426 c 0,37,38
 509.388 1370.9 509.388 1370.9 505.694 1309.95 c 128,-1,39
 502 1249 502 1249 502 1207 c 2,40,-1
 502 505 l 2,41,42
 502 303.789 502 303.789 622 188 c 0,43,44
 739.109 75 739.109 75 948.598 75 c 128,-1,45
 1158.09 75 1158.09 75 1333 224 c 1,46,-1
 1333 1207 l 2,47,48
 1333 1331.47 1333 1331.47 1319 1369.73 c 128,-1,49
 1305 1408 1305 1408 1294.5 1426.5 c 0,50,51
 1274.35 1462 1274.35 1462 1217 1462 c 1,52,-1
 1153 1455 l 1,53,54
 1120 1455 1120 1455 1120 1482 c 0,55,56
 1120 1498 1120 1498 1138.5 1513 c 128,-1,57
 1157 1528 1157 1528 1197 1528 c 0,58,59
 1255 1528 1255 1528 1292.5 1523.5 c 128,-1,60
 1330 1519 1330 1519 1346 1517.5 c 128,-1,61
 1362 1516 1362 1516 1379.5 1515 c 0,62,63
 1414.5 1513 1414.5 1513 1444 1513 c 256,64,65
 1522 1513 1522 1513 1555 1518 c 0,66,67
 1621 1528 1621 1528 1676 1528 c 128,-1,68
 1731 1528 1731 1528 1749.5 1513 c 128,-1,69
 1768 1498 1768 1498 1768 1482 c 0,70,71
 1768 1455 1768 1455 1735 1455 c 1,72,-1
 1671 1462 l 1,73,74
 1613.84 1462 1613.84 1462 1593 1426 c 0,75,76
 1562.39 1370.9 1562.39 1370.9 1558.69 1309.95 c 128,-1,77
 1555 1249 1555 1249 1555 1207 c 2,78,-1
 1558 345 l 2,79,80
 1558 157 1558 157 1574.5 117 c 128,-1,81
 1591 77 1591 77 1615 70 c 128,-1,82
 1639 63 1639 63 1666 63 c 1,83,-1
 1722 70 l 257,84,85
 1754 70 1754 70 1754 45 c 0,86,87
 1754 -3 1754 -3 1661 -3 c 1,88,-1
 1508 6 l 2,89,90
 1495 6 1495 6 1483 5 c 2,91,-1
 1458 3 l 2,92,93
 1431 0 1431 0 1399 0 c 0,0,1
EndSplineSet
EndChar

StartChar: T
Encoding: 84 84 28
Width: 1539
Flags: HW
LayerCount: 2
Fore
SplineSet
987 66 m 1,0,-1
 1081 76 l 1,1,2
 1097 76 1097 76 1105.5 67 c 128,-1,3
 1114 58 1114 58 1114 44 c 128,-1,4
 1114 30 1114 30 1090.5 15 c 128,-1,5
 1067 0 1067 0 1034 0 c 128,-1,6
 1001 0 1001 0 982.5 0.5 c 128,-1,7
 964 1 964 1 945.5 2 c 0,8,9
 917.263 3.52631 917.263 3.52631 895.632 6.26316 c 128,-1,10
 874 9 874 9 858 10.5 c 128,-1,11
 842 12 842 12 824.5 13 c 0,12,13
 789.5 15 789.5 15 760 15 c 256,14,15
 682 15 682 15 653.5 10.5 c 128,-1,16
 625 6 625 6 609 4.5 c 128,-1,17
 593 3 593 3 574.5 2 c 0,18,19
 459.597 -4.21096 459.597 -4.21096 432.799 12.8945 c 128,-1,20
 406 30 406 30 406 44 c 0,21,22
 406 76 406 76 439 76 c 1,23,-1
 533 66 l 1,24,25
 590.158 66 590.158 66 611 102 c 0,26,27
 641.612 157.102 641.612 157.102 645.306 218.051 c 128,-1,28
 649 279 649 279 649 321 c 2,29,-1
 649 1415 l 1,30,-1
 576 1415 l 2,31,32
 513 1415 513 1415 453 1402.5 c 2,33,-1
 374 1386 l 1,34,35
 263.232 1360.83 263.232 1360.83 152.5 1236 c 1,36,-1
 107 1183 l 2,37,38
 86.6923 1159 86.6923 1159 69.8462 1159 c 128,-1,39
 53 1159 53 1159 53 1182 c 128,-1,40
 53 1205 53 1205 62.5 1237.5 c 128,-1,41
 72 1270 72 1270 86 1314 c 0,42,43
 122.641 1429.16 122.641 1429.16 133.82 1493.08 c 128,-1,44
 145 1557 145 1557 154 1566.5 c 128,-1,45
 163 1576 163 1576 172.5 1576 c 0,46,47
 186.783 1576 186.783 1576 205.391 1553 c 128,-1,48
 224 1530 224 1530 231 1525.5 c 128,-1,49
 238 1521 238 1521 250 1518 c 0,50,51
 270 1513 270 1513 330 1513 c 2,52,-1
 1308 1513 l 2,53,54
 1368.57 1513 1368.57 1513 1401.28 1534.5 c 128,-1,55
 1434 1556 1434 1556 1445.5 1566 c 128,-1,56
 1457 1576 1457 1576 1469 1576 c 0,57,58
 1494 1576 1494 1576 1494 1545 c 256,59,60
 1494 1534 1494 1534 1486.5 1516.5 c 2,61,-1
 1468 1474 l 2,62,63
 1416.76 1354.44 1416.76 1354.44 1402.88 1295.22 c 128,-1,64
 1389 1236 1389 1236 1382.5 1205 c 0,65,66
 1372.23 1156 1372.23 1156 1353 1156 c 0,67,68
 1330.6 1156 1330.6 1156 1327 1183 c 1,69,70
 1314 1246 1314 1246 1286 1293 c 128,-1,71
 1258 1340 1258 1340 1215.5 1362 c 128,-1,72
 1173 1384 1173 1384 1137.5 1392 c 128,-1,73
 1102 1400 1102 1400 1059 1405 c 0,74,75
 994.713 1412.48 994.713 1412.48 871 1415 c 1,76,-1
 871 321 l 2,77,78
 871 196.533 871 196.533 885 158.267 c 128,-1,79
 899 120 899 120 909.5 101.5 c 0,80,81
 929.649 66.0001 929.649 66.0001 987 66 c 1,0,-1
EndSplineSet
EndChar

StartChar: B
Encoding: 66 66 29
Width: 1534
Flags: HW
LayerCount: 2
Fore
SplineSet
180 1462 m 1,0,-1
 131 1455 l 1,1,2
 98 1455 98 1455 98 1483 c 0,3,4
 98 1499 98 1499 116.5 1513.5 c 128,-1,5
 135 1528 135 1528 179 1528 c 128,-1,6
 223 1528 223 1528 248 1526 c 2,7,-1
 296 1522 l 1,8,9
 365.333 1514 365.333 1514 421.167 1514 c 0,10,11
 514 1514 514 1514 593.5 1523 c 0,12,13
 734.833 1539 734.833 1539 841.917 1539 c 128,-1,14
 949 1539 949 1539 1041 1512.5 c 128,-1,15
 1133 1486 1133 1486 1194.5 1441.5 c 0,16,17
 1317 1352.86 1317 1352.86 1317 1220 c 0,18,19
 1317 1051.91 1317 1051.91 1152 944.5 c 0,20,21
 1099 910 1099 910 1033 886 c 1,22,23
 1217.71 844.292 1217.71 844.292 1334.5 727.5 c 0,24,25
 1451 611 1451 611 1451 459 c 0,26,27
 1451 250.362 1451 250.362 1298 118.5 c 0,28,29
 1132.66 -24 1132.66 -24 849 -24 c 0,30,31
 766 -24 766 -24 674.5 -9 c 0,32,33
 511.314 17.7518 511.314 17.7518 445.657 15.8759 c 128,-1,34
 380 14 380 14 361 13 c 0,35,36
 318.615 10.7692 318.615 10.7692 298.308 7.88462 c 0,37,38
 151.07 -13.0298 151.07 -13.0298 116.5 15 c 0,39,40
 98 30 98 30 98 46 c 0,41,42
 98 73 98 73 131 73 c 1,43,-1
 195 66 l 1,44,45
 252.158 66 252.158 66 273 102 c 0,46,47
 303.612 157.102 303.612 157.102 307.306 218.051 c 128,-1,48
 311 279 311 279 311 321 c 2,49,-1
 311 1195 l 2,50,51
 311 1317.6 311 1317.6 297 1356.8 c 128,-1,52
 283 1396 283 1396 271.5 1417.5 c 0,53,54
 247.698 1462 247.698 1462 180 1462 c 1,0,-1
531 934 m 1,55,56
 627.364 914 627.364 914 726.682 914 c 128,-1,57
 826 914 826 914 885 929.5 c 128,-1,58
 944 945 944 945 987 977.5 c 0,59,60
 1078 1046.28 1078 1046.28 1078 1181 c 0,61,62
 1078 1299.41 1078 1299.41 996 1373 c 0,63,64
 913.543 1447 913.543 1447 781.771 1447 c 128,-1,65
 650 1447 650 1447 590.5 1419.5 c 128,-1,66
 531 1392 531 1392 531 1331 c 2,67,-1
 531 934 l 1,55,56
925 803.5 m 128,-1,69
 835 829 835 829 728 829 c 128,-1,70
 621 829 621 829 531 814 c 1,71,-1
 531 231 l 2,72,73
 531 76 531 76 838 76 c 0,74,75
 1097 76 1097 76 1179 281 c 0,76,77
 1207 351 1207 351 1207 445 c 128,-1,78
 1207 539 1207 539 1173.5 609.5 c 128,-1,79
 1140 680 1140 680 1077.5 729 c 128,-1,68
 1015 778 1015 778 925 803.5 c 128,-1,69
EndSplineSet
EndChar

StartChar: J
Encoding: 74 74 30
Width: 1363
Flags: HW
LayerCount: 2
Fore
SplineSet
1328 1455 m 1,0,-1
 1264 1462 l 1,1,2
 1206.84 1462 1206.84 1462 1186 1426 c 0,3,4
 1155.39 1370.9 1155.39 1370.9 1151.69 1309.95 c 128,-1,5
 1148 1249 1148 1249 1148 1207 c 2,6,-1
 1148 477 l 2,7,8
 1148 236.712 1148 236.712 964.5 99.5 c 0,9,10
 800.675 -23 800.675 -23 573 -23 c 0,11,12
 426.125 -23 426.125 -23 267 44 c 0,13,14
 210 68 210 68 157 103 c 1,15,-1
 157 470 l 2,16,17
 157 565 157 565 175 580 c 0,18,19
 181 585 181 585 191.5 585 c 128,-1,20
 202 585 202 585 208 573 c 128,-1,21
 214 561 214 561 234 478.5 c 128,-1,22
 254 396 254 396 299 308.5 c 128,-1,23
 344 221 344 221 396.5 169 c 0,24,25
 491.404 75 491.404 75 622 75 c 0,26,27
 831.818 75 831.818 75 901.5 294 c 0,28,29
 926 371 926 371 926 482 c 2,30,-1
 926 1207 l 2,31,32
 926 1331.47 926 1331.47 912 1369.73 c 128,-1,33
 898 1408 898 1408 887.5 1426.5 c 0,34,35
 867.351 1462 867.351 1462 810 1462 c 1,36,-1
 746 1455 l 1,37,38
 713 1455 713 1455 713 1482 c 0,39,40
 713 1498 713 1498 731.5 1513 c 128,-1,41
 750 1528 750 1528 790 1528 c 0,42,43
 848 1528 848 1528 885.5 1523.5 c 128,-1,44
 923 1519 923 1519 939 1517.5 c 128,-1,45
 955 1516 955 1516 972.5 1515 c 0,46,47
 1007.5 1513 1007.5 1513 1037 1513 c 256,48,49
 1115 1513 1115 1513 1148 1518 c 0,50,51
 1214 1528 1214 1528 1269 1528 c 128,-1,52
 1324 1528 1324 1528 1342.5 1513 c 128,-1,53
 1361 1498 1361 1498 1361 1482 c 0,54,55
 1361 1455 1361 1455 1328 1455 c 1,0,-1
EndSplineSet
EndChar

StartChar: P
Encoding: 80 80 31
Width: 1539
Flags: HW
LayerCount: 2
Fore
SplineSet
662 66 m 1,0,-1
 756 76 l 1,1,2
 772 76 772 76 780.5 67 c 128,-1,3
 789 58 789 58 789 44 c 128,-1,4
 789 30 789 30 765.5 15 c 128,-1,5
 742 0 742 0 709 0 c 128,-1,6
 676 0 676 0 657.5 0.5 c 128,-1,7
 639 1 639 1 620.5 2 c 0,8,9
 592.263 3.52631 592.263 3.52631 570.632 6.26316 c 128,-1,10
 549 9 549 9 533 10.5 c 128,-1,11
 517 12 517 12 499.5 13 c 0,12,13
 464.5 15 464.5 15 435 15 c 256,14,15
 357 15 357 15 324 10 c 0,16,17
 165.319 -14.0426 165.319 -14.0426 129.5 15 c 0,18,19
 111 30 111 30 111 46 c 0,20,21
 111 73 111 73 144 73 c 1,22,-1
 208 66 l 1,23,24
 265.158 66 265.158 66 286 102 c 0,25,26
 316.612 157.102 316.612 157.102 320.306 218.051 c 128,-1,27
 324 279 324 279 324 321 c 2,28,-1
 324 1195 l 2,29,30
 324 1317.6 324 1317.6 310 1356.8 c 128,-1,31
 296 1396 296 1396 284.5 1417.5 c 0,32,33
 260.698 1462 260.698 1462 193 1462 c 1,34,-1
 144 1455 l 1,35,36
 111 1455 111 1455 111 1483 c 0,37,38
 111 1499 111 1499 129.5 1513.5 c 128,-1,39
 148 1528 148 1528 192 1528 c 128,-1,40
 236 1528 236 1528 261 1526 c 2,41,-1
 309 1522 l 1,42,43
 378.333 1514 378.333 1514 444.667 1514 c 0,44,45
 534.8 1514 534.8 1514 593.9 1522 c 2,46,-1
 675 1533 l 2,47,48
 748.334 1543 748.334 1543 863.667 1543 c 128,-1,49
 979 1543 979 1543 1084.5 1511.5 c 128,-1,50
 1190 1480 1190 1480 1266 1423 c 0,51,52
 1426 1303 1426 1303 1426 1109 c 0,53,54
 1426 859.16 1426 859.16 1229.5 715.5 c 0,55,56
 1051 585 1051 585 805 585 c 0,57,58
 682 585 682 585 546 625 c 1,59,-1
 546 321 l 2,60,61
 546 196.533 546 196.533 560 158.267 c 128,-1,62
 574 120 574 120 584.5 101.5 c 0,63,64
 604.649 66.0001 604.649 66.0001 662 66 c 1,0,-1
546 752 m 1,65,66
 666 684 666 684 826 684 c 0,67,68
 983.733 684 983.733 684 1084 780 c 0,69,70
 1183 874.787 1183 874.787 1183 1020 c 0,71,72
 1183 1217.85 1183 1217.85 1055 1335 c 0,73,74
 934.815 1445 934.815 1445 748 1445 c 0,75,76
 610.706 1445 610.706 1445 562.5 1370.5 c 0,77,78
 546 1345 546 1345 546 1311 c 2,79,-1
 546 752 l 1,65,66
EndSplineSet
EndChar

StartChar: Q
Encoding: 81 81 32
Width: 1880
Flags: HW
LayerCount: 2
Fore
SplineSet
706 -151 m 0,0,1
 678 -151 678 -151 678 -117 c 0,2,3
 678 -79.6835 678 -79.6835 758.5 -43 c 0,4,5
 850.667 -0.999991 850.667 -0.999991 974.333 -0.999996 c 128,-1,6
 1098 -1 1098 -1 1176 -20.5 c 128,-1,7
 1254 -40 1254 -40 1315.5 -71.5 c 128,-1,8
 1377 -103 1377 -103 1425.5 -142.5 c 1,9,-1
 1519 -222 l 1,10,11
 1569 -267 1569 -267 1614 -292 c 128,-1,12
 1659 -317 1659 -317 1697.5 -317 c 0,13,14
 1763.4 -317 1763.4 -317 1791.7 -300.5 c 2,15,-1
 1830 -278.5 l 2,16,17
 1840 -273 1840 -273 1851 -273 c 0,18,19
 1880 -273 1880 -273 1880 -301 c 0,20,21
 1880 -337.6 1880 -337.6 1818 -365.5 c 0,22,23
 1752.44 -395 1752.44 -395 1660.22 -395 c 128,-1,24
 1568 -395 1568 -395 1500 -382 c 128,-1,25
 1432 -369 1432 -369 1367.5 -342 c 0,26,27
 1237.5 -287.581 1237.5 -287.581 1118 -172 c 0,28,29
 1056.28 -112.481 1056.28 -112.481 1028.64 -97.7403 c 0,30,31
 980.375 -72 980.375 -72 926.188 -72 c 0,32,33
 819.556 -72 819.556 -72 734 -142 c 0,34,35
 723 -151 723 -151 706 -151 c 0,0,1
121 734.5 m 0,36,37
 121 908 121 908 179 1060.5 c 128,-1,38
 237 1213 237 1213 345 1324 c 0,39,40
 575.595 1561 575.595 1561 955 1561 c 0,41,42
 1174.71 1561 1174.71 1561 1358 1452.5 c 0,43,44
 1532.51 1349.2 1532.51 1349.2 1634.5 1172 c 0,45,46
 1737 993.919 1737 993.919 1737 786 c 0,47,48
 1737 410.434 1737 410.434 1492 188 c 0,49,50
 1259.59 -23 1259.59 -23 918 -23 c 0,51,52
 556.505 -23 556.505 -23 338 185 c 0,53,54
 121 391.567 121 391.567 121 734.5 c 0,36,37
329 889 m 256,55,56
 329 650.909 329 650.909 435.5 460.5 c 0,57,58
 533.305 285.637 533.305 285.637 697 187 c 0,59,60
 856.319 91 856.319 91 1031 91 c 0,61,62
 1233.07 91 1233.07 91 1364 232 c 0,63,64
 1505 383.846 1505 383.846 1505 648 c 0,65,66
 1505 867.438 1505 867.438 1410.5 1057.5 c 0,67,68
 1321.66 1236.19 1321.66 1236.19 1168.5 1343.5 c 0,69,70
 1015.08 1451 1015.08 1451 844 1451 c 0,71,72
 625.43 1451 625.43 1451 478.5 1293.5 c 0,73,74
 329 1133.24 329 1133.24 329 889 c 256,55,56
EndSplineSet
EndChar

StartChar: K
Encoding: 75 75 33
Width: 1539
Flags: HW
LayerCount: 2
Fore
SplineSet
707 73 m 1,0,1
 740 73 740 73 740 46 c 0,2,3
 740 30 740 30 721.5 15 c 128,-1,4
 703 0 703 0 663 0 c 0,5,6
 605 0 605 0 567.5 4.5 c 128,-1,7
 530 9 530 9 514 10.5 c 128,-1,8
 498 12 498 12 480.5 13 c 0,9,10
 445.5 15 445.5 15 416 15 c 256,11,12
 338 15 338 15 305 10 c 0,13,14
 146.319 -14.0426 146.319 -14.0426 110.5 15 c 0,15,16
 92 30 92 30 92 46 c 0,17,18
 92 73 92 73 125 73 c 1,19,-1
 189 66 l 1,20,21
 246.158 66 246.158 66 267 102 c 0,22,23
 297.612 157.102 297.612 157.102 301.306 218.051 c 128,-1,24
 305 279 305 279 305 321 c 2,25,-1
 305 1207 l 2,26,27
 305 1331.47 305 1331.47 291 1369.73 c 128,-1,28
 277 1408 277 1408 266.5 1426.5 c 0,29,30
 246.351 1462 246.351 1462 189 1462 c 1,31,-1
 125 1455 l 1,32,33
 92 1455 92 1455 92 1482 c 0,34,35
 92 1498 92 1498 110.5 1513 c 128,-1,36
 129 1528 129 1528 169 1528 c 0,37,38
 227 1528 227 1528 264.5 1523.5 c 128,-1,39
 302 1519 302 1519 318 1517.5 c 128,-1,40
 334 1516 334 1516 351.5 1515 c 0,41,42
 386.5 1513 386.5 1513 416 1513 c 256,43,44
 494 1513 494 1513 527 1518 c 0,45,46
 593 1528 593 1528 648 1528 c 128,-1,47
 703 1528 703 1528 721.5 1513 c 128,-1,48
 740 1498 740 1498 740 1482 c 0,49,50
 740 1455 740 1455 707 1455 c 1,51,-1
 643 1462 l 1,52,53
 585.842 1462 585.842 1462 565 1426 c 0,54,55
 534.388 1370.9 534.388 1370.9 530.694 1309.95 c 128,-1,56
 527 1249 527 1249 527 1207 c 2,57,-1
 527 864 l 1,58,59
 618.077 887.299 618.077 887.299 711.538 953.649 c 0,60,61
 871.462 1067.18 871.462 1067.18 1078 1266 c 1,62,63
 1198 1386 1198 1386 1198 1430 c 0,64,65
 1198 1463 1198 1463 1151 1463 c 1,66,-1
 1087 1455 l 1,67,68
 1054 1455 1054 1455 1054 1482 c 0,69,70
 1054 1498 1054 1498 1073.5 1513 c 128,-1,71
 1093 1528 1093 1528 1130.5 1528 c 128,-1,72
 1168 1528 1168 1528 1190.5 1526 c 2,73,-1
 1235 1522 l 1,74,75
 1301.67 1514 1301.67 1514 1330 1514 c 1,76,-1
 1484 1528 l 1,77,78
 1535 1528 1535 1528 1552.5 1513 c 128,-1,79
 1570 1498 1570 1498 1570 1482 c 0,80,81
 1570 1455 1570 1455 1537 1455 c 1,82,-1
 1473 1462 l 1,83,84
 1420 1462 1420 1462 1294 1336 c 1,85,86
 1077 1130 1077 1130 919.5 1000 c 128,-1,87
 762 870 762 870 652 821 c 1,88,89
 857.683 786.719 857.683 786.719 992.5 689 c 0,90,91
 1145.35 578.211 1145.35 578.211 1254 359 c 1,92,93
 1359.95 141.364 1359.95 141.364 1467 70 c 0,94,95
 1497 50 1497 50 1513.5 50 c 0,96,97
 1536 50 1536 50 1547 53.5 c 0,98,99
 1586.16 65.9607 1586.16 65.9607 1594.58 54.4803 c 128,-1,100
 1603 43 1603 43 1603 35 c 0,101,102
 1603 -12 1603 -12 1502 -12 c 128,-1,103
 1401 -12 1401 -12 1326.5 10 c 128,-1,104
 1252 32 1252 32 1187.5 82.5 c 0,105,106
 1061.57 181.095 1061.57 181.095 955 412 c 1,107,108
 829.222 671.759 829.222 671.759 648 728 c 0,109,110
 590 746 590 746 527 750 c 1,111,-1
 527 321 l 2,112,113
 527 196.533 527 196.533 541 158.267 c 128,-1,114
 555 120 555 120 565.5 101.5 c 0,115,116
 585.649 66.0001 585.649 66.0001 643 66 c 1,117,-1
 707 73 l 1,0,1
EndSplineSet
EndChar

StartChar: b
Encoding: 98 98 34
Width: 1366
Flags: HW
LayerCount: 2
Fore
SplineSet
115 -3 m 0,0,1
 115 15 115 15 140 35 c 128,-1,2
 165 55 165 55 174 69.5 c 128,-1,3
 183 84 183 84 188.5 110.5 c 0,4,5
 198 156.273 198 156.273 198 292 c 2,6,-1
 198 1330 l 2,7,8
 198 1533 198 1533 152 1589 c 1,9,10
 116.515 1629.22 116.515 1629.22 27 1637 c 0,11,12
 -25 1642.2 -25 1642.2 -25 1670 c 0,13,14
 -25 1682 -25 1682 -11 1691.5 c 128,-1,15
 3 1701 3 1701 28.5 1701 c 128,-1,16
 54 1701 54 1701 74.5 1699 c 2,17,-1
 116 1695 l 2,18,19
 173 1689 173 1689 213 1689 c 256,20,21
 269.8 1689 269.8 1689 310.4 1696 c 128,-1,22
 351 1703 351 1703 367.5 1703 c 128,-1,23
 384 1703 384 1703 395.5 1699.5 c 128,-1,24
 407 1696 407 1696 413 1683.5 c 0,25,26
 423 1662.67 423 1662.67 423 1580 c 2,27,-1
 423 930 l 1,28,29
 537.24 1032 537.24 1032 733 1032 c 0,30,31
 971.609 1032 971.609 1032 1119.5 892.5 c 0,32,33
 1267 753.369 1267 753.369 1267 521 c 0,34,35
 1267 292.558 1267 292.558 1111.5 136 c 0,36,37
 952.581 -24 952.581 -24 717 -24 c 0,38,39
 575.421 -24 575.421 -24 460 19 c 0,40,41
 420 33 420 33 388.5 33 c 0,42,43
 350.231 33 350.231 33 287.115 11 c 0,44,45
 169.491 -30 169.491 -30 142.246 -30 c 128,-1,46
 115 -30 115 -30 115 -3 c 0,0,1
423 198 m 1,47,48
 490 64 490 64 665 64 c 0,49,50
 834.248 64 834.248 64 934.5 181.5 c 0,51,52
 1030 293.43 1030 293.43 1030 463 c 0,53,54
 1030 683.333 1030 683.333 923.5 813.5 c 0,55,56
 822.455 937 822.455 937 664 937 c 0,57,58
 551.924 937 551.924 937 467.5 858.5 c 0,59,60
 439 832 439 832 423 796 c 1,61,-1
 423 198 l 1,47,48
EndSplineSet
EndChar

StartChar: p
Encoding: 112 112 35
Width: 1364
Flags: HW
LayerCount: 2
Fore
SplineSet
50 -457 m 1,0,-1
 99 -464 l 1,1,2
 157.571 -464 157.571 -464 178 -412 c 1,3,4
 208 -331.231 208 -331.231 208 -182 c 2,5,-1
 208 639 l 2,6,7
 208 834 208 834 164 892 c 0,8,9
 144 918 144 918 115.5 926.5 c 128,-1,10
 87 935 87 935 60.5 938.5 c 128,-1,11
 34 942 34 942 19 948.5 c 128,-1,12
 4 955 4 955 4 970 c 0,13,14
 4 1009 4 1009 64 1009 c 1,15,-1
 209 997 l 1,16,17
 228 997 228 997 246 999 c 2,18,-1
 320 1007 l 2,19,20
 339 1009 339 1009 355.5 1009 c 128,-1,21
 372 1009 372 1009 383 1007 c 128,-1,22
 394 1005 394 1005 403 998.5 c 0,23,24
 421.733 984.971 421.733 984.971 429 945 c 1,25,26
 555.15 1032 555.15 1032 699.075 1032 c 128,-1,27
 843 1032 843 1032 945.5 996 c 128,-1,28
 1048 960 1048 960 1120 891.5 c 0,29,30
 1268 750.694 1268 750.694 1268 505 c 0,31,32
 1268 285.863 1268 285.863 1112 132 c 0,33,34
 953.833 -24 953.833 -24 724 -24 c 0,35,36
 549.286 -24 549.286 -24 433 50 c 1,37,-1
 433 -182 l 2,38,39
 433 -322.273 433 -322.273 443 -358.636 c 128,-1,40
 453 -395 453 -395 464 -418 c 0,41,42
 486 -464 486 -464 549 -464 c 1,43,-1
 598 -457 l 1,44,45
 630 -457 630 -457 630 -485 c 0,46,47
 630 -530 630 -530 531 -530 c 1,48,-1
 318 -515 l 1,49,50
 303 -515 303 -515 283.5 -516 c 2,51,-1
 245.5 -518 l 2,52,53
 210.913 -519.87 210.913 -519.87 189.957 -522.935 c 0,54,55
 141.652 -530 141.652 -530 112 -530 c 0,56,57
 17 -530 17 -530 17 -485 c 0,58,59
 17 -457 17 -457 50 -457 c 1,0,-1
669 941 m 0,60,61
 542.524 941 542.524 941 433 841 c 1,62,-1
 433 236 l 1,63,64
 488.166 114.055 488.166 114.055 627 78.5 c 0,65,66
 668 68 668 68 728 68 c 128,-1,67
 788 68 788 68 849 100 c 128,-1,68
 910 132 910 132 952 185 c 0,69,70
 1038 293.524 1038 293.524 1038 455 c 0,71,72
 1038 674 1038 674 933 809 c 0,73,74
 830.333 941 830.333 941 669 941 c 0,60,61
EndSplineSet
EndChar

StartChar: q
Encoding: 113 113 36
Width: 1366
Flags: HW
LayerCount: 2
Fore
SplineSet
971 78 m 1,0,1
 840.333 -20 840.333 -20 691.167 -20 c 128,-1,2
 542 -20 542 -20 439.5 17.5 c 128,-1,3
 337 55 337 55 265 124 c 0,4,5
 117 265.833 117 265.833 117 507 c 0,6,7
 117 726.274 117 726.274 273 878 c 0,8,9
 431.338 1032 431.338 1032 649.712 1032 c 128,-1,10
 868.085 1032 868.085 1032 1000 932 c 1,11,12
 1183.93 1032 1183.93 1032 1251 1032 c 0,13,14
 1280 1032 1280 1032 1280 1007 c 0,15,16
 1280 990 1280 990 1255.5 973.5 c 128,-1,17
 1231 957 1231 957 1222 941 c 128,-1,18
 1213 925 1213 925 1207 896 c 0,19,20
 1196 842.833 1196 842.833 1196 711 c 2,21,-1
 1196 -182 l 2,22,23
 1196 -322.273 1196 -322.273 1206 -358.636 c 128,-1,24
 1216 -395 1216 -395 1227 -418 c 0,25,26
 1249 -464 1249 -464 1312 -464 c 1,27,-1
 1361 -457 l 1,28,29
 1393 -457 1393 -457 1393 -485 c 0,30,31
 1393 -530 1393 -530 1294 -530 c 1,32,-1
 1081 -515 l 1,33,34
 1066 -515 1066 -515 1046.5 -516 c 2,35,-1
 1008.5 -518 l 2,36,37
 973.913 -519.87 973.913 -519.87 952.957 -522.935 c 0,38,39
 904.652 -530 904.652 -530 875 -530 c 0,40,41
 780 -530 780 -530 780 -485 c 0,42,43
 780 -457 780 -457 813 -457 c 1,44,-1
 862 -464 l 1,45,46
 920.571 -464 920.571 -464 941 -412 c 1,47,48
 971 -331.231 971 -331.231 971 -182 c 2,49,-1
 971 78 l 1,0,1
971 185 m 1,50,-1
 971 765 l 1,51,52
 933.236 844.305 933.236 844.305 844 894.5 c 0,53,54
 763.111 940 763.111 940 680.056 940 c 128,-1,55
 597 940 597 940 536 909 c 128,-1,56
 475 878 475 878 433 825 c 0,57,58
 347 716.476 347 716.476 347 557 c 0,59,60
 347 349.931 347 349.931 457 206.5 c 0,61,62
 566.286 64 566.286 64 715.403 64 c 128,-1,63
 864.52 64 864.52 64 971 185 c 1,50,-1
EndSplineSet
EndChar

StartChar: c
Encoding: 99 99 37
Width: 1196
Flags: HW
LayerCount: 2
Fore
SplineSet
1106 727 m 0,0,1
 1106 702 1106 702 1083 702 c 0,2,3
 1059.55 702 1059.55 702 1001.27 774.5 c 128,-1,4
 943 847 943 847 856.5 893.5 c 128,-1,5
 770 940 770 940 690.5 940 c 128,-1,6
 611 940 611 940 553.5 912.5 c 128,-1,7
 496 885 496 885 452.5 835.5 c 0,8,9
 358 727.966 358 727.966 358 564 c 0,10,11
 358 360.231 358 360.231 477 222.5 c 0,12,13
 589.752 92 589.752 92 748 92 c 0,14,15
 870.275 92 870.275 92 966.5 167.5 c 0,16,17
 999 193 999 193 1018.5 221 c 128,-1,18
 1038 249 1038 249 1047.5 258 c 128,-1,19
 1057 267 1057 267 1069.5 267 c 128,-1,20
 1082 267 1082 267 1090.5 259.5 c 128,-1,21
 1099 252 1099 252 1099 242 c 0,22,23
 1099 203.64 1099 203.64 1061 155 c 0,24,25
 920.357 -24 920.357 -24 676 -24 c 0,26,27
 438.05 -24 438.05 -24 281 123.5 c 0,28,29
 122 272.831 122 272.831 122 505 c 0,30,31
 122 716.326 122 716.326 266.5 868 c 0,32,33
 422.743 1032 422.743 1032 670 1032 c 0,34,35
 764.333 1032 764.333 1032 871 1000 c 1,36,37
 904 989 904 989 916.5 989 c 0,38,39
 935 989 935 989 976.5 1010.5 c 128,-1,40
 1018 1032 1018 1032 1040 1032 c 0,41,42
 1069 1032 1069 1032 1069 995.5 c 128,-1,43
 1069 959 1069 959 1069.5 928 c 128,-1,44
 1070 897 1070 897 1073 871 c 0,45,46
 1078.98 819.167 1078.98 819.167 1092.49 780.084 c 128,-1,47
 1106 741 1106 741 1106 727 c 0,0,1
EndSplineSet
EndChar

StartChar: j
Encoding: 106 106 38
Width: 855
Flags: HW
LayerCount: 2
Fore
SplineSet
484 1233.5 m 128,-1,1
 457 1221 457 1221 421 1221 c 128,-1,2
 385 1221 385 1221 357.5 1234 c 128,-1,3
 330 1247 330 1247 312.5 1268 c 0,4,5
 279 1308.2 279 1308.2 279 1354.1 c 128,-1,6
 279 1400 279 1400 289.5 1427.5 c 128,-1,7
 300 1455 300 1455 319.5 1475 c 0,8,9
 361.425 1518 361.425 1518 412.212 1518 c 128,-1,10
 463 1518 463 1518 490 1505 c 128,-1,11
 517 1492 517 1492 535 1470.5 c 0,12,13
 570 1428.69 570 1428.69 570 1383.85 c 128,-1,14
 570 1339 570 1339 559.5 1313 c 128,-1,15
 549 1287 549 1287 530 1266.5 c 128,-1,0
 511 1246 511 1246 484 1233.5 c 128,-1,1
-89 -248 m 2,16,17
 -89 -222 -89 -222 -68 -222 c 0,18,19
 -39.35 -222 -39.35 -222 -20 -265 c 0,20,21
 23 -359 23 -359 64.5 -401.5 c 128,-1,22
 106 -444 106 -444 148.5 -444 c 128,-1,23
 191 -444 191 -444 223 -422 c 128,-1,24
 255 -400 255 -400 279 -342 c 0,25,26
 330 -218.75 330 -218.75 330 78 c 2,27,-1
 330 639 l 2,28,29
 330 834 330 834 286 892 c 0,30,31
 266 918 266 918 237.5 926.5 c 128,-1,32
 209 935 209 935 182.5 938.5 c 128,-1,33
 156 942 156 942 141 948.5 c 128,-1,34
 126 955 126 955 126 970 c 0,35,36
 126 1009 126 1009 186 1009 c 1,37,-1
 331 997 l 1,38,-1
 499 1009 l 257,39,40
 533.88 1009 533.88 1009 541.94 993.5 c 0,41,42
 555 968.385 555 968.385 555 887 c 2,43,-1
 555 78 l 2,44,45
 555 -237.042 555 -237.042 428 -390.5 c 0,46,47
 312.552 -530 312.552 -530 107 -530 c 0,48,49
 21.5 -530 21.5 -530 -89 -504 c 1,50,-1
 -89 -248 l 2,16,17
EndSplineSet
EndChar

StartChar: f
Encoding: 102 102 39
Width: 855
Flags: HW
LayerCount: 2
Fore
SplineSet
189 0 m 0,0,1
 94 0 94 0 94 45 c 0,2,3
 94 73 94 73 127 73 c 1,4,-1
 176 66 l 1,5,6
 234.571 66 234.571 66 255 118 c 1,7,8
 285 198.769 285 198.769 285 348 c 2,9,-1
 285 931 l 1,10,11
 259 930 259 930 235 930 c 2,12,-1
 189 930 l 2,13,14
 91 930 91 930 91 977 c 0,15,16
 91 1019 91 1019 182 1019 c 0,17,18
 231 1019 231 1019 285 1015 c 1,19,-1
 285 1124 l 2,20,21
 285 1589.9 285 1589.9 549.5 1697 c 0,22,23
 631 1730 631 1730 722.583 1730 c 128,-1,24
 814.167 1730 814.167 1730 929 1704 c 1,25,-1
 929 1421 l 2,26,27
 929 1390 929 1390 906 1390 c 256,28,29
 895 1390 895 1390 888 1397 c 128,-1,30
 881 1404 881 1404 867 1446 c 128,-1,31
 853 1488 853 1488 831 1528.5 c 128,-1,32
 809 1569 809 1569 785.5 1594.5 c 0,33,34
 739.703 1644.19 739.703 1644.19 698.851 1642.6 c 128,-1,35
 658 1641 658 1641 623.5 1619 c 128,-1,36
 589 1597 589 1597 564 1553 c 0,37,38
 510 1457.96 510 1457.96 510 1288 c 2,39,-1
 510 1013 l 1,40,-1
 646 1016.5 l 2,41,42
 704 1018 704 1018 740.5 1018.5 c 128,-1,43
 777 1019 777 1019 798 1006 c 128,-1,44
 819 993 819 993 819 977 c 0,45,46
 819 930 819 930 701 930 c 1,47,-1
 510 934 l 1,48,-1
 510 348 l 2,49,50
 510 207.727 510 207.727 520 171.364 c 128,-1,51
 530 135 530 135 541 112 c 0,52,53
 563 66 563 66 634 66 c 1,54,-1
 702 74 l 1,55,56
 734 74 734 74 734 45 c 0,57,58
 734 28 734 28 704 14 c 128,-1,59
 674 0 674 0 640 0 c 128,-1,60
 606 0 606 0 590.5 1 c 128,-1,61
 575 2 575 2 564 3 c 128,-1,62
 553 4 553 4 533.5 6 c 2,63,-1
 498 9.5 l 2,64,65
 482 11 482 11 464 12 c 128,-1,66
 446 13 446 13 428 14 c 128,-1,67
 410 15 410 15 395 15 c 256,68,69
 380 15 380 15 360.5 14 c 2,70,-1
 322.5 12 l 2,71,72
 287.913 10.1304 287.913 10.1304 266.957 7.06522 c 0,73,74
 218.652 -7.31774e-07 218.652 -7.31774e-07 189 0 c 0,0,1
EndSplineSet
EndChar

StartChar: t
Encoding: 116 116 40
Width: 1025
Flags: HW
LayerCount: 2
Fore
SplineSet
909 246 m 256,0,1
 939 246 939 246 939 217 c 0,2,3
 939 183.478 939 183.478 889.5 115.739 c 128,-1,4
 840 48 840 48 760 12 c 128,-1,5
 680 -24 680 -24 598 -24 c 128,-1,6
 516 -24 516 -24 455 -8 c 128,-1,7
 394 8 394 8 351.5 44 c 0,8,9
 262 119.812 262 119.812 262 281 c 2,10,-1
 262 930 l 1,11,-1
 158 930 l 2,12,13
 75 930 75 930 63 952.5 c 0,14,15
 59 960 59 960 59 971 c 128,-1,16
 59 982 59 982 66.5 989.5 c 128,-1,17
 74 997 74 997 86.5 1002 c 128,-1,18
 99 1007 99 1007 116 1011 c 2,19,-1
 151 1019 l 1,20,21
 310.354 1057.36 310.354 1057.36 366.5 1233 c 0,22,23
 386 1294 386 1294 396.5 1365.5 c 128,-1,24
 407 1437 407 1437 420 1457.5 c 128,-1,25
 433 1478 433 1478 452.5 1478 c 128,-1,26
 472 1478 472 1478 479.5 1455 c 128,-1,27
 487 1432 487 1432 487 1378 c 2,28,-1
 487 1011 l 1,29,30
 760 1018 760 1018 797.5 1018 c 128,-1,31
 835 1018 835 1018 859 1015.5 c 128,-1,32
 883 1013 883 1013 897 1008 c 0,33,34
 921 999.429 921 999.429 921 977 c 0,35,36
 921 930 921 930 805 930 c 2,37,-1
 487 930 l 1,38,-1
 487 310 l 2,39,40
 487 156.955 487 156.955 581.5 109 c 0,41,42
 615 92 615 92 648 92 c 128,-1,43
 681 92 681 92 704.5 97.5 c 128,-1,44
 728 103 728 103 754 115.5 c 0,45,46
 813.132 143.929 813.132 143.929 855 204 c 0,47,48
 883.636 246 883.636 246 909 246 c 256,0,1
EndSplineSet
EndChar

StartChar: k
Encoding: 107 107 41
Width: 1533
Flags: HW
LayerCount: 2
Fore
SplineSet
243 0 m 0,0,1
 143 0 143 0 143 45 c 0,2,3
 143 73 143 73 176 73 c 1,4,-1
 228 66 l 1,5,6
 279.733 66 279.733 66 304 118 c 0,7,8
 334 184.429 334 184.429 334 348 c 2,9,-1
 334 1330 l 2,10,11
 334 1533 334 1533 288 1589 c 1,12,13
 252.515 1629.22 252.515 1629.22 163 1637 c 0,14,15
 111 1642.2 111 1642.2 111 1670 c 0,16,17
 111 1682 111 1682 125 1691.5 c 128,-1,18
 139 1701 139 1701 164.5 1701 c 128,-1,19
 190 1701 190 1701 210.5 1699 c 2,20,-1
 252 1695 l 2,21,22
 309 1689 309 1689 349 1689 c 256,23,24
 405.8 1689 405.8 1689 446.4 1696 c 128,-1,25
 487 1703 487 1703 503.5 1703 c 128,-1,26
 520 1703 520 1703 531.5 1699.5 c 128,-1,27
 543 1696 543 1696 549 1683.5 c 0,28,29
 559 1662.67 559 1662.67 559 1580 c 2,30,-1
 559 588 l 1,31,32
 786.71 661.33 786.71 661.33 977.5 814.5 c 0,33,34
 1053 875.113 1053 875.113 1053 907 c 0,35,36
 1053 952 1053 952 974 952 c 1,37,-1
 915 945 l 1,38,39
 884 945 884 945 884 971 c 0,40,41
 884 1019 884 1019 970 1019 c 0,42,43
 1000 1019 1000 1019 1030 1016 c 128,-1,44
 1060 1013 1060 1013 1088 1010 c 0,45,46
 1153.33 1003 1153.33 1003 1197 1003 c 1,47,-1
 1363 1019 l 1,48,49
 1446 1019 1446 1019 1446 971 c 0,50,51
 1446 945 1446 945 1414 945 c 1,52,-1
 1358 952 l 1,53,54
 1313 952 1313 952 1228.5 876.5 c 0,55,56
 1030.01 699.152 1030.01 699.152 796 585 c 1,57,-1
 1211 202 l 2,58,59
 1356.95 67 1356.95 67 1429 67 c 1,60,-1
 1473 74 l 1,61,62
 1487 74 1487 74 1496.5 66.5 c 128,-1,63
 1506 59 1506 59 1506 48 c 0,64,65
 1506 0 1506 0 1425 0 c 1,66,-1
 1281 9 l 1,67,-1
 1159 0 l 257,68,69
 1107.79 0 1107.79 0 1019.5 76 c 0,70,71
 980 110 980 110 918.5 169 c 1,72,-1
 769 316.5 l 1,73,-1
 559 531 l 1,74,-1
 559 348 l 2,75,76
 559 216 559 216 569 176 c 128,-1,77
 579 136 579 136 587.5 113.5 c 128,-1,78
 596 91 596 91 617.5 78.5 c 128,-1,79
 639 66 639 66 660 66 c 1,80,-1
 712 73 l 1,81,82
 743 73 743 73 743 46 c 0,83,84
 743 0 743 0 652 0 c 0,85,86
 625.5 0 625.5 0 586.75 5.5 c 0,87,88
 519.818 15 519.818 15 479.909 15 c 128,-1,89
 440 15 440 15 422.5 14.5 c 128,-1,90
 405 14 405 14 387.5 12.5 c 2,91,-1
 353.5 9.5 l 2,92,93
 337 8 337 8 317.5 5.5 c 0,94,95
 274.6 6.12629e-07 274.6 6.12629e-07 243 0 c 0,0,1
EndSplineSet
EndChar

StartChar: u
Encoding: 117 117 42
Width: 1532
Flags: HW
LayerCount: 2
Fore
SplineSet
983 114 m 1,0,1
 845 -24 845 -24 662 -24 c 0,2,3
 493.207 -24 493.207 -24 382.5 73 c 0,4,5
 271 170.695 271 170.695 271 322 c 2,6,-1
 271 665 l 2,7,8
 271 852 271 852 254.5 892 c 128,-1,9
 238 932 238 932 214 939 c 128,-1,10
 190 946 190 946 163 946 c 1,11,-1
 107 939 l 1,12,13
 75 939 75 939 75 964 c 0,14,15
 75 1012 75 1012 168 1012 c 1,16,-1
 321 1003 l 2,17,18
 334 1003 334 1003 346 1004 c 2,19,-1
 371 1006 l 2,20,21
 398 1009 398 1009 423.5 1009 c 128,-1,22
 449 1009 449 1009 461.5 1003.5 c 128,-1,23
 474 998 474 998 481.5 982.5 c 0,24,25
 496 952.533 496 952.533 496 864 c 2,26,-1
 496 321 l 2,27,28
 496 145.111 496 145.111 626.5 100 c 0,29,30
 667 86 667 86 716 86 c 0,31,32
 848.889 86 848.889 86 983 222 c 1,33,-1
 983 664 l 2,34,35
 983 852 983 852 966.5 892 c 128,-1,36
 950 932 950 932 926 939 c 128,-1,37
 902 946 902 946 875 946 c 1,38,-1
 819 939 l 1,39,40
 787 939 787 939 787 964 c 0,41,42
 787 1012 787 1012 880 1012 c 1,43,-1
 1033 1003 l 2,44,45
 1046 1003 1046 1003 1058 1004 c 2,46,-1
 1083 1006 l 2,47,48
 1110 1009 1110 1009 1135.5 1009 c 128,-1,49
 1161 1009 1161 1009 1173.5 1003.5 c 128,-1,50
 1186 998 1186 998 1193.5 982 c 0,51,52
 1208 951.067 1208 951.067 1208 863 c 2,53,-1
 1208 345 l 2,54,55
 1208 157 1208 157 1224.5 117 c 128,-1,56
 1241 77 1241 77 1265 70 c 128,-1,57
 1289 63 1289 63 1316 63 c 1,58,-1
 1372 70 l 257,59,60
 1404 70 1404 70 1404 45 c 0,61,62
 1404 -3 1404 -3 1311 -3 c 1,63,-1
 1158 6 l 2,64,65
 1145 6 1145 6 1133 5 c 2,66,-1
 1108 3 l 2,67,68
 1081 0 1081 0 1058.5 0 c 128,-1,69
 1036 0 1036 0 1024.5 5 c 128,-1,70
 1013 10 1013 10 1004.5 23 c 0,71,72
 986.757 50.1369 986.757 50.1369 983 114 c 1,0,1
EndSplineSet
EndChar

StartChar: r
Encoding: 114 114 43
Width: 1196
Flags: HW
LayerCount: 2
Fore
SplineSet
249 0 m 0,0,1
 154 0 154 0 154 45 c 0,2,3
 154 73 154 73 187 73 c 1,4,-1
 236 66 l 1,5,6
 294.571 66 294.571 66 315 118 c 1,7,8
 345 198.769 345 198.769 345 348 c 2,9,-1
 345 639 l 2,10,11
 345 834 345 834 301 892 c 0,12,13
 281 918 281 918 252.5 926.5 c 128,-1,14
 224 935 224 935 197.5 938.5 c 128,-1,15
 171 942 171 942 156 948.5 c 128,-1,16
 141 955 141 955 141 970 c 0,17,18
 141 1009 141 1009 201 1009 c 1,19,-1
 346 997 l 1,20,21
 365 997 365 997 383 999 c 2,22,-1
 457 1007 l 2,23,24
 476 1009 476 1009 494 1009 c 128,-1,25
 512 1009 512 1009 526 1006 c 128,-1,26
 540 1003 540 1003 549.5 990.5 c 0,27,28
 570 963.526 570 963.526 570 887 c 2,29,-1
 570 799 l 1,30,31
 663.22 958.805 663.22 958.805 814 1013.5 c 0,32,33
 865 1032 865 1032 917.5 1032 c 128,-1,34
 970 1032 970 1032 1004.5 1021.5 c 128,-1,35
 1039 1011 1039 1011 1060 992.5 c 0,36,37
 1100 957.262 1100 957.262 1100 898 c 2,38,-1
 1098 676 l 2,39,40
 1098 663 1098 663 1091 655 c 128,-1,41
 1084 647 1084 647 1075 647 c 256,42,43
 1053.65 647 1053.65 647 1042.33 691 c 128,-1,44
 1031 735 1031 735 1008.5 771.5 c 128,-1,45
 986 808 986 808 957.5 831 c 0,46,47
 902.978 875 902.978 875 843.989 875 c 128,-1,48
 785 875 785 875 743.5 856 c 128,-1,49
 702 837 702 837 668 808 c 0,50,51
 599.648 749.7 599.648 749.7 570 679 c 1,52,-1
 570 348 l 2,53,54
 570 207.727 570 207.727 580 171.364 c 128,-1,55
 590 135 590 135 601 112 c 0,56,57
 623 66 623 66 694 66 c 1,58,-1
 762 74 l 1,59,60
 794 74 794 74 794 45 c 0,61,62
 794 28 794 28 764 14 c 128,-1,63
 734 0 734 0 700 0 c 128,-1,64
 666 0 666 0 650.5 1 c 128,-1,65
 635 2 635 2 624 3 c 128,-1,66
 613 4 613 4 593.5 6 c 2,67,-1
 558 9.5 l 2,68,69
 542 11 542 11 524 12 c 128,-1,70
 506 13 506 13 488 14 c 128,-1,71
 470 15 470 15 455 15 c 256,72,73
 440 15 440 15 420.5 14 c 2,74,-1
 382.5 12 l 2,75,76
 347.913 10.1304 347.913 10.1304 326.957 7.06522 c 0,77,78
 278.652 1.50006e-06 278.652 1.50006e-06 249 0 c 0,0,1
EndSplineSet
EndChar

StartChar: g
Encoding: 103 103 44
Width: 1364
Flags: HW
LayerCount: 2
Fore
SplineSet
390 -59 m 1,0,1
 250 1.27778 250 1.27778 250 101 c 0,2,3
 250 179.406 250 179.406 347 237 c 0,4,5
 379 256 379 256 421 269 c 1,6,7
 237.998 344.525 237.998 344.525 190.5 516.5 c 0,8,9
 151.207 658.766 151.207 658.766 221 790.5 c 0,10,11
 301.785 942.981 301.785 942.981 498.5 1002.5 c 0,12,13
 596 1032 596 1032 712.294 1032 c 128,-1,14
 828.588 1032 828.588 1032 926 996 c 1,15,16
 1056.73 998.514 1056.73 998.514 1128.5 1039 c 0,17,18
 1148 1050 1148 1050 1166 1062 c 0,19,20
 1212.5 1093 1212.5 1093 1246 1093 c 0,21,22
 1299 1093 1299 1093 1299 1044.5 c 128,-1,23
 1299 996 1299 996 1232.5 963.5 c 128,-1,24
 1166 931 1166 931 1045 929 c 1,25,26
 1179.19 821.245 1179.19 821.245 1175 658 c 1,27,28
 1168.91 469.192 1168.91 469.192 1031 348 c 0,29,30
 889.897 224 889.897 224 671 224 c 0,31,32
 496.955 224 496.955 224 436.5 186 c 0,33,34
 419 175 419 175 419 162 c 256,35,36
 419 85.1927 419 85.1927 749 64 c 1,37,38
 1151 35.4897 1151 35.4897 1234 -109 c 0,39,40
 1261 -156 1261 -156 1261 -219.5 c 128,-1,41
 1261 -283 1261 -283 1221 -341.5 c 128,-1,42
 1181 -400 1181 -400 1106.5 -442 c 0,43,44
 950.405 -530 950.405 -530 682 -530 c 0,45,46
 412.786 -530 412.786 -530 273.5 -452 c 0,47,48
 155 -385.64 155 -385.64 155 -280 c 0,49,50
 155 -175.315 155 -175.315 285.5 -102 c 0,51,52
 330 -77 330 -77 390 -59 c 1,0,1
586.5 339 m 128,-1,54
 646 313 646 313 706 313 c 128,-1,55
 766 313 766 313 807.5 326.5 c 128,-1,56
 849 340 849 340 879.5 368 c 0,57,58
 945.145 428.264 945.145 428.264 948.572 535.632 c 128,-1,59
 952 643 952 643 925.5 717.5 c 128,-1,60
 899 792 899 792 855 841.5 c 0,61,62
 767.444 940 767.444 940 640 940 c 0,63,64
 540 940 540 940 471 871 c 128,-1,65
 402.02 802.02 402.02 802.02 399.51 704.01 c 128,-1,66
 397 606 397 606 419.5 534.5 c 128,-1,67
 442 463 442 463 484.5 414 c 128,-1,53
 527 365 527 365 586.5 339 c 128,-1,54
764 -404 m 0,68,69
 1138 -404 1138 -404 1138 -285 c 0,70,71
 1138 -192.917 1138 -192.917 888.5 -142.5 c 0,72,73
 792 -123 792 -123 701 -117 c 0,74,75
 581.656 -109.131 581.656 -109.131 531 -99 c 1,76,77
 411.891 -132.595 411.891 -132.595 374.5 -202.5 c 0,78,79
 363 -224 363 -224 363 -252 c 128,-1,80
 363 -280 363 -280 385.5 -309 c 128,-1,81
 408 -338 408 -338 456 -359 c 0,82,83
 558.857 -404 558.857 -404 764 -404 c 0,68,69
EndSplineSet
EndChar

StartChar: X
Encoding: 88 88 45
Width: 1539
Flags: HW
LayerCount: 2
Fore
SplineSet
461 72 m 1,0,1
 493 72 493 72 493 47 c 0,2,3
 493 28 493 28 471 14 c 128,-1,4
 449 0 449 0 408.5 0 c 128,-1,5
 368 0 368 0 342 2.5 c 2,6,-1
 294 7 l 1,7,8
 238 14 238 14 208.5 14 c 0,9,10
 162 14 162 14 132.5 9.5 c 2,11,-1
 86 2.5 l 2,12,13
 69 0 69 0 42 0 c 128,-1,14
 15 0 15 0 -8 12.5 c 128,-1,15
 -31 25 -31 25 -31 49 c 128,-1,16
 -31 73 -31 73 2 73 c 1,17,-1
 58 65 l 1,18,19
 95.4286 65 95.4286 65 146.5 120 c 0,20,21
 166 141 166 141 192 173 c 2,22,-1
 659 740 l 1,23,-1
 166 1407 l 1,24,25
 132.738 1454.12 132.738 1454.12 108.5 1460.5 c 0,26,27
 99 1463 99 1463 86 1463 c 1,28,-1
 31 1455 l 1,29,30
 -2 1455 -2 1455 -2 1481 c 0,31,32
 -2 1499 -2 1499 19.5 1513.5 c 128,-1,33
 41 1528 41 1528 86 1528 c 1,34,35
 283 1514 l 1,36,-1
 549 1528 l 1,37,38
 645 1528 645 1528 645 1481 c 0,39,40
 645 1456 645 1456 613 1456 c 1,41,-1
 537 1465 l 1,42,43
 469 1465 469 1465 469 1423 c 0,44,45
 469 1386.23 469 1386.23 527 1310 c 1,46,-1
 827 904 l 1,47,-1
 1047 1175 l 2,48,49
 1204 1369.68 1204 1369.68 1204 1424 c 0,50,51
 1204 1466 1204 1466 1136 1466 c 1,52,-1
 1060 1456 l 1,53,54
 1028 1456 1028 1456 1028 1481 c 0,55,56
 1028 1500 1028 1500 1050 1514 c 128,-1,57
 1072 1528 1072 1528 1112.5 1528 c 128,-1,58
 1153 1528 1153 1528 1179 1525.5 c 2,59,-1
 1227 1521 l 1,60,61
 1283 1514 1283 1514 1312.5 1514 c 0,62,63
 1359 1514 1359 1514 1388.5 1518.5 c 2,64,-1
 1435 1525.5 l 2,65,66
 1452 1528 1452 1528 1479 1528 c 128,-1,67
 1506 1528 1506 1528 1529 1515.5 c 128,-1,68
 1552 1503 1552 1503 1552 1479 c 128,-1,69
 1552 1455 1552 1455 1519 1455 c 1,70,-1
 1463 1463 l 1,71,72
 1425.57 1463 1425.57 1463 1374.5 1408 c 0,73,74
 1355 1387 1355 1387 1329 1355 c 2,75,-1
 889 820 l 1,76,-1
 1406 121 l 1,77,78
 1439.26 73.8784 1439.26 73.8784 1463.5 67.5 c 0,79,80
 1473 65 1473 65 1486 65 c 1,81,-1
 1541 73 l 1,82,83
 1574 73 1574 73 1574 47 c 0,84,85
 1574 29 1574 29 1552.5 14.5 c 128,-1,86
 1531 0 1531 0 1486 0 c 1,87,-1
 1289 14 l 1,88,-1
 1023 0 l 1,89,90
 927 0 927 0 927 47 c 0,91,92
 927 72 927 72 959 72 c 1,93,-1
 1035 63 l 1,94,95
 1103 63 1103 63 1103 105 c 0,96,97
 1103 137.441 1103 137.441 1044 219 c 1,98,-1
 720 656 l 1,99,-1
 474 353 l 2,100,101
 317 158.32 317 158.32 317 104 c 0,102,103
 317 62 317 62 385 62 c 1,104,-1
 461 72 l 1,0,1
EndSplineSet
EndChar

StartChar: Z
Encoding: 90 90 46
Width: 1539
Flags: HW
LayerCount: 2
Fore
SplineSet
171 0 m 2,0,1
 99 0 99 0 99 39 c 0,2,3
 99 58.375 99 58.375 130 101 c 2,4,-1
 1102 1415 l 1,5,-1
 693 1415 l 2,6,7
 543.571 1415 543.571 1415 483.786 1391.5 c 128,-1,8
 424 1368 424 1368 383.5 1342.5 c 128,-1,9
 343 1317 343 1317 308.5 1289 c 0,10,11
 246.671 1238.82 246.671 1238.82 214.835 1198.91 c 128,-1,12
 183 1159 183 1159 165.5 1159 c 128,-1,13
 148 1159 148 1159 148 1182 c 128,-1,14
 148 1205 148 1205 157.5 1237.5 c 0,15,16
 221.803 1451.38 221.803 1451.38 230.401 1504.19 c 128,-1,17
 239 1557 239 1557 248 1566.5 c 128,-1,18
 257 1576 257 1576 266.5 1576 c 0,19,20
 282.478 1576 282.478 1576 300.239 1553 c 128,-1,21
 318 1530 318 1530 325 1525.5 c 128,-1,22
 332 1521 332 1521 344 1518 c 0,23,24
 364 1513 364 1513 425 1513 c 2,25,-1
 1361 1513 l 2,26,27
 1422 1513 1422 1513 1422 1485 c 0,28,29
 1422 1464.88 1422 1464.88 1393 1425 c 2,30,-1
 423 97 l 1,31,-1
 892 97 l 2,32,33
 992.2 97 992.2 97 1042.6 114.5 c 0,34,35
 1125.76 143.376 1125.76 143.376 1206 206 c 2,36,-1
 1246 237 l 2,37,38
 1265 252 1265 252 1284 269.5 c 0,39,40
 1338.83 322.303 1338.83 322.303 1364.92 350.151 c 0,41,42
 1403.18 391 1403.18 391 1419 391 c 256,43,44
 1440 391 1440 391 1440 369 c 256,45,46
 1440 345 1440 345 1417 298.5 c 128,-1,47
 1394 252 1394 252 1381 221 c 128,-1,48
 1368 190 1368 190 1357 157.5 c 0,49,50
 1339.12 104.688 1339.12 104.688 1314 0 c 1,51,-1
 171 0 l 2,0,1
EndSplineSet
EndChar

StartChar: v
Encoding: 118 118 47
Width: 1366
Flags: HW
LayerCount: 2
Fore
SplineSet
1346 936 m 257,0,-1
 1290 943 l 1,1,2
 1248.24 943 1248.24 943 1218.62 912 c 0,3,4
 1168.16 859.188 1168.16 859.188 1112 743 c 2,5,-1
 771 28 l 1,6,7
 744 -26 744 -26 726 -32 c 0,8,9
 720 -34 720 -34 709 -34 c 0,10,11
 682.613 -34 682.613 -34 653 20 c 0,12,13
 226.51 784.816 226.51 784.816 198.255 831.908 c 128,-1,14
 170 879 170 879 150.5 903 c 0,15,16
 118 943 118 943 79 943 c 1,17,-1
 23 936 l 1,18,19
 -9 936 -9 936 -9 958.5 c 0,20,21
 -9 1009 -9 1009 83 1009 c 1,22,-1
 290 993 l 1,23,24
 334 993 334 993 415 1002 c 256,25,26
 478 1009 478 1009 525.5 1009 c 128,-1,27
 573 1009 573 1009 590.5 1004.5 c 128,-1,28
 608 1000 608 1000 618.5 993 c 0,29,30
 638 980 638 980 638 961 c 0,31,32
 638 936 638 936 606 936 c 1,33,-1
 530 945 l 1,34,35
 446 945 446 945 446 891 c 0,36,37
 446 848.8 446 848.8 485 776 c 1,38,-1
 730 335 l 1,39,40
 755.667 291 755.667 291 774 291 c 0,41,42
 787.818 291 787.818 291 806 331 c 2,43,-1
 971 697 l 2,44,45
 1023.44 812.928 1023.44 812.928 1028.22 844.464 c 128,-1,46
 1033 876 1033 876 1033 891 c 0,47,48
 1033 945 1033 945 958 945 c 1,49,-1
 867 936 l 1,50,51
 835 936 835 936 835 958.5 c 0,52,53
 835 1009 835 1009 927 1009 c 1,54,-1
 1126 993 l 1,55,56
 1171 993 1171 993 1216 1002 c 256,57,58
 1251 1009 1251 1009 1294 1009 c 128,-1,59
 1337 1009 1337 1009 1357.5 995 c 128,-1,60
 1378 981 1378 981 1378 958.5 c 128,-1,61
 1378 936 1378 936 1346 936 c 257,0,-1
EndSplineSet
EndChar

StartChar: M
Encoding: 77 77 48
Width: 2048
Flags: HW
LayerCount: 2
Fore
SplineSet
542 0 m 1,0,-1
 361 15 l 257,1,2
 333.667 15 333.667 15 293.833 9.5 c 0,3,4
 92 -18.3682 92 -18.3682 92 46 c 0,5,6
 92 73 92 73 125 73 c 1,7,-1
 189 66 l 1,8,9
 246.158 66 246.158 66 267 102 c 0,10,11
 297.612 157.102 297.612 157.102 301.306 218.051 c 128,-1,12
 305 279 305 279 305 321 c 2,13,-1
 306 1143 l 2,14,15
 306 1243.8 306 1243.8 238 1339 c 1,16,17
 171.221 1435.65 171.221 1435.65 95 1469 c 0,18,19
 72 1479 72 1479 66 1486 c 128,-1,20
 60 1493 60 1493 60 1503 c 0,21,22
 60 1528 60 1528 113 1528 c 1,23,-1
 423 1517 l 1,24,-1
 1070 509 l 1,25,-1
 1591 1512 l 1,26,27
 1727 1512 1727 1512 1778 1518 c 0,28,29
 1863 1528 1863 1528 1916 1528 c 0,30,31
 2005 1528 2005 1528 2005 1482 c 0,32,33
 2005 1454 2005 1454 1972 1454 c 1,34,-1
 1908 1462 l 1,35,36
 1849.8 1462 1849.8 1462 1830 1426 c 0,37,38
 1800.92 1371.07 1800.92 1371.07 1796.46 1309.53 c 128,-1,39
 1792 1248 1792 1248 1792 1203 c 2,40,-1
 1792 321 l 2,41,42
 1792 196.533 1792 196.533 1806 158.267 c 128,-1,43
 1820 120 1820 120 1830.5 101.5 c 0,44,45
 1850.65 65.9999 1850.65 65.9999 1908 66 c 1,46,-1
 1972 73 l 1,47,48
 2005 73 2005 73 2005 46 c 0,49,50
 2005 30 2005 30 1986.5 15 c 128,-1,51
 1968 0 1968 0 1928 0 c 0,52,53
 1870 0 1870 0 1832.5 4.5 c 128,-1,54
 1795 9 1795 9 1779 10.5 c 128,-1,55
 1763 12 1763 12 1745.5 13 c 0,56,57
 1710.5 15 1710.5 15 1681 15 c 256,58,59
 1603 15 1603 15 1570 10 c 0,60,61
 1411.32 -14.0426 1411.32 -14.0426 1375.5 15 c 0,62,63
 1357 30 1357 30 1357 46 c 0,64,65
 1357 73 1357 73 1390 73 c 1,66,-1
 1454 66 l 1,67,68
 1511.16 66 1511.16 66 1532 102 c 0,69,70
 1562.61 157.102 1562.61 157.102 1566.31 218.051 c 128,-1,71
 1570 279 1570 279 1570 321 c 2,72,-1
 1570 1242 l 1,73,-1
 1057 249 l 2,74,75
 1029.24 196 1029.24 196 1001 196 c 0,76,77
 987 196 987 196 975 212.5 c 128,-1,78
 963 229 963 229 938 268 c 2,79,-1
 417 1064 l 1,80,-1
 417 321 l 2,81,82
 417 196.533 417 196.533 431 158.267 c 128,-1,83
 445 120 445 120 455.5 101.5 c 0,84,85
 475.649 66 475.649 66 533 66 c 1,86,-1
 597 73 l 1,87,88
 630 73 630 73 630 46 c 0,89,90
 630 30 630 30 611.5 15 c 128,-1,91
 593 0 593 0 542 0 c 1,0,-1
EndSplineSet
EndChar

StartChar: w
Encoding: 119 119 49
Width: 2047
Flags: HW
LayerCount: 2
Fore
SplineSet
2034 936 m 257,0,-1
 1978 943 l 1,1,2
 1935.75 943 1935.75 943 1901.87 898.5 c 0,3,4
 1844.43 823.041 1844.43 823.041 1743 624 c 2,5,-1
 1436 19 l 2,6,7
 1409.5 -34 1409.5 -34 1382 -34 c 0,8,9
 1365 -34 1365 -34 1352.5 -23 c 128,-1,10
 1340 -12 1340 -12 1324 20 c 2,11,-1
 1028 608 l 1,12,-1
 751 19 l 2,13,14
 726 -34 726 -34 696 -34 c 128,-1,15
 666 -34 666 -34 638 20 c 1,16,17
 227.922 776.486 227.922 776.486 198.461 826.743 c 128,-1,18
 169 877 169 877 149.5 901.5 c 0,19,20
 116.469 943 116.469 943 83 943 c 1,21,-1
 27 936 l 1,22,23
 -5 936 -5 936 -5 958.5 c 0,24,25
 -5 1009 -5 1009 87 1009 c 0,26,27
 142 1009 142 1009 198 1001 c 128,-1,28
 254 993 254 993 282 993 c 1,29,-1
 486 1009 l 1,30,31
 557.824 1009 557.824 1009 574.5 977.5 c 0,32,33
 579 969 579 969 579 961 c 0,34,35
 579 936 579 936 547 936 c 1,36,37
 471 945 l 1,38,39
 445 945 445 945 437.5 936 c 128,-1,40
 430 927 430 927 430 910.5 c 0,41,42
 430 864.385 430 864.385 476 783 c 2,43,-1
 721 339 l 2,44,45
 735 314 735 314 741 304.5 c 128,-1,46
 747 295 747 295 756 295 c 0,47,48
 773.276 295 773.276 295 795 340 c 1,49,-1
 970 724 l 1,50,51
 901.973 858.11 901.973 858.11 873.987 892.555 c 128,-1,52
 846 927 846 927 830 935 c 128,-1,53
 814 943 814 943 797 943 c 1,54,-1
 741 936 l 1,55,56
 709 936 709 936 709 958.5 c 0,57,58
 709 1009 709 1009 802 1009 c 0,59,60
 846.714 1009 846.714 1009 903.857 1001 c 128,-1,61
 961 993 961 993 982.5 993 c 128,-1,62
 1004 993 1004 993 1016.5 993.5 c 128,-1,63
 1029 994 1029 994 1041.5 995.5 c 128,-1,64
 1054 997 1054 997 1068 998.5 c 128,-1,65
 1082 1000 1082 1000 1109 1003 c 0,66,67
 1163 1009 1163 1009 1211 1009 c 128,-1,68
 1259 1009 1259 1009 1277 1004.5 c 128,-1,69
 1295 1000 1295 1000 1306 993 c 0,70,71
 1326 980.273 1326 980.273 1326 961 c 0,72,73
 1326 936 1326 936 1294 936 c 1,74,-1
 1217 945 l 1,75,76
 1152 945 1152 945 1152 890 c 0,77,78
 1152 857 1152 857 1189 783 c 2,79,-1
 1405 339 l 2,80,81
 1427 295 1427 295 1442 295 c 0,82,83
 1458.28 295 1458.28 295 1480 340 c 2,84,-1
 1648 674 l 2,85,86
 1721 818.262 1721 818.262 1721 891 c 0,87,88
 1721 945 1721 945 1646 945 c 1,89,-1
 1555 936 l 1,90,91
 1523 936 1523 936 1523 958.5 c 0,92,93
 1523 1009 1523 1009 1614 1009 c 1,94,-1
 1829 993 l 1,95,96
 1862 993 1862 993 1894 999.5 c 0,97,98
 1940.77 1009 1940.77 1009 1979.38 1009 c 128,-1,99
 2018 1009 2018 1009 2042 996 c 128,-1,100
 2066 983 2066 983 2066 959.5 c 128,-1,101
 2066 936 2066 936 2034 936 c 257,0,-1
EndSplineSet
EndChar

StartChar: x
Encoding: 120 120 50
Width: 1364
Flags: HW
LayerCount: 2
Fore
SplineSet
248 16 m 1,0,-1
 86 0 l 1,1,2
 45 0 45 0 24.5 14 c 128,-1,3
 4 28 4 28 4 50.5 c 128,-1,4
 4 73 4 73 37 73 c 1,5,-1
 92 66 l 1,6,7
 126.333 66 126.333 66 155.667 86 c 0,8,9
 212 124.409 212 124.409 291 207 c 2,10,-1
 556 480 l 1,11,-1
 249 833 l 1,12,13
 171.784 924.005 171.784 924.005 127 938 c 0,14,15
 111 943 111 943 94 943 c 1,16,-1
 38 936 l 257,17,18
 5 936 5 936 5 958.5 c 0,19,20
 5 1009 5 1009 97 1009 c 0,21,22
 153.714 1009 153.714 1009 210.857 1001 c 128,-1,23
 268 993 268 993 298.5 993 c 0,24,25
 354 993 354 993 413 999.5 c 0,26,27
 499.231 1009 499.231 1009 580.615 1009 c 128,-1,28
 662 1009 662 1009 662 961 c 0,29,30
 662 936 662 936 630 936 c 1,31,-1
 554 945 l 1,32,33
 499 945 499 945 499 913 c 0,34,35
 499 884.032 499 884.032 555 819 c 2,36,-1
 742 603 l 1,37,-1
 870 733 l 2,38,39
 973.085 838.798 973.085 838.798 984 877 c 0,40,41
 988 891 988 891 988 905.5 c 128,-1,42
 988 920 988 920 977.5 932.5 c 128,-1,43
 967 945 967 945 949 945 c 128,-1,44
 931 945 931 945 920.5 943.5 c 2,45,-1
 897 940 l 1,46,47
 879 936 879 936 860.5 936 c 128,-1,48
 842 936 842 936 834.5 944.5 c 128,-1,49
 827 953 827 953 827 961 c 0,50,51
 827 1009 827 1009 932 1009 c 1,52,-1
 1116 993 l 1,53,-1
 1278 1009 l 1,54,55
 1319 1009 1319 1009 1339.5 995 c 128,-1,56
 1360 981 1360 981 1360 958.5 c 128,-1,57
 1360 936 1360 936 1327 936 c 1,58,-1
 1272 943 l 1,59,60
 1237.67 943 1237.67 943 1208.33 923 c 0,61,62
 1152 884.591 1152 884.591 1073 802 c 2,63,-1
 808 528 l 1,64,-1
 1116 175 l 1,65,66
 1193.22 83.9948 1193.22 83.9948 1238 70 c 0,67,68
 1254 65 1254 65 1271 65 c 1,69,-1
 1327 72 l 257,70,71
 1360 72 1360 72 1360 49.5 c 0,72,73
 1360 -1 1360 -1 1268 -1 c 0,74,75
 1211.29 -1 1211.29 -1 1154.14 7 c 128,-1,76
 1097 15 1097 15 1066.5 15 c 0,77,78
 1011 15 1011 15 952 8.5 c 0,79,80
 865.769 -1 865.769 -1 784.385 -1 c 128,-1,81
 703 -1 703 -1 703 47 c 0,82,83
 703 72 703 72 735 72 c 1,84,-1
 811 63 l 1,85,86
 866 63 866 63 866 95 c 0,87,88
 866 123.968 866 123.968 810 189 c 2,89,-1
 621 405 l 1,90,-1
 494 276 l 2,91,92
 390.915 170.202 390.915 170.202 380 132 c 0,93,94
 376 118 376 118 376 103.5 c 128,-1,95
 376 89 376 89 386.5 76.5 c 128,-1,96
 397 64 397 64 415 64 c 128,-1,97
 433 64 433 64 443.5 65.5 c 2,98,-1
 467 69 l 1,99,100
 485 73 485 73 503.5 73 c 128,-1,101
 522 73 522 73 529.5 64.5 c 128,-1,102
 537 56 537 56 537 48 c 0,103,104
 537 0 537 0 432 0 c 1,105,-1
 248 16 l 1,0,-1
EndSplineSet
EndChar

StartChar: y
Encoding: 121 121 51
Width: 1366
Flags: HW
LayerCount: 2
Fore
SplineSet
1316 936 m 1,0,-1
 1260 944 l 1,1,2
 1201.39 944 1201.39 944 1154.5 887 c 0,3,4
 1107.21 829.506 1107.21 829.506 1045 677 c 2,5,-1
 713 -137 l 1,6,7
 567.668 -438.233 567.668 -438.233 429 -488.5 c 0,8,9
 389 -503 389 -503 344 -503 c 128,-1,10
 299 -503 299 -503 256 -489.5 c 128,-1,11
 213 -476 213 -476 183 -453 c 0,12,13
 122 -406.233 122 -406.233 122 -336 c 0,14,15
 122 -304 122 -304 140.5 -283 c 128,-1,16
 159 -262 159 -262 186 -262 c 128,-1,17
 213 -262 213 -262 230.5 -277.5 c 128,-1,18
 248 -293 248 -293 264 -321 c 128,-1,19
 280 -349 280 -349 290.5 -362.5 c 128,-1,20
 301 -376 301 -376 313 -384.5 c 0,21,22
 334.882 -400 334.882 -400 367.941 -400 c 128,-1,23
 401 -400 401 -400 425 -390 c 128,-1,24
 449 -380 449 -380 478 -344.5 c 0,25,26
 539.006 -269.82 539.006 -269.82 638 -59 c 1,27,-1
 639 -55 l 1,28,-1
 264 721 l 2,29,30
 173.485 907.354 173.485 907.354 116 934.5 c 0,31,32
 98 943 98 943 81 943 c 1,33,-1
 25 936 l 1,34,35
 -7 936 -7 936 -7 958.5 c 0,36,37
 -7 1009 -7 1009 85 1009 c 1,38,-1
 281 993 l 1,39,-1
 547 1009 l 1,40,41
 618.824 1009 618.824 1009 635.5 977.5 c 0,42,43
 640 969 640 969 640 961 c 0,44,45
 640 936 640 936 608 936 c 1,46,-1
 532 945 l 1,47,48
 460 945 460 945 460 890 c 0,49,50
 460 864.75 460 864.75 479.5 820.875 c 2,51,-1
 744 208 l 1,52,-1
 972 780.5 l 1,53,54
 1003 861.875 1003 861.875 1003 900 c 0,55,56
 1003 945 1003 945 940 945 c 1,57,-1
 858 936 l 1,58,59
 826 936 826 936 826 958.5 c 0,60,61
 826 1009 826 1009 917 1009 c 0,62,63
 943 1009 943 1009 968 1006 c 2,64,-1
 1019 1000 l 2,65,66
 1075 993 1075 993 1111.5 993 c 128,-1,67
 1148 993 1148 993 1184.5 1001 c 128,-1,68
 1221 1009 1221 1009 1263 1009 c 256,69,70
 1305 1009 1305 1009 1326.5 995 c 128,-1,71
 1348 981 1348 981 1348 958.5 c 128,-1,72
 1348 936 1348 936 1316 936 c 1,0,-1
EndSplineSet
EndChar

StartChar: z
Encoding: 122 122 52
Width: 1194
Flags: HW
LayerCount: 2
Fore
SplineSet
121 0 m 2,0,1
 56 0 56 0 56 38 c 0,2,3
 56 53.7895 56 53.7895 73.5 75.8947 c 2,4,-1
 784 919 l 1,5,-1
 509 919 l 2,6,7
 420.853 919 420.853 919 375.926 895.5 c 0,8,9
 299.323 855.43 299.323 855.43 236 771 c 0,10,11
 161.75 672 161.75 672 135.875 672 c 128,-1,12
 110 672 110 672 110 696 c 0,13,14
 110 707.2 110 707.2 128.5 760.1 c 0,15,16
 167 870.189 167 870.189 167 1006 c 0,17,18
 167 1050 167 1050 198 1050 c 0,19,20
 208.222 1050 208.222 1050 234.611 1036 c 0,21,22
 285.504 1009 285.504 1009 299 1009 c 2,23,-1
 1029 1009 l 2,24,25
 1070 1009 1070 1009 1084.5 1002.5 c 128,-1,26
 1099 996 1099 996 1099 982 c 0,27,28
 1099 959.526 1099 959.526 1068 922 c 2,29,-1
 375 91 l 1,30,-1
 699 91 l 2,31,32
 826.211 91 826.211 91 906.5 147.5 c 0,33,34
 947 176 947 176 985 218.5 c 2,35,-1
 1072 318 l 2,36,37
 1103.71 355 1103.71 355 1119 355 c 0,38,39
 1142 355 1142 355 1142 329 c 0,40,41
 1142 303.5 1142 303.5 1120 257.25 c 128,-1,42
 1098 211 1098 211 1086 183.5 c 128,-1,43
 1074 156 1074 156 1064 128.5 c 0,44,45
 1045.66 78.0721 1045.66 78.0721 1032 0 c 1,46,-1
 121 0 l 2,0,1
EndSplineSet
EndChar

StartChar: ampersand
Encoding: 38 38 53
Width: 1803
Flags: HW
LayerCount: 2
Fore
SplineSet
1123 204 m 1,0,1
 903.54 -19 903.54 -19 626 -19 c 0,2,3
 400.362 -19 400.362 -19 262 94.5 c 0,4,5
 130 202.781 130 202.781 130 368 c 0,6,7
 130 515.711 130 515.711 216 617 c 0,8,9
 303.568 720.136 303.568 720.136 509 811 c 1,10,11
 346.045 987.765 346.045 987.765 320.5 1121.5 c 0,12,13
 312 1166 312 1166 312 1223 c 128,-1,14
 312 1280 312 1280 340 1343 c 128,-1,15
 368 1406 368 1406 423.5 1454.5 c 0,16,17
 545.371 1561 545.371 1561 759 1561 c 0,18,19
 945.136 1561 945.136 1561 1051 1473.5 c 0,20,21
 1149 1392.5 1149 1392.5 1149 1261 c 0,22,23
 1149 989.114 1149 989.114 785 834 c 1,24,25
 861 753 861 753 963 657 c 2,26,-1
 1194 439 l 1,27,28
 1358 672.7 1358 672.7 1358 820 c 0,29,30
 1358 874 1358 874 1287 874 c 0,31,32
 1259.5 874 1259.5 874 1249.75 870.5 c 0,33,34
 1234.43 865 1234.43 865 1221 865 c 0,35,36
 1188 865 1188 865 1188 893 c 0,37,38
 1188 910 1188 910 1210 923.5 c 128,-1,39
 1232 937 1232 937 1286 937 c 1,40,-1
 1479 923 l 1,41,42
 1513.33 923 1513.33 923 1542.67 928 c 0,43,44
 1595.47 937 1595.47 937 1626.73 937 c 128,-1,45
 1658 937 1658 937 1678 923.5 c 128,-1,46
 1698 910 1698 910 1698 892 c 0,47,48
 1698 864 1698 864 1666 864 c 1,49,-1
 1617 871 l 1,50,51
 1534.19 871 1534.19 871 1476.1 750 c 0,52,53
 1365.82 520.314 1365.82 520.314 1263 374 c 1,54,-1
 1546 99 l 2,55,56
 1579 66 1579 66 1640 66 c 1,57,-1
 1690 74 l 1,58,59
 1723 74 1723 74 1723 49 c 0,60,61
 1723 -3 1723 -3 1620 -3 c 1,62,-1
 1479 5 l 2,63,64
 1467 5 1467 5 1453 4 c 128,-1,65
 1439 3 1439 3 1425.5 2 c 0,66,67
 1372.31 -1.94029 1372.31 -1.94029 1356.15 3.02985 c 128,-1,68
 1340 8 1340 8 1323.5 19 c 0,69,70
 1288.6 42.2667 1288.6 42.2667 1227 102 c 2,71,-1
 1123 204 l 1,0,1
724 903 m 1,72,73
 833.728 963.174 833.728 963.174 889 1060.5 c 0,74,75
 930 1132.7 930 1132.7 930 1202.85 c 128,-1,76
 930 1273 930 1273 910 1327.5 c 128,-1,77
 890 1382 890 1382 859.5 1417.5 c 0,78,79
 800.648 1486 800.648 1486 719 1486 c 0,80,81
 630.549 1486 630.549 1486 576 1432.5 c 0,82,83
 522 1379.54 522 1379.54 522 1293 c 256,84,85
 522 1204.64 522 1204.64 552 1145.32 c 0,86,87
 602.191 1046.08 602.191 1046.08 724 903 c 1,72,73
683 81 m 0,88,89
 858.558 81 858.558 81 1054 272 c 1,90,-1
 571 746 l 1,91,92
 467.421 684.216 467.421 684.216 414.5 579.5 c 0,93,94
 372 495.404 372 495.404 372 409.702 c 0,95,96
 372 252.575 372 252.575 454.687 166.788 c 128,-1,97
 537.373 81 537.373 81 683 81 c 0,88,89
EndSplineSet
EndChar

StartChar: zero
Encoding: 48 48 54
Width: 1529
Flags: HW
LayerCount: 2
Fore
SplineSet
140 786 m 0,0,1
 140 930 140 930 183 1077.5 c 128,-1,2
 226 1225 226 1225 308 1332.5 c 0,3,4
 482.298 1561 482.298 1561 776 1561 c 0,5,6
 1061.63 1561 1061.63 1561 1231 1333 c 0,7,8
 1389 1120.31 1389 1120.31 1389 818 c 0,9,10
 1389 413.795 1389 413.795 1208 187 c 0,11,12
 1042.8 -20 1042.8 -20 780 -20 c 0,13,14
 520.555 -20 520.555 -20 332.5 196.5 c 0,15,16
 140 418.118 140 418.118 140 786 c 0,0,1
667.5 150 m 128,-1,18
 752 93 752 93 827 93 c 128,-1,19
 902 93 902 93 957 124 c 128,-1,20
 1012 155 1012 155 1055 223.5 c 0,21,22
 1150 374.837 1150 374.837 1150 667 c 0,23,24
 1150 1016 1150 1016 1026.5 1234.5 c 0,25,26
 903.565 1452 903.565 1452 712 1452 c 0,27,28
 562.368 1452 562.368 1452 470 1315.5 c 0,29,30
 375 1175.11 375 1175.11 375 954.056 c 128,-1,31
 375 733 375 733 414 578 c 128,-1,32
 453 423 453 423 518 315 c 128,-1,17
 583 207 583 207 667.5 150 c 128,-1,18
EndSplineSet
EndChar

StartChar: one
Encoding: 49 49 55
Width: 930
Flags: HW
LayerCount: 2
Fore
SplineSet
794 73 m 1,0,1
 827 73 827 73 827 46 c 0,2,3
 827 30 827 30 808.5 15 c 128,-1,4
 790 0 790 0 750 0 c 0,5,6
 692 0 692 0 654.5 4.5 c 128,-1,7
 617 9 617 9 601 10.5 c 128,-1,8
 585 12 585 12 567.5 13 c 0,9,10
 532.5 15 532.5 15 503 15 c 256,11,12
 425 15 425 15 396.5 10.5 c 128,-1,13
 368 6 368 6 352 4.5 c 128,-1,14
 336 3 336 3 317.5 2 c 0,15,16
 202.597 -4.21096 202.597 -4.21096 175.799 12.8945 c 128,-1,17
 149 30 149 30 149 44 c 0,18,19
 149 76 149 76 182 76 c 1,20,-1
 276 66 l 1,21,22
 333.158 66 333.158 66 354 102 c 0,23,24
 384.612 157.102 384.612 157.102 388.306 218.051 c 128,-1,25
 392 279 392 279 392 321 c 2,26,-1
 392 1058 l 2,27,28
 392 1185 392 1185 371 1244 c 128,-1,29
 350 1303 350 1303 295 1303 c 1,30,-1
 158 1289 l 1,31,32
 130 1289 130 1289 130 1314 c 0,33,34
 130 1332.24 130 1332.24 159.5 1346.12 c 128,-1,35
 189 1360 189 1360 224 1372.5 c 128,-1,36
 259 1385 259 1385 303 1402.5 c 128,-1,37
 347 1420 347 1420 389 1439.5 c 0,38,39
 483.198 1483.23 483.198 1483.23 525.099 1513.62 c 0,40,41
 590.445 1561 590.445 1561 608.722 1561 c 128,-1,42
 627 1561 627 1561 627 1533.5 c 128,-1,43
 627 1506 627 1506 624 1481.5 c 128,-1,44
 621 1457 621 1457 619 1423 c 0,45,46
 614 1338 614 1338 614 1238 c 2,47,-1
 614 321 l 2,48,49
 614 196.533 614 196.533 628 158.267 c 128,-1,50
 642 120 642 120 652.5 101.5 c 0,51,52
 672.649 66.0001 672.649 66.0001 730 66 c 1,53,-1
 794 73 l 1,0,1
EndSplineSet
EndChar

StartChar: two
Encoding: 50 50 56
Width: 1380
Flags: HW
LayerCount: 2
Fore
SplineSet
1218 300.214 m 128,-1,1
 1196 252 1196 252 1183 221 c 128,-1,2
 1170 190 1170 190 1159 157.5 c 0,3,4
 1141.12 104.688 1141.12 104.688 1116 0 c 1,5,-1
 201 0 l 2,6,7
 184 0 184 0 172 10 c 128,-1,8
 160 20 160 20 160 57 c 128,-1,9
 160 94 160 94 179 156 c 128,-1,10
 198 218 198 218 249 294.5 c 0,11,12
 350.782 447.173 350.782 447.173 624 686 c 0,13,14
 806.125 845.615 806.125 845.615 874 951 c 0,15,16
 946 1062.79 946 1062.79 946 1196 c 0,17,18
 946 1313.78 946 1313.78 869 1383.5 c 0,19,20
 791.134 1454 791.134 1454 661 1454 c 0,21,22
 525.814 1454 525.814 1454 420 1363 c 0,23,24
 313.949 1271.8 313.949 1271.8 278 1128 c 0,25,26
 274 1110 274 1110 262 1091.5 c 128,-1,27
 250 1073 250 1073 237 1073 c 0,28,29
 204 1073 204 1073 204 1116 c 2,30,-1
 204 1392 l 1,31,32
 314.437 1482.36 314.437 1482.36 401.719 1512.18 c 0,33,34
 544.61 1561 544.61 1561 682.305 1561 c 128,-1,35
 820 1561 820 1561 912.5 1536 c 128,-1,36
 1005 1511 1005 1511 1070.5 1464 c 0,37,38
 1206 1366.77 1206 1366.77 1206 1196 c 0,39,40
 1206 1060.85 1206 1060.85 1109 934 c 0,41,42
 1007.65 801.469 1007.65 801.469 765 618 c 0,43,44
 415.33 352.385 415.33 352.385 335 187 c 1,45,-1
 721 187 l 2,46,47
 1015.51 187 1015.51 187 1174 358 c 0,48,49
 1203.7 391 1203.7 391 1221.85 391 c 128,-1,50
 1240 391 1240 391 1240 369.714 c 128,-1,0
 1240 348.429 1240 348.429 1218 300.214 c 128,-1,1
EndSplineSet
EndChar

StartChar: three
Encoding: 51 51 57
Width: 1355
Flags: HW
LayerCount: 2
Fore
SplineSet
657 -24 m 0,0,1
 382.74 -24 382.74 -24 190 110 c 1,2,-1
 190 407 l 2,3,4
 190 450 190 450 213 450 c 0,5,6
 236.621 450 236.621 450 252.31 383.5 c 128,-1,7
 268 317 268 317 310 258.5 c 128,-1,8
 352 200 352 200 408 161 c 0,9,10
 518.564 84 518.564 84 664 84 c 0,11,12
 797.395 84 797.395 84 896.5 168.5 c 0,13,14
 1002 258.453 1002 258.453 1002 398 c 0,15,16
 1002 555.664 1002 555.664 876.5 674.5 c 0,17,18
 755.579 789 755.579 789 607 789 c 0,19,20
 572 789 572 789 554.5 783 c 0,21,22
 516.583 770 516.583 770 498 770 c 0,23,24
 463 770 463 770 463 798 c 0,25,26
 463 837.03 463 837.03 585 874 c 1,27,28
 757 924 757 924 836.5 1002.5 c 128,-1,29
 916 1081 916 1081 916 1198 c 0,30,31
 916 1311.91 916 1311.91 834.5 1386 c 128,-1,32
 753.1 1460 753.1 1460 625 1460 c 0,33,34
 425.093 1460 425.093 1460 325 1302.5 c 0,35,36
 291 1249 291 1249 278 1196 c 128,-1,37
 265 1143 265 1143 257 1132.5 c 128,-1,38
 249 1122 249 1122 238 1122 c 0,39,40
 215 1122 215 1122 215 1165 c 2,41,-1
 215 1428 l 1,42,43
 414.5 1561 414.5 1561 667 1561 c 0,44,45
 885.412 1561 885.412 1561 1011 1473.5 c 0,46,47
 1138 1385.02 1138 1385.02 1138 1229 c 0,48,49
 1138 1130.84 1138 1130.84 1053.5 1033.5 c 0,50,51
 970.144 937.483 970.144 937.483 841 883 c 1,52,53
 1000.97 858.07 1000.97 858.07 1105 752 c 0,54,55
 1215 639.843 1215 639.843 1215 473 c 0,56,57
 1215 332.212 1215 332.212 1128 211.5 c 0,58,59
 1050.73 104.286 1050.73 104.286 917 38.5 c 0,60,61
 789.951 -24 789.951 -24 657 -24 c 0,0,1
EndSplineSet
EndChar

StartChar: four
Encoding: 52 52 58
Width: 1445
Flags: HW
LayerCount: 2
Fore
SplineSet
556 76 m 1,0,-1
 650 66 l 1,1,2
 707.158 66 707.158 66 728 102 c 0,3,4
 758.612 157.102 758.612 157.102 762.306 218.051 c 128,-1,5
 766 279 766 279 766 321 c 2,6,-1
 766 462 l 1,7,-1
 166 462 l 2,8,9
 80 462 80 462 80 499 c 0,10,11
 80 526.448 80 526.448 131 588 c 2,12,-1
 885 1507 l 2,13,14
 937.5 1570 937.5 1570 959 1570 c 0,15,16
 988 1570 988 1570 988 1508 c 2,17,-1
 988 591 l 1,18,-1
 1130 591 l 2,19,20
 1235.19 591 1235.19 591 1299 624.5 c 0,21,22
 1319 635 1319 635 1336 645.5 c 0,23,24
 1364.33 663 1364.33 663 1375 663 c 256,25,26
 1395 663 1395 663 1395 643 c 0,27,28
 1395 632.273 1395 632.273 1373.5 599.136 c 0,29,30
 1325.11 524.559 1325.11 524.559 1306 429 c 0,31,32
 1297.67 389 1297.67 389 1283 389 c 0,33,34
 1272.6 389 1272.6 389 1261.3 402.5 c 128,-1,35
 1250 416 1250 416 1232 426 c 128,-1,36
 1214 436 1214 436 1183.5 444 c 0,37,38
 1114.88 462 1114.88 462 999 462 c 2,39,-1
 988 462 l 1,40,-1
 988 321 l 2,41,42
 988 196.533 988 196.533 1002 158.267 c 128,-1,43
 1016 120 1016 120 1026.5 101.5 c 0,44,45
 1046.65 65.9999 1046.65 65.9999 1104 66 c 1,46,-1
 1168 73 l 1,47,48
 1201 73 1201 73 1201 46 c 0,49,50
 1201 30 1201 30 1182.5 15 c 128,-1,51
 1164 0 1164 0 1124 0 c 0,52,53
 1066 0 1066 0 1028.5 4.5 c 128,-1,54
 991 9 991 9 975 10.5 c 128,-1,55
 959 12 959 12 941.5 13 c 0,56,57
 906.5 15 906.5 15 877 15 c 256,58,59
 799 15 799 15 770.5 10.5 c 128,-1,60
 742 6 742 6 726 4.5 c 128,-1,61
 710 3 710 3 691.5 2 c 0,62,63
 576.597 -4.21096 576.597 -4.21096 549.799 12.8945 c 128,-1,64
 523 30 523 30 523 44 c 0,65,66
 523 76 523 76 556 76 c 1,0,-1
331 591 m 2,67,-1
 766 591 l 1,68,-1
 766 1209 l 1,69,-1
 315 656 l 2,70,71
 286 621.882 286 621.882 286 606.441 c 128,-1,72
 286 591 286 591 331 591 c 2,67,-1
EndSplineSet
EndChar

StartChar: five
Encoding: 53 53 59
Width: 1364
Flags: HW
LayerCount: 2
Fore
SplineSet
338 967 m 1,0,1
 465.875 1033 465.875 1033 629.938 1033 c 128,-1,2
 794 1033 794 1033 899 991.5 c 128,-1,3
 1004 950 1004 950 1076 878.5 c 0,4,5
 1224 731.528 1224 731.528 1224 504 c 0,6,7
 1224 255.915 1224 255.915 1027 109 c 0,8,9
 848.659 -24 848.659 -24 617 -24 c 0,10,11
 440.66 -24 440.66 -24 267.5 50 c 0,12,13
 209 75 209 75 160 110 c 1,14,-1
 160 407 l 2,15,16
 160 450 160 450 183 450 c 0,17,18
 201.393 450 201.393 450 225.696 388 c 128,-1,19
 250 326 250 326 293 269 c 128,-1,20
 336 212 336 212 393 171 c 0,21,22
 513.951 84 513.951 84 670 84 c 0,23,24
 885.348 84 885.348 84 970 270.5 c 0,25,26
 1002 341 1002 341 1002 444.5 c 128,-1,27
 1002 548 1002 548 969 635.5 c 128,-1,28
 936 723 936 723 879 788 c 0,29,30
 755.354 929 755.354 929 579 929 c 0,31,32
 425.755 929 425.755 929 323 834 c 0,33,34
 286.571 800 286.571 800 273 800 c 0,35,36
 245 800 245 800 245 841 c 2,37,-1
 245 1477 l 1,38,39
 249.5 1513 249.5 1513 286 1513 c 2,40,-1
 596 1513 l 2,41,42
 789.632 1513 789.632 1513 855.316 1526 c 0,43,44
 960.987 1546.91 960.987 1546.91 1014 1596 c 0,45,46
 1050.67 1629 1050.67 1629 1061 1629 c 0,47,48
 1081 1629 1081 1629 1081 1608 c 0,49,50
 1081 1589 1081 1589 1058.5 1531 c 0,51,52
 1012.05 1411.27 1012.05 1411.27 1001 1326 c 1,53,-1
 338 1326 l 1,54,-1
 338 967 l 1,0,1
EndSplineSet
EndChar

StartChar: six
Encoding: 54 54 60
Width: 1459
Flags: HW
LayerCount: 2
Fore
SplineSet
1223.5 1350 m 128,-1,1
 1232 1321 1232 1321 1232 1290 c 128,-1,2
 1232 1259 1232 1259 1205 1259 c 0,3,4
 1179.39 1259 1179.39 1259 1158 1300 c 0,5,6
 1073.33 1465 1073.33 1465 850 1465 c 0,7,8
 653.742 1465 653.742 1465 529 1283 c 0,9,10
 398.836 1093.09 398.836 1093.09 391 762 c 1,11,12
 475.717 941.209 475.717 941.209 680.5 1001 c 0,13,14
 749 1021 749 1021 841.5 1021 c 128,-1,15
 934 1021 934 1021 1024 987 c 128,-1,16
 1114 953 1114 953 1179.5 892 c 0,17,18
 1319 762.084 1319 762.084 1319 560 c 0,19,20
 1319 283.908 1319 283.908 1136.5 121.5 c 0,21,22
 973 -24 973 -24 768 -24 c 0,23,24
 489.808 -24 489.808 -24 326.5 184.5 c 0,25,26
 160 397.075 160 397.075 160 771 c 0,27,28
 160 1095.85 160 1095.85 356.5 1327.5 c 0,29,30
 482.062 1475.52 482.062 1475.52 656 1532.5 c 0,31,32
 743 1561 743 1561 828.5 1561 c 128,-1,33
 914 1561 914 1561 972.5 1548 c 128,-1,34
 1031 1535 1031 1535 1074.5 1513.5 c 128,-1,35
 1118 1492 1118 1492 1148 1464.5 c 128,-1,36
 1178 1437 1178 1437 1196.5 1408 c 128,-1,0
 1215 1379 1215 1379 1223.5 1350 c 128,-1,1
409 524 m 1,37,38
 449.75 320.25 449.75 320.25 567.5 202.5 c 0,39,40
 680 90 680 90 828 90 c 0,41,42
 947.767 90 947.767 90 1023.5 186 c 0,43,44
 1098 280.437 1098 280.437 1098 411.218 c 128,-1,45
 1098 542 1098 542 1067 633 c 128,-1,46
 1036 724 1036 724 986.5 785.5 c 0,47,48
 885.488 911 885.488 911 755 911 c 0,49,50
 622.17 911 622.17 911 530.5 808 c 0,51,52
 439.244 705.465 439.244 705.465 409 524 c 1,37,38
EndSplineSet
EndChar

StartChar: seven
Encoding: 55 55 61
Width: 1175
Flags: HW
LayerCount: 2
Fore
SplineSet
504 8 m 1,0,-1
 397 0 l 1,1,2
 377 0 377 0 367 10 c 128,-1,3
 357 20 357 20 363 44 c 128,-1,4
 369 68 369 68 395 135.5 c 128,-1,5
 421 203 421 203 461.5 296 c 1,6,-1
 556 504.5 l 1,7,-1
 674 752 l 1,8,-1
 810.5 1029 l 1,9,-1
 962 1326 l 1,10,-1
 384 1326 l 2,11,12
 238.194 1326 238.194 1326 123 1183 c 0,13,14
 105.308 1160 105.308 1160 87.6538 1160 c 128,-1,15
 70 1160 70 1160 70 1182.5 c 128,-1,16
 70 1205 70 1205 79.5 1237.5 c 128,-1,17
 89 1270 89 1270 103 1314 c 0,18,19
 139.24 1427.9 139.24 1427.9 150.62 1492.45 c 128,-1,20
 162 1557 162 1557 170.5 1566.5 c 128,-1,21
 179 1576 179 1576 188.5 1576 c 0,22,23
 205.261 1576 205.261 1576 223.13 1553.5 c 128,-1,24
 241 1531 241 1531 247.5 1526.5 c 128,-1,25
 254 1522 254 1522 266 1519 c 0,26,27
 290 1513 290 1513 347 1513 c 2,28,-1
 1087 1513 l 2,29,30
 1119 1513 1119 1513 1132 1510.5 c 128,-1,31
 1145 1508 1145 1508 1145 1496 c 128,-1,32
 1145 1484 1145 1484 1137 1467 c 2,33,-1
 1118 1425 l 1,34,35
 920.673 983.558 920.673 983.558 837.337 734.279 c 0,36,37
 699.163 320.969 699.163 320.969 651 34 c 1,38,39
 646.467 6.10352e-05 646.467 6.10352e-05 615 0 c 1,40,-1
 504 8 l 1,0,-1
EndSplineSet
EndChar

StartChar: eight
Encoding: 56 56 62
Width: 1468
Flags: HW
LayerCount: 2
Fore
SplineSet
1007 833 m 1,0,1
 1338 667.5 1338 667.5 1338 431 c 0,2,3
 1338 244.846 1338 244.846 1176 114 c 0,4,5
 1005.14 -24 1005.14 -24 740 -24 c 0,6,7
 431.936 -24 431.936 -24 269 115.5 c 0,8,9
 130 234.507 130 234.507 130 414 c 0,10,11
 130 555.452 130 555.452 230.5 670 c 0,12,13
 326.825 779.79 326.825 779.79 469 821 c 1,14,15
 218 972.724 218 972.724 218 1189 c 0,16,17
 218 1333.59 218 1333.59 353 1442 c 0,18,19
 501.189 1561 501.189 1561 738 1561 c 0,20,21
 971.141 1561 971.141 1561 1118 1452.5 c 0,22,23
 1255 1351.28 1255 1351.28 1255 1205 c 0,24,25
 1255 1026.14 1255 1026.14 1105.5 898 c 0,26,27
 1060 859 1060 859 1007 833 c 1,0,1
899 880 m 1,28,29
 1019.14 949.85 1019.14 949.85 1049.5 1094.5 c 0,30,31
 1058 1135 1058 1135 1058 1185 c 128,-1,32
 1058 1235 1058 1235 1032 1290 c 128,-1,33
 1006 1345 1006 1345 959 1385 c 0,34,35
 859.125 1470 859.125 1470 696 1470 c 0,36,37
 506.234 1470 506.234 1470 454.5 1341.5 c 0,38,39
 439 1303 439 1303 439 1266 c 128,-1,40
 439 1229 439 1229 455.5 1186 c 128,-1,41
 472 1143 472 1143 516.5 1095 c 0,42,43
 622.775 980.366 622.775 980.366 845 901 c 1,44,-1
 899 880 l 1,28,29
355 552.5 m 0,45,46
 336 498 336 498 336 428.5 c 128,-1,47
 336 359 336 359 370 292.5 c 128,-1,48
 404 226 404 226 464.5 176 c 0,49,50
 597.6 66 597.6 66 793 66 c 0,51,52
 932.761 66 932.761 66 1023 140.5 c 0,53,54
 1114 215.628 1114 215.628 1114 338 c 0,55,56
 1114 514.976 1114 514.976 820.5 655.5 c 0,57,58
 738 695 738 695 686 716.5 c 128,-1,59
 634 738 634 738 615 746.5 c 2,60,-1
 579 763 l 1,61,62
 411.177 713.64 411.177 713.64 355 552.5 c 0,45,46
EndSplineSet
EndChar

StartChar: nine
Encoding: 57 57 63
Width: 1445
Flags: HW
LayerCount: 2
Fore
SplineSet
208 240 m 0,0,1
 208 278 208 278 236 278 c 128,-1,2
 264.174 278 264.174 278 281.087 238.5 c 128,-1,3
 298 199 298 199 330 168.5 c 128,-1,4
 362 138 362 138 405.5 116.5 c 0,5,6
 495.535 72 495.535 72 598.267 72 c 128,-1,7
 701 72 701 72 778.5 112 c 128,-1,8
 856 152 856 152 914.5 234.5 c 0,9,10
 1041.36 413.409 1041.36 413.409 1049 738 c 1,11,12
 943.941 583.694 943.941 583.694 763 537 c 0,13,14
 701 521 701 521 617 521 c 128,-1,15
 533 521 533 521 443.5 558.5 c 128,-1,16
 354 596 354 596 286.5 664 c 0,17,18
 140 811.585 140 811.585 140 1035 c 0,19,20
 140 1273.14 140 1273.14 302 1422 c 0,21,22
 454.353 1562 454.353 1562 675 1562 c 0,23,24
 956.67 1562 956.67 1562 1122 1359 c 0,25,26
 1285 1158.86 1285 1158.86 1285 825 c 0,27,28
 1285 451.717 1285 451.717 1106.5 217.5 c 0,29,30
 922.449 -24 922.449 -24 617 -24 c 0,31,32
 422.901 -24 422.901 -24 305 71.5 c 0,33,34
 208 150.07 208 150.07 208 240 c 0,0,1
606.5 684.5 m 128,-1,36
 669 651 669 651 729.5 651 c 128,-1,37
 790 651 790 651 840 667 c 128,-1,38
 890 683 890 683 928 715 c 0,39,40
 998.902 774.707 998.902 774.707 1044 910 c 1,41,42
 1018.7 1166.91 1018.7 1166.91 905.5 1320 c 0,43,44
 797.542 1466 797.542 1466 650 1466 c 0,45,46
 447.089 1466 447.089 1466 387 1271.5 c 0,47,48
 368 1210 368 1210 368 1115.5 c 128,-1,49
 368 1021 368 1021 403 932 c 128,-1,50
 438 843 438 843 491 780.5 c 128,-1,35
 544 718 544 718 606.5 684.5 c 128,-1,36
EndSplineSet
EndChar

StartChar: period
Encoding: 46 46 64
Width: 512
Flags: HW
LayerCount: 2
Fore
SplineSet
101.5 79.5 m 128,-1,1
 92 107 92 107 92 136 c 128,-1,2
 92 165 92 165 104 195 c 128,-1,3
 116 225 116 225 138 248 c 0,4,5
 185.826 298 185.826 298 259 298 c 0,6,7
 335.327 298 335.327 298 379.5 242.5 c 0,8,9
 419 192.872 419 192.872 419 129 c 0,10,11
 419 72.5349 419 72.5349 374.5 27 c 0,12,13
 324.659 -24 324.659 -24 268.33 -24 c 128,-1,14
 212 -24 212 -24 181.5 -9 c 128,-1,15
 151 6 151 6 131 29 c 128,-1,0
 111 52 111 52 101.5 79.5 c 128,-1,1
EndSplineSet
EndChar

StartChar: bullet
Encoding: 8226 8226 66
Width: 689
Flags: HW
LayerCount: 2
Fore
SplineSet
340 420 m 0,0,1
 288 420 288 420 247.5 439 c 128,-1,2
 207 458 207 458 181 488 c 0,3,4
 130 546.846 130 546.846 130 626 c 0,5,6
 130 713.368 130 713.368 189.5 776 c 0,7,8
 252.2 842 252.2 842 348 842 c 0,9,10
 448.5 842 448.5 842 507 770 c 0,11,12
 559 706 559 706 559 622 c 0,13,14
 559 549.661 559 549.661 500 487.5 c 0,15,16
 435.932 420 435.932 420 340 420 c 0,0,1
EndSplineSet
EndChar

StartChar: comma
Encoding: 44 44 67
Width: 512
Flags: HW
LayerCount: 2
Fore
SplineSet
133.5 -392 m 0,0,1
 94 -392 94 -392 94 -353 c 0,2,3
 94 -323.889 94 -323.889 135 -305.444 c 128,-1,4
 176 -287 176 -287 203 -266 c 128,-1,5
 230 -245 230 -245 248 -222.5 c 0,6,7
 283.176 -178.529 283.176 -178.529 281.088 -145.265 c 128,-1,8
 279 -112 279 -112 265 -96.5 c 128,-1,9
 251 -81 251 -81 200 -65.5 c 0,10,11
 90 -32.0686 90 -32.0686 90 70 c 0,12,13
 90 166.327 90 166.327 176.5 202.5 c 0,14,15
 204 214 204 214 239 214 c 0,16,17
 324 214 324 214 372.5 154.5 c 128,-1,18
 421 95 421 95 421 -20 c 0,19,20
 421 -148.268 421 -148.268 328 -269.5 c 0,21,22
 234.027 -392 234.027 -392 133.5 -392 c 0,0,1
EndSplineSet
EndChar

StartChar: exclam
Encoding: 33 33 70
Width: 670
Flags: HW
LayerCount: 2
Fore
SplineSet
464 1561 m 1,0,1
 500 1561 500 1561 500 1527 c 0,2,3
 500 1504.5 500 1504.5 491 1456.75 c 128,-1,4
 482 1409 482 1409 474.5 1357 c 0,5,6
 450.42 1184.9 450.42 1184.9 438.71 1093.45 c 0,7,8
 400.129 779.88 400.129 779.88 388.065 655.94 c 128,-1,9
 376 532 376 532 367 499.5 c 128,-1,10
 358 467 358 467 335 467 c 256,11,12
 312 467 312 467 302.5 499.5 c 128,-1,13
 293 532 293 532 287 598 c 128,-1,14
 281 664 281 664 272 743 c 0,15,16
 245.035 977.667 245.035 977.667 234.518 1062.33 c 2,17,-1
 215 1216.5 l 2,18,19
 195.696 1365.57 195.696 1365.57 186.348 1414.79 c 0,20,21
 170 1500.85 170 1500.85 170 1527 c 0,22,23
 170 1561 170 1561 206 1561 c 1,24,-1
 336 1553 l 257,25,-1
 464 1561 l 1,0,1
203 65 m 128,-1,27
 195 89 195 89 195 114 c 128,-1,28
 195 139 195 139 205.5 164.5 c 128,-1,29
 216 190 216 190 235 209.5 c 0,30,31
 277.385 253 277.385 253 325.692 253 c 128,-1,32
 374 253 374 253 400 240 c 128,-1,33
 426 227 426 227 443 206 c 0,34,35
 477 164 477 164 477 121.5 c 128,-1,36
 477 79 477 79 465.5 54.5 c 128,-1,37
 454 30 454 30 434.5 12.5 c 0,38,39
 393.829 -24 393.829 -24 346.414 -24 c 128,-1,40
 299 -24 299 -24 272.5 -11 c 128,-1,41
 246 2 246 2 228.5 21.5 c 128,-1,26
 211 41 211 41 203 65 c 128,-1,27
EndSplineSet
EndChar

StartChar: question
Encoding: 63 63 72
Width: 1034
Flags: HW
LayerCount: 2
Fore
SplineSet
569 490 m 0,0,1
 569 443 569 443 505 443 c 0,2,3
 455.514 443 455.514 443 426.757 471 c 0,4,5
 374 522.368 374 522.368 374 592 c 0,6,7
 374 735.946 374 735.946 561 953 c 1,8,9
 700 1116.53 700 1116.53 700 1259 c 0,10,11
 700 1453 700 1453 483 1453 c 0,12,13
 386 1453 386 1453 312 1389.5 c 128,-1,14
 238 1326 238 1326 205 1197 c 0,15,16
 201 1179 201 1179 189 1160.5 c 128,-1,17
 177 1142 177 1142 163 1142 c 0,18,19
 130 1142 130 1142 130 1185 c 2,20,-1
 130 1461 l 1,21,22
 310 1561 310 1561 509 1561 c 0,23,24
 720.443 1561 720.443 1561 833 1475.5 c 0,25,26
 934 1398.78 934 1398.78 934 1270 c 0,27,28
 934 1103.16 934 1103.16 773.5 947 c 0,29,30
 718 893 718 893 637.5 827 c 0,31,32
 462 683.112 462 683.112 462 588 c 0,33,34
 462 568 462 568 478.5 554 c 128,-1,35
 495 540 495 540 517.5 536 c 128,-1,36
 540 532 540 532 554.5 523 c 128,-1,37
 569 514 569 514 569 490 c 0,0,1
356 65 m 128,-1,39
 348 89 348 89 348 114 c 128,-1,40
 348 139 348 139 358.5 164.5 c 128,-1,41
 369 190 369 190 388 209.5 c 0,42,43
 430.385 253 430.385 253 478.692 253 c 128,-1,44
 527 253 527 253 553 240 c 128,-1,45
 579 227 579 227 596 206 c 0,46,47
 630 164 630 164 630 121.5 c 128,-1,48
 630 79 630 79 618.5 54.5 c 128,-1,49
 607 30 607 30 587.5 12.5 c 0,50,51
 546.829 -24 546.829 -24 499.414 -24 c 128,-1,52
 452 -24 452 -24 425.5 -11 c 128,-1,53
 399 2 399 2 381.5 21.5 c 128,-1,38
 364 41 364 41 356 65 c 128,-1,39
EndSplineSet
EndChar

StartChar: quoteleft
Encoding: 8216 8216 74
Width: 512
Flags: HW
LayerCount: 2
Fore
SplineSet
272 955 m 0,0,1
 187 955 187 955 138.5 1014.5 c 128,-1,2
 90 1074 90 1074 90 1189 c 0,3,4
 90 1315.67 90 1315.67 182.5 1439 c 0,5,6
 274 1561 274 1561 369 1561 c 0,7,8
 418 1561 418 1561 418 1521 c 0,9,10
 418 1492.88 418 1492.88 376.5 1474.94 c 128,-1,11
 335 1457 335 1457 308 1435.5 c 128,-1,12
 281 1414 281 1414 263 1391.5 c 0,13,14
 225.698 1344.87 225.698 1344.87 228.849 1312.94 c 128,-1,15
 232 1281 232 1281 245.5 1266 c 128,-1,16
 259 1251 259 1251 311 1235.5 c 0,17,18
 421 1202.71 421 1202.71 421 1099 c 0,19,20
 421 1002.67 421 1002.67 334.5 966.5 c 0,21,22
 307 955 307 955 272 955 c 0,0,1
EndSplineSet
EndChar

StartChar: quotesingle
Encoding: 39 39 78
Width: 512
Flags: HW
LayerCount: 2
Fore
SplineSet
218 927 m 1,0,1
 209 985 209 985 199 1041.5 c 0,2,3
 174.912 1172.44 174.912 1172.44 164.456 1224.72 c 128,-1,4
 154 1277 154 1277 147 1314 c 0,5,6
 130 1403.86 130 1403.86 130 1434.43 c 128,-1,7
 130 1465 130 1465 140 1488.5 c 128,-1,8
 150 1512 150 1512 167.5 1528 c 0,9,10
 203.594 1561 203.594 1561 257.297 1561 c 128,-1,11
 311 1561 311 1561 346 1528 c 128,-1,12
 381 1495 381 1495 381 1450 c 0,13,14
 381 1382 381 1382 369 1331 c 0,15,16
 319.54 1115.06 319.54 1115.06 306.27 1052.03 c 2,17,-1
 280 927 l 1,18,-1
 218 927 l 1,0,1
EndSplineSet
EndChar

StartChar: germandbls
Encoding: 223 223 82
Width: 1390
Flags: HW
LayerCount: 2
Fore
SplineSet
135 0 m 0,0,1
 40 0 40 0 40 45 c 0,2,3
 40 73 40 73 73 73 c 1,4,-1
 122 66 l 1,5,6
 180.571 66 180.571 66 201 118 c 1,7,8
 229.23 194.004 229.23 194.004 231 348 c 1,9,-1
 231 1093 l 2,10,11
 231 1559.22 231 1559.22 495.5 1668.5 c 0,12,13
 579 1703 579 1703 680 1703 c 128,-1,14
 781 1703 781 1703 859.5 1673.5 c 128,-1,15
 938 1644 938 1644 993 1591.5 c 0,16,17
 1106 1483.64 1106 1483.64 1106 1313 c 0,18,19
 1106 1194.2 1106 1194.2 1023.5 1087.5 c 0,20,21
 948.639 990.68 948.639 990.68 832 941 c 1,22,23
 1042.58 910.627 1042.58 910.627 1180.5 768.5 c 0,24,25
 1321 623.71 1321 623.71 1321 439 c 0,26,27
 1321 227.156 1321 227.156 1205.5 100 c 0,28,29
 1092.87 -24 1092.87 -24 913 -24 c 0,30,31
 813.214 -24 813.214 -24 749 38 c 0,32,33
 689 95.931 689 95.931 689 175 c 0,34,35
 689 209 689 209 717 209 c 0,36,37
 737 209 737 209 755 166.5 c 128,-1,38
 773 124 773 124 816 95.5 c 128,-1,39
 859 67 859 67 905 67 c 128,-1,40
 951 67 951 67 984.5 89 c 128,-1,41
 1018 111 1018 111 1040.5 152 c 0,42,43
 1085 233.089 1085 233.089 1085 364.044 c 128,-1,44
 1085 495 1085 495 1057.5 581 c 128,-1,45
 1030 667 1030 667 979.5 726.5 c 0,46,47
 880.458 843.193 880.458 843.193 698 866 c 0,48,49
 650 872 650 872 625 878 c 128,-1,50
 600 884 600 884 600 904 c 128,-1,51
 600 924 600 924 613 930.5 c 128,-1,52
 626 937 626 937 659.5 946 c 128,-1,53
 693 955 693 955 733 976.5 c 128,-1,54
 773 998 773 998 804.5 1037 c 0,55,56
 875 1124.29 875 1124.29 875 1289.14 c 128,-1,57
 875 1454 875 1454 818 1538 c 128,-1,58
 761 1622 761 1622 656 1618 c 0,59,60
 513.189 1611.51 513.189 1611.51 471 1409 c 0,61,62
 456 1337 456 1337 456 1236 c 2,63,-1
 456 348 l 2,64,65
 456 161.8 456 161.8 466.5 121.9 c 128,-1,66
 477 82 477 82 489.5 74 c 128,-1,67
 502 66 502 66 522 66 c 1,68,-1
 571 73 l 1,69,70
 603 73 603 73 603 45 c 0,71,72
 603 0 603 0 504 0 c 1,73,-1
 341 15 l 1,74,75
 326 15 326 15 306.5 14 c 2,76,-1
 268.5 12 l 2,77,78
 233.913 10.1304 233.913 10.1304 212.957 7.06522 c 0,79,80
 164.652 2.58591e-07 164.652 2.58591e-07 135 0 c 0,0,1
EndSplineSet
EndChar

StartChar: guilsinglleft
Encoding: 8249 8249 84
Width: 692
Flags: HW
LayerCount: 2
Fore
SplineSet
87 508.5 m 128,-1,1
 80 514 80 514 80 523 c 256,2,3
 80 535.533 80 535.533 110.5 551.767 c 128,-1,4
 141 568 141 568 193 604 c 128,-1,5
 245 640 245 640 303 688 c 0,6,7
 440.034 801.407 440.034 801.407 520 905 c 1,8,-1
 541 933 l 2,9,10
 562.091 962 562.091 962 574 962 c 0,11,12
 592 962 592 962 592 934 c 128,-1,13
 592 906 592 906 574 859.5 c 128,-1,14
 556 813 556 813 524 756 c 0,15,16
 450.917 625.821 450.917 625.821 350 523 c 1,17,18
 450.917 420.179 450.917 420.179 524 290 c 0,19,20
 592 168.875 592 168.875 592 126.438 c 128,-1,21
 592 84 592 84 574 84 c 0,22,23
 562.091 84 562.091 84 547.545 104 c 2,24,-1
 520 141 l 1,25,26
 440.034 244.593 440.034 244.593 303 358 c 0,27,28
 188.583 452.69 188.583 452.69 141.292 477.845 c 128,-1,0
 94 503 94 503 87 508.5 c 128,-1,1
EndSplineSet
EndChar

StartChar: braceleft
Encoding: 123 123 85
Width: 808
Flags: HW
LayerCount: 2
Fore
SplineSet
652 -213 m 1,0,-1
 710 -205 l 1,1,2
 738 -205 738 -205 738 -226 c 0,3,4
 738 -257.6 738 -257.6 678.5 -269.5 c 0,5,6
 661 -273 661 -273 626 -273 c 128,-1,7
 591 -273 591 -273 543 -246.5 c 128,-1,8
 495 -220 495 -220 455 -164 c 0,9,10
 370 -45 370 -45 347 185 c 0,11,12
 315.179 503.205 315.179 503.205 285 591 c 0,13,14
 264.362 651.039 264.362 651.039 231.5 668 c 0,15,16
 216 676 216 676 192 682.5 c 0,17,18
 150 693.875 150 693.875 150 715 c 256,19,20
 150 736.034 150 736.034 183 745.017 c 128,-1,21
 216 754 216 754 231.5 762 c 128,-1,22
 247 770 247 770 260.5 788.5 c 128,-1,23
 274 807 274 807 285 839 c 128,-1,24
 296 871 296 871 306 924.5 c 0,25,26
 325.247 1027.47 325.247 1027.47 342.124 1196.24 c 128,-1,27
 359 1365 359 1365 387 1451.5 c 128,-1,28
 415 1538 415 1538 455 1594 c 0,29,30
 532.857 1703 532.857 1703 642 1703 c 0,31,32
 705.111 1703 705.111 1703 730 1675 c 0,33,34
 738 1666 738 1666 738 1656 c 0,35,36
 738 1635 738 1635 710 1635 c 1,37,-1
 652 1643 l 1,38,39
 608.277 1643 608.277 1643 591.5 1601.5 c 0,40,41
 573 1555.74 573 1555.74 573 1399.87 c 128,-1,42
 573 1244 573 1244 560 1116 c 128,-1,43
 547 988 547 988 522.5 904.5 c 0,44,45
 477.497 751.124 477.497 751.124 384 715 c 1,46,47
 477.873 676.598 477.873 676.598 522.5 524.5 c 0,48,49
 573 352.388 573 352.388 573 1 c 0,50,51
 573 -125.737 573 -125.737 587 -160.368 c 128,-1,52
 601 -195 601 -195 616 -204 c 128,-1,53
 631 -213 631 -213 652 -213 c 1,0,-1
EndSplineSet
EndChar

StartChar: hyphen
Encoding: 45 45 89
Width: 875
Flags: HW
LayerCount: 2
Fore
SplineSet
662 690 m 2,0,1
 735 690 735 690 735 622 c 0,2,3
 735 590 735 590 715.5 571.5 c 128,-1,4
 696 553 696 553 664 553 c 2,5,-1
 211 553 l 2,6,7
 179 553 179 553 159.5 571.5 c 128,-1,8
 140 590 140 590 140 622 c 0,9,10
 140 690 140 690 213 690 c 2,11,-1
 662 690 l 2,0,1
EndSplineSet
EndChar

StartChar: endash
Encoding: 8211 8211 90
Width: 1066
Flags: HW
LayerCount: 2
Fore
SplineSet
993 690 m 2,0,1
 1066 690 1066 690 1066 622 c 0,2,3
 1066 590 1066 590 1046.5 571.5 c 128,-1,4
 1027 553 1027 553 995 553 c 2,5,-1
 71 553 l 2,6,7
 39 553 39 553 19.5 571.5 c 128,-1,8
 0 590 0 590 0 622 c 0,9,10
 0 690 0 690 73 690 c 2,11,-1
 993 690 l 2,0,1
EndSplineSet
EndChar

StartChar: emdash
Encoding: 8212 8212 91
Width: 1647
Flags: HW
LayerCount: 2
Fore
SplineSet
1494 690 m 2,0,1
 1567 690 1567 690 1567 622 c 0,2,3
 1567 590 1567 590 1547.5 571.5 c 128,-1,4
 1528 553 1528 553 1496 553 c 2,5,-1
 151 553 l 2,6,7
 119 553 119 553 99.5 571.5 c 128,-1,8
 80 590 80 590 80 622 c 0,9,10
 80 690 80 690 153 690 c 2,11,-1
 1494 690 l 2,0,1
EndSplineSet
EndChar

StartChar: underscore
Encoding: 95 95 92
Width: 816
Flags: HW
LayerCount: 2
Fore
SplineSet
826 -183 m 1,0,-1
 826 -320 l 1,1,-1
 -10 -320 l 1,2,-1
 -10 -183 l 1,3,-1
 826 -183 l 1,0,-1
EndSplineSet
EndChar

StartChar: degree
Encoding: 176 176 93
Width: 814
Flags: HW
LayerCount: 2
Fore
SplineSet
406.5 1011 m 0,0,1
 345 1011 345 1011 294 1031 c 128,-1,2
 243 1051 243 1051 206.5 1087 c 0,3,4
 130 1162.45 130 1162.45 130 1286 c 0,5,6
 130 1401.94 130 1401.94 203 1479 c 0,7,8
 280.684 1561 280.684 1561 415 1561 c 0,9,10
 536.528 1561 536.528 1561 609.5 1487 c 0,11,12
 684 1411.45 684 1411.45 684 1286 c 0,13,14
 684 1163.44 684 1163.44 606.5 1087 c 0,15,16
 529.444 1011 529.444 1011 406.5 1011 c 0,0,1
522.5 1160.5 m 128,-1,18
 563 1205 563 1205 563 1286 c 0,19,20
 563 1401.21 563 1401.21 472 1442 c 0,21,22
 443 1455 443 1455 406.5 1455 c 128,-1,23
 370 1455 370 1455 341 1442 c 128,-1,24
 312 1429 312 1429 292.5 1406.5 c 0,25,26
 253 1360.92 253 1360.92 253 1304.96 c 128,-1,27
 253 1249 253 1249 263.5 1218 c 128,-1,28
 274 1187 274 1187 294 1164.5 c 0,29,30
 337.111 1116 337.111 1116 409.556 1116 c 128,-1,17
 482 1116 482 1116 522.5 1160.5 c 128,-1,18
EndSplineSet
EndChar

StartChar: ring
Encoding: 730 730 94
Width: 656
Flags: HW
LayerCount: 2
Fore
SplineSet
327.5 1217 m 0,0,1
 280 1217 280 1217 238.5 1232.5 c 128,-1,2
 197 1248 197 1248 166.5 1276.5 c 0,3,4
 100 1338.64 100 1338.64 100 1431 c 0,5,6
 100 1523.77 100 1523.77 166.5 1587 c 0,7,8
 231.707 1649 231.707 1649 328 1649 c 0,9,10
 422.724 1649 422.724 1649 489 1587 c 0,11,12
 556 1524.32 556 1524.32 556 1431 c 0,13,14
 556 1338.1 556 1338.1 489 1276.5 c 0,15,16
 424.281 1217 424.281 1217 327.5 1217 c 0,0,1
281 1319 m 128,-1,18
 303 1309 303 1309 327.5 1309 c 128,-1,19
 352 1309 352 1309 373.5 1317 c 128,-1,20
 395 1325 395 1325 411.5 1340.5 c 0,21,22
 447 1373.85 447 1373.85 447 1428.92 c 128,-1,23
 447 1484 447 1484 414 1518.5 c 128,-1,24
 381 1553 381 1553 340 1553 c 128,-1,25
 299 1553 299 1553 277 1543 c 128,-1,26
 255 1533 255 1533 239.5 1516.5 c 0,27,28
 208 1482.97 208 1482.97 208 1431 c 256,29,30
 208 1381.59 208 1381.59 233.5 1355.3 c 128,-1,17
 259 1329 259 1329 281 1319 c 128,-1,18
EndSplineSet
EndChar

StartChar: plus
Encoding: 43 43 95
Width: 1285
Flags: HW
LayerCount: 2
Fore
SplineSet
572 575 m 1,0,-1
 150 575 l 1,1,-1
 150 712 l 1,2,-1
 572 712 l 1,3,-1
 572 1146 l 1,4,-1
 713 1146 l 1,5,-1
 713 712 l 1,6,-1
 1135 712 l 1,7,-1
 1135 575 l 1,8,-1
 713 575 l 1,9,-1
 713 141 l 1,10,-1
 572 141 l 1,11,-1
 572 575 l 1,0,-1
EndSplineSet
EndChar

StartChar: plusminus
Encoding: 177 177 96
Width: 1285
Flags: HW
LayerCount: 2
Fore
SplineSet
572 872 m 1,0,-1
 150 872 l 1,1,-1
 150 1009 l 1,2,-1
 572 1009 l 1,3,-1
 572 1443 l 1,4,-1
 713 1443 l 1,5,-1
 713 1009 l 1,6,-1
 1135 1009 l 1,7,-1
 1135 872 l 1,8,-1
 713 872 l 1,9,-1
 713 458 l 1,10,-1
 572 458 l 1,11,-1
 572 872 l 1,0,-1
150 309 m 1,12,-1
 1135 309 l 1,13,-1
 1135 172 l 1,14,-1
 150 172 l 1,15,-1
 150 309 l 1,12,-1
EndSplineSet
EndChar

StartChar: equal
Encoding: 61 61 97
Width: 1285
Flags: HW
LayerCount: 2
Fore
SplineSet
150 854 m 1,0,-1
 1135 854 l 1,1,-1
 1135 717 l 1,2,-1
 150 717 l 1,3,-1
 150 854 l 1,0,-1
150 524 m 1,4,-1
 1135 524 l 1,5,-1
 1135 387 l 1,6,-1
 150 387 l 1,7,-1
 150 524 l 1,4,-1
EndSplineSet
EndChar

StartChar: bracketleft
Encoding: 91 91 98
Width: 825
Flags: HW
LayerCount: 2
Fore
SplineSet
608 -219 m 1,0,-1
 742 -209 l 1,1,2
 758 -209 758 -209 766.5 -218 c 128,-1,3
 775 -227 775 -227 775 -241 c 128,-1,4
 775 -255 775 -255 751.5 -270 c 128,-1,5
 728 -285 728 -285 677 -285 c 2,6,-1
 312 -285 l 2,7,8
 289 -285 289 -285 279.5 -273 c 128,-1,9
 270 -261 270 -261 270 -229 c 2,10,-1
 270 1647 l 2,11,12
 270 1703 270 1703 320 1703 c 2,13,-1
 677 1703 l 2,14,15
 728 1703 728 1703 751.5 1688 c 128,-1,16
 775 1673 775 1673 775 1659 c 0,17,18
 775 1627 775 1627 742 1627 c 1,19,-1
 608 1637 l 1,20,21
 506 1637 506 1637 495.5 1614.5 c 0,22,23
 492 1607 492 1607 492 1596 c 2,24,-1
 492 -178 l 2,25,26
 492 -201.083 492 -201.083 507.5 -207.542 c 0,27,28
 535 -219 535 -219 608 -219 c 1,0,-1
EndSplineSet
EndChar

StartChar: parenleft
Encoding: 40 40 101
Width: 836
Flags: HW
LayerCount: 2
Fore
SplineSet
748 -223 m 1,0,-1
 808 -218 l 1,1,2
 836 -218 836 -218 836 -242 c 0,3,4
 836 -259 836 -259 808.5 -272 c 128,-1,5
 781 -285 781 -285 730 -285 c 0,6,7
 613 -285 613 -285 506.5 -222 c 128,-1,8
 400 -159 400 -159 318.5 -34 c 0,9,10
 140 239.773 140 239.773 140 715 c 256,11,12
 140 1190.23 140 1190.23 318.5 1464 c 0,13,14
 400 1589 400 1589 506.5 1652 c 128,-1,15
 613 1715 613 1715 730 1715 c 0,16,17
 781 1715 781 1715 808.5 1702 c 128,-1,18
 836 1689 836 1689 836 1672 c 0,19,20
 836 1648 836 1648 808 1648 c 1,21,-1
 748 1653 l 1,22,23
 587.684 1653 587.684 1653 490.5 1436.5 c 0,24,25
 380 1190.34 380 1190.34 380 715 c 256,26,27
 380 239.663 380 239.663 490.5 -6.5 c 0,28,29
 587.684 -223 587.684 -223 748 -223 c 1,0,-1
EndSplineSet
EndChar

StartChar: bar
Encoding: 124 124 103
Width: 887
Flags: HW
LayerCount: 2
Fore
SplineSet
444 1703 m 0,0,1
 512 1703 512 1703 512 1630 c 2,2,-1
 512 -210 l 2,3,4
 512 -243 512 -243 493.5 -264 c 128,-1,5
 475 -285 475 -285 443.5 -285 c 128,-1,6
 412 -285 412 -285 393.5 -262.5 c 128,-1,7
 375 -240 375 -240 375 -207 c 2,8,-1
 375 1632 l 2,9,10
 375 1664 375 1664 393.5 1683.5 c 128,-1,11
 412 1703 412 1703 444 1703 c 0,0,1
EndSplineSet
EndChar

StartChar: brokenbar
Encoding: 166 166 104
Width: 887
Flags: HW
LayerCount: 2
Fore
SplineSet
494.5 886 m 128,-1,1
 477 865 477 865 445 865 c 128,-1,2
 413 865 413 865 394 883.5 c 128,-1,3
 375 902 375 902 375 931 c 2,4,-1
 375 1637 l 2,5,6
 375 1669 375 1669 393 1686 c 128,-1,7
 411 1703 411 1703 444 1703 c 128,-1,8
 477 1703 477 1703 494.5 1682 c 128,-1,9
 512 1661 512 1661 512 1635 c 2,10,-1
 512 933 l 2,11,0
 512 907 512 907 494.5 886 c 128,-1,1
375 497 m 2,12,13
 375 526 375 526 394 544.5 c 128,-1,14
 413 563 413 563 445 563 c 128,-1,15
 477 563 477 563 494.5 542 c 128,-1,16
 512 521 512 521 512 495 c 2,17,-1
 512 -217 l 2,18,19
 512 -243 512 -243 494.5 -264 c 128,-1,20
 477 -285 477 -285 444 -285 c 0,21,22
 375 -285 375 -285 375 -219 c 2,23,-1
 375 497 l 2,12,13
EndSplineSet
EndChar

StartChar: slash
Encoding: 47 47 105
Width: 1008
Flags: HW
LayerCount: 2
Fore
SplineSet
743 1567 m 1,0,1
 786.507 1681.21 786.507 1681.21 826.5 1697.5 c 0,2,3
 840 1703 840 1703 860 1703 c 128,-1,4
 880 1703 880 1703 894 1687.5 c 128,-1,5
 908 1672 908 1672 908 1654 c 0,6,7
 908 1615.22 908 1615.22 886 1559 c 1,8,-1
 240 -217 l 1,9,10
 213.846 -285 213.846 -285 171.923 -285 c 128,-1,11
 130 -285 130 -285 115 -264.5 c 128,-1,12
 100 -244 100 -244 100 -229 c 128,-1,13
 100 -214 100 -214 101 -207 c 128,-1,14
 102 -200 102 -200 106 -187.5 c 2,15,-1
 116.5 -154.5 l 2,16,17
 123 -134 123 -134 135 -102 c 2,18,-1
 743 1567 l 1,0,1
EndSplineSet
EndChar

StartChar: multiply
Encoding: 215 215 106
Width: 1175
Flags: HW
LayerCount: 2
Fore
SplineSet
158 311 m 1,0,-1
 489 642 l 1,1,-1
 150 982 l 1,2,-1
 250 1082 l 1,3,-1
 589 742 l 1,4,-1
 920 1073 l 1,5,-1
 1017 976 l 1,6,-1
 686 645 l 1,7,-1
 1025 305 l 1,8,-1
 925 205 l 1,9,-1
 586 545 l 1,10,-1
 255 214 l 1,11,-1
 158 311 l 1,0,-1
EndSplineSet
EndChar

StartChar: divide
Encoding: 247 247 107
Width: 1285
Flags: HW
LayerCount: 2
Fore
SplineSet
703 883.5 m 128,-1,1
 676 871 676 871 640 871 c 128,-1,2
 604 871 604 871 576.5 884 c 128,-1,3
 549 897 549 897 531.5 918 c 0,4,5
 498 958.2 498 958.2 498 1004.1 c 128,-1,6
 498 1050 498 1050 508.5 1077.5 c 128,-1,7
 519 1105 519 1105 538.5 1125 c 0,8,9
 580.425 1168 580.425 1168 631.213 1168 c 128,-1,10
 682 1168 682 1168 709 1155 c 128,-1,11
 736 1142 736 1142 754 1120.5 c 0,12,13
 789 1078.69 789 1078.69 789 1033.85 c 128,-1,14
 789 989 789 989 778.5 963 c 128,-1,15
 768 937 768 937 749 916.5 c 128,-1,0
 730 896 730 896 703 883.5 c 128,-1,1
150 712 m 1,16,-1
 1135 712 l 1,17,-1
 1135 575 l 1,18,-1
 150 575 l 1,19,-1
 150 712 l 1,16,-1
506 213 m 128,-1,21
 498 239 498 239 498 268.5 c 128,-1,22
 498 298 498 298 508.5 325.5 c 128,-1,23
 519 353 519 353 538.5 373 c 0,24,25
 580.425 416 580.425 416 631.213 416 c 128,-1,26
 682 416 682 416 709 403 c 128,-1,27
 736 390 736 390 754 368.5 c 0,28,29
 789 326.694 789 326.694 789 281.847 c 128,-1,30
 789 237 789 237 778.5 211 c 128,-1,31
 768 185 768 185 749 164.5 c 0,32,33
 706.829 119 706.829 119 655.415 119 c 128,-1,34
 604 119 604 119 576.5 132 c 128,-1,35
 549 145 549 145 531.5 166 c 128,-1,20
 514 187 514 187 506 213 c 128,-1,21
EndSplineSet
EndChar

StartChar: logicalnot
Encoding: 172 172 108
Width: 1285
Flags: HW
LayerCount: 2
Fore
SplineSet
150 712 m 1,0,-1
 1135 712 l 1,1,-1
 1135 251 l 1,2,-1
 994 251 l 1,3,-1
 994 575 l 1,4,-1
 150 575 l 1,5,-1
 150 712 l 1,0,-1
EndSplineSet
EndChar

StartChar: less
Encoding: 60 60 109
Width: 939
Flags: HW
LayerCount: 2
Fore
SplineSet
100 574 m 1,0,-1
 789 992 l 1,1,-1
 789 829 l 1,2,-1
 325 547 l 1,3,-1
 789 260 l 1,4,-1
 789 91 l 1,5,-1
 100 514 l 1,6,-1
 100 574 l 1,0,-1
EndSplineSet
EndChar

StartChar: paragraph
Encoding: 182 182 112
Width: 1537
Flags: HW
LayerCount: 2
Fore
SplineSet
632 -3 m 1,0,1
 539 -3 539 -3 539 44 c 0,2,3
 539 70 539 70 571 70 c 1,4,-1
 647 62 l 1,5,6
 720.069 62 720.069 62 742 115 c 0,7,8
 763 166 763 166 763 344 c 2,9,-1
 763 780 l 1,10,11
 696.571 765 696.571 765 615.786 765 c 128,-1,12
 535 765 535 765 449 791.5 c 128,-1,13
 363 818 363 818 299.5 869.5 c 0,14,15
 163 980.205 163 980.205 163 1171 c 0,16,17
 163 1325.35 163 1325.35 275.5 1431 c 0,18,19
 403.278 1551 403.278 1551 635 1551 c 0,20,21
 757.714 1551 757.714 1551 789.857 1543.5 c 0,22,23
 843.429 1531 843.429 1531 880 1531 c 1,24,-1
 880 0 l 1,25,26
 846 0 846 0 828.5 2 c 0,27,28
 793.5 6 793.5 6 777 6 c 1,29,-1
 632 -3 l 1,0,1
1390 1473 m 1,30,-1
 1326 1480 l 1,31,32
 1268.84 1480 1268.84 1480 1248 1444 c 0,33,34
 1217.25 1388.65 1217.25 1388.65 1213.63 1328.83 c 128,-1,35
 1210 1269 1210 1269 1210 1227 c 2,36,-1
 1210 0 l 1,37,-1
 1093 0 l 1,38,-1
 1093 1531 l 1,39,40
 1177 1531 1177 1531 1210 1536 c 0,41,42
 1276 1546 1276 1546 1331 1546 c 128,-1,43
 1386 1546 1386 1546 1404.5 1531 c 128,-1,44
 1423 1516 1423 1516 1423 1500 c 0,45,46
 1423 1473 1423 1473 1390 1473 c 1,30,-1
EndSplineSet
EndChar

StartChar: percent
Encoding: 37 37 113
Width: 1890
Flags: HW
LayerCount: 2
Fore
SplineSet
339.5 -9.5 m 128,-1,1
 325 5 325 5 325 21.5 c 128,-1,2
 325 38 325 38 327.5 48.5 c 128,-1,3
 330 59 330 59 336.5 72.5 c 128,-1,4
 343 86 343 86 356 104 c 2,5,-1
 1422 1473 l 1,6,7
 1475.17 1545.75 1475.17 1545.75 1507.5 1557 c 0,8,9
 1519 1561 1519 1561 1537.5 1561 c 128,-1,10
 1556 1561 1556 1561 1572.5 1547 c 128,-1,11
 1589 1533 1589 1533 1589 1514 c 0,12,13
 1589 1476.63 1589 1476.63 1543 1417 c 2,14,-1
 475 44 l 2,15,16
 429.632 -12.7105 429.632 -12.7105 410.816 -18.3553 c 128,-1,17
 392 -24 392 -24 373 -24 c 128,-1,0
 354 -24 354 -24 339.5 -9.5 c 128,-1,1
492.5 854 m 0,18,19
 403 854 403 854 330.5 886.5 c 128,-1,20
 258 919 258 919 213.5 970.5 c 0,21,22
 130 1067.13 130 1067.13 130 1207 c 0,23,24
 130 1352.84 130 1352.84 239 1456.5 c 0,25,26
 348.887 1561 348.887 1561 506 1561 c 0,27,28
 675.72 1561 675.72 1561 779.5 1461.5 c 0,29,30
 880 1365.14 880 1365.14 880 1219 c 0,31,32
 880 1051.62 880 1051.62 768 949.5 c 0,33,34
 663.258 854 663.258 854 492.5 854 c 0,18,19
466 956.5 m 128,-1,36
 508 931 508 931 543.5 931 c 128,-1,37
 579 931 579 931 604.5 941.5 c 128,-1,38
 630 952 630 952 649.5 976 c 0,39,40
 692 1028.31 692 1028.31 692 1121.65 c 128,-1,41
 692 1215 692 1215 673.5 1277.5 c 128,-1,42
 655 1340 655 1340 624 1385.5 c 0,43,44
 558.253 1482 558.253 1482 472 1482 c 0,45,46
 366.704 1482 366.704 1482 331 1361.5 c 0,47,48
 319 1321 319 1321 319 1257.5 c 128,-1,49
 319 1194 319 1194 339 1133 c 128,-1,50
 359 1072 359 1072 391.5 1027 c 128,-1,35
 424 982 424 982 466 956.5 c 128,-1,36
1010 335 m 0,51,52
 1010 401 1010 401 1039 465.5 c 128,-1,53
 1068 530 1068 530 1119 578.5 c 0,54,55
 1228.89 683 1228.89 683 1386 683 c 0,56,57
 1555.72 683 1555.72 683 1659.5 583.5 c 0,58,59
 1760 487.144 1760 487.144 1760 341 c 0,60,61
 1760 173.618 1760 173.618 1648 71.5 c 0,62,63
 1543.26 -24 1543.26 -24 1388 -24 c 0,64,65
 1194.17 -24 1194.17 -24 1093.5 92.5 c 0,66,67
 1010 189.135 1010 189.135 1010 335 c 0,51,52
1211 483.5 m 0,68,69
 1199 443 1199 443 1199 379.5 c 128,-1,70
 1199 316 1199 316 1219 255 c 128,-1,71
 1239 194 1239 194 1271.5 149 c 0,72,73
 1340.83 52.9999 1340.83 52.9999 1432 53 c 0,74,75
 1572 53 1572 53 1572 263 c 0,76,77
 1572 407.694 1572 407.694 1504 507.5 c 0,78,79
 1438.25 604 1438.25 604 1352 604 c 0,80,81
 1246.7 604 1246.7 604 1211 483.5 c 0,68,69
EndSplineSet
EndChar

StartChar: section
Encoding: 167 167 114
Width: 1119
Flags: HW
LayerCount: 2
Fore
SplineSet
474.329 -285 m 0,0,1
 341.657 -285 341.657 -285 194 -209 c 1,2,-1
 194 32 l 1,3,4
 195.64 73 195.64 73 217 73 c 0,5,6
 244.364 73 244.364 73 253 35 c 1,7,8
 274 -73 274 -73 345 -135.5 c 128,-1,9
 416 -198 416 -198 526 -198 c 0,10,11
 625.087 -198 625.087 -198 691.5 -151 c 0,12,13
 762 -101.108 762 -101.108 762 -18 c 0,14,15
 762 113.03 762 113.03 515 231 c 0,16,17
 316.536 326.182 316.536 326.182 229.5 418 c 0,18,19
 140 512.418 140 512.418 140 632 c 0,20,21
 140 756.571 140 756.571 263 862 c 0,22,23
 298 892 298 892 335 914 c 1,24,25
 244 977 244 977 207 1051.5 c 128,-1,26
 170 1126 170 1126 170 1203.5 c 128,-1,27
 170 1281 170 1281 200 1341.5 c 128,-1,28
 230 1402 230 1402 288 1451 c 0,29,30
 418.204 1561 418.204 1561 627 1561 c 0,31,32
 782.818 1561 782.818 1561 905 1505 c 1,33,-1
 905 1263 l 1,34,35
 903.182 1223 903.182 1223 882 1223 c 0,36,37
 856.636 1223 856.636 1223 848 1261 c 1,38,39
 828 1363 828 1363 766 1418.5 c 128,-1,40
 704 1474 704 1474 604 1474 c 0,41,42
 511.714 1474 511.714 1474 441 1421.5 c 0,43,44
 368 1367.3 368 1367.3 368 1294 c 0,45,46
 368 1200.71 368 1200.71 498.5 1109.5 c 0,47,48
 545 1077 545 1077 638 1033 c 128,-1,49
 731 989 731 989 804.5 941 c 128,-1,50
 878 893 878 893 919 845.5 c 0,51,52
 989 764.402 989 764.402 989 632 c 0,53,54
 989 516.171 989 516.171 866 412.5 c 0,55,56
 831 383 831 383 795 362 c 1,57,58
 958 248.449 958 248.449 958 78 c 0,59,60
 958 -70.6441 958 -70.6441 839 -172.5 c 0,61,62
 707.564 -285 707.564 -285 474.329 -285 c 0,0,1
409 869 m 1,63,64
 303 812.882 303 812.882 303 729 c 0,65,66
 303 627.182 303 627.182 489 521.5 c 0,67,68
 555 484 555 484 612 458.5 c 0,69,70
 692.343 422.557 692.343 422.557 720 407 c 1,71,72
 827 464.78 827 464.78 827 547 c 0,73,74
 827 649.331 827 649.331 640.5 754.5 c 0,75,76
 574 792 574 792 517 817 c 128,-1,77
 460 842 460 842 443 851 c 128,-1,78
 426 860 426 860 409 869 c 1,63,64
EndSplineSet
EndChar

StartChar: asciicircum
Encoding: 94 94 115
Width: 1141
Flags: HW
LayerCount: 2
Fore
SplineSet
538 1562 m 1,0,-1
 598 1562 l 1,1,-1
 991 973 l 1,2,-1
 822 973 l 1,3,-1
 565 1352 l 1,4,-1
 313 973 l 1,5,-1
 150 973 l 1,6,-1
 538 1562 l 1,0,-1
EndSplineSet
EndChar

StartChar: mu
Encoding: 181 181 116
AltUni2: 0003bc.ffffffff.0
Width: 1532
Flags: HW
LayerCount: 2
Fore
SplineSet
454 58 m 1,0,1
 415 -68.1765 415 -68.1765 415 -135.088 c 128,-1,2
 415 -202 415 -202 423.5 -226 c 128,-1,3
 432 -250 432 -250 445.5 -268.5 c 128,-1,4
 459 -287 459 -287 476.5 -302 c 2,5,-1
 513 -333 l 2,6,7
 574 -385.286 574 -385.286 574 -443 c 0,8,9
 574 -480.036 574 -480.036 551.5 -498.518 c 0,10,11
 513.174 -530 513.174 -530 473.087 -530 c 128,-1,12
 433 -530 433 -530 397.5 -510.5 c 128,-1,13
 362 -491 362 -491 333.5 -437.5 c 0,14,15
 271 -320.175 271 -320.175 271 -43 c 2,16,-1
 271 665 l 2,17,18
 271 852 271 852 254.5 892 c 128,-1,19
 238 932 238 932 214 939 c 128,-1,20
 190 946 190 946 163 946 c 1,21,-1
 107 939 l 1,22,23
 75 939 75 939 75 964 c 0,24,25
 75 1012 75 1012 168 1012 c 1,26,-1
 321 1003 l 2,27,28
 334 1003 334 1003 346 1004 c 2,29,-1
 371 1006 l 2,30,31
 398 1009 398 1009 423.5 1009 c 128,-1,32
 449 1009 449 1009 461.5 1003.5 c 128,-1,33
 474 998 474 998 481.5 982.5 c 0,34,35
 496 952.533 496 952.533 496 864 c 2,36,-1
 496 368 l 2,37,38
 496 248.573 496 248.573 576.5 167 c 0,39,40
 656.434 86 656.434 86 771.717 86 c 128,-1,41
 887 86 887 86 983 159 c 1,42,-1
 983 664 l 2,43,44
 983 852 983 852 966.5 892 c 128,-1,45
 950 932 950 932 926 939 c 128,-1,46
 902 946 902 946 875 946 c 1,47,-1
 819 939 l 1,48,49
 787 939 787 939 787 964 c 0,50,51
 787 1012 787 1012 880 1012 c 1,52,-1
 1033 1003 l 2,53,54
 1046 1003 1046 1003 1058 1004 c 2,55,-1
 1083 1006 l 2,56,57
 1110 1009 1110 1009 1135.5 1009 c 128,-1,58
 1161 1009 1161 1009 1173.5 1003.5 c 128,-1,59
 1186 998 1186 998 1193.5 982 c 0,60,61
 1208 951.067 1208 951.067 1208 863 c 2,62,-1
 1208 345 l 2,63,64
 1208 157 1208 157 1224.5 117 c 128,-1,65
 1241 77 1241 77 1265 70 c 128,-1,66
 1289 63 1289 63 1316 63 c 1,67,-1
 1372 70 l 257,68,69
 1404 70 1404 70 1404 45 c 0,70,71
 1404 -3 1404 -3 1311 -3 c 1,72,-1
 1158 6 l 2,73,74
 1145 6 1145 6 1133 5 c 2,75,-1
 1108 3 l 2,76,77
 1081 0 1081 0 1049 0 c 0,78,79
 1003.56 0 1003.56 0 990 61 c 1,80,81
 871 -24 871 -24 720.763 -24 c 128,-1,82
 570.526 -24 570.526 -24 454 58 c 1,0,1
EndSplineSet
EndChar

StartChar: asterisk
Encoding: 42 42 117
Width: 1045
Flags: HW
LayerCount: 2
Fore
SplineSet
803 1123 m 1,0,-1
 701 1127 l 1,1,2
 633.333 1127 633.333 1127 575 1117 c 1,3,4
 627.949 1057.94 627.949 1057.94 671.474 1028.97 c 0,5,6
 753.925 974.092 753.925 974.092 782 940 c 1,7,8
 801 912 801 912 800.5 885.5 c 128,-1,9
 800 859 800 859 789.5 839.5 c 128,-1,10
 779 820 779 820 763 806.5 c 0,11,12
 730.407 779 730.407 779 699.704 779 c 128,-1,13
 669 779 669 779 652.5 786.5 c 128,-1,14
 636 794 636 794 622.5 811 c 0,15,16
 595.549 844.938 595.549 844.938 583.775 894.469 c 128,-1,17
 572 944 572 944 565.5 963 c 128,-1,18
 559 982 559 982 551 1002.5 c 128,-1,19
 543 1023 543 1023 534 1042.5 c 2,20,-1
 517 1078 l 1,21,22
 482.129 1014.07 482.129 1014.07 464.064 954.535 c 128,-1,23
 446 895 446 895 433 865 c 128,-1,24
 420 835 420 835 406 817.5 c 0,25,26
 382.4 788 382.4 788 349.7 788 c 128,-1,27
 317 788 317 788 297 795.5 c 128,-1,28
 277 803 277 803 261.5 816.5 c 0,29,30
 228 845.677 228 845.677 228 880.839 c 128,-1,31
 228 916 228 916 241 936.5 c 128,-1,32
 254 957 254 957 273.5 973.5 c 128,-1,33
 293 990 293 990 315 1003.5 c 2,34,-1
 355 1029 l 1,35,36
 403 1061 403 1061 463 1121 c 1,37,38
 393 1135 393 1135 342 1134 c 128,-1,39
 291 1133 291 1133 258 1133.5 c 128,-1,40
 225 1134 225 1134 196.5 1143 c 0,41,42
 130 1164 130 1164 130 1228 c 0,43,44
 130 1304.5 130 1304.5 188 1333.5 c 0,45,46
 205 1342 205 1342 225.5 1342 c 128,-1,47
 246 1342 246 1342 265.5 1334 c 128,-1,48
 285 1326 285 1326 303 1313.5 c 128,-1,49
 321 1301 321 1301 337.5 1287 c 2,50,-1
 369 1261 l 1,51,52
 422 1221 422 1221 486 1187 c 1,53,54
 480.458 1264.59 480.458 1264.59 460.729 1321.79 c 0,55,56
 423 1431.19 423 1431.19 423 1471.1 c 128,-1,57
 423 1511 423 1511 453 1536 c 128,-1,58
 483 1561 483 1561 525.5 1561 c 128,-1,59
 568 1561 568 1561 597.5 1537.5 c 128,-1,60
 627 1514 627 1514 627 1474 c 128,-1,61
 627 1434 627 1434 615 1403 c 2,62,-1
 590 1337 l 1,63,64
 563.965 1271.91 563.965 1271.91 553 1182 c 1,65,66
 627.667 1216.13 627.667 1216.13 665.833 1246.57 c 128,-1,67
 704 1277 704 1277 723 1290.5 c 128,-1,68
 742 1304 742 1304 758 1313 c 0,69,70
 788.222 1330 788.222 1330 813.611 1330 c 128,-1,71
 839 1330 839 1330 857 1320.5 c 128,-1,72
 875 1311 875 1311 887.5 1295.5 c 0,73,74
 915 1261.4 915 1261.4 915 1217.7 c 128,-1,75
 915 1174 915 1174 884.5 1148.5 c 128,-1,76
 854 1123 854 1123 803 1123 c 1,0,-1
EndSplineSet
EndChar

StartChar: numbersign
Encoding: 35 35 118
Width: 1526
Flags: HW
LayerCount: 2
Fore
SplineSet
313.5 -3.5 m 128,-1,1
 297 17 297 17 297 32 c 128,-1,2
 297 47 297 47 297.5 53.5 c 128,-1,3
 298 60 298 60 300 72.5 c 0,4,5
 303.824 96.397 303.824 96.397 319 159 c 2,6,-1
 399 503 l 1,7,-1
 181 503 l 2,8,9
 149 503 149 503 124.5 521.5 c 128,-1,10
 100 540 100 540 100 573 c 128,-1,11
 100 606 100 606 125.5 623 c 128,-1,12
 151 640 151 640 183 640 c 2,13,-1
 431 640 l 1,14,-1
 497 921 l 1,15,-1
 271 921 l 2,16,17
 239 921 239 921 214.5 939.5 c 128,-1,18
 190 958 190 958 190 991 c 128,-1,19
 190 1024 190 1024 215.5 1041 c 128,-1,20
 241 1058 241 1058 273 1058 c 2,21,-1
 529 1058 l 1,22,-1
 616 1425 l 2,23,24
 643.159 1539.07 643.159 1539.07 682 1555.5 c 0,25,26
 695 1561 695 1561 714 1561 c 128,-1,27
 733 1561 733 1561 752 1545 c 128,-1,28
 771 1529 771 1529 771 1513 c 128,-1,29
 771 1497 771 1497 770 1487.5 c 128,-1,30
 769 1478 769 1478 767.5 1466 c 0,31,32
 763.75 1436 763.75 1436 759 1417 c 2,33,-1
 676 1058 l 1,34,-1
 1019 1058 l 1,35,-1
 1106 1425 l 2,36,37
 1133.16 1539.07 1133.16 1539.07 1172 1555.5 c 0,38,39
 1185 1561 1185 1561 1204 1561 c 128,-1,40
 1223 1561 1223 1561 1242 1545 c 128,-1,41
 1261 1529 1261 1529 1261 1513 c 128,-1,42
 1261 1497 1261 1497 1260 1487.5 c 128,-1,43
 1259 1478 1259 1478 1257.5 1466 c 0,44,45
 1253.75 1436 1253.75 1436 1249 1417 c 2,46,-1
 1166 1058 l 1,47,-1
 1343 1058 l 2,48,49
 1375 1058 1375 1058 1400.5 1041 c 128,-1,50
 1426 1024 1426 1024 1426 991 c 128,-1,51
 1426 958 1426 958 1401.5 939.5 c 128,-1,52
 1377 921 1377 921 1345 921 c 2,53,-1
 1134 921 l 1,54,-1
 1068 640 l 1,55,-1
 1243 640 l 2,56,57
 1275 640 1275 640 1300.5 623 c 128,-1,58
 1326 606 1326 606 1326 573 c 128,-1,59
 1326 540 1326 540 1301.5 521.5 c 128,-1,60
 1277 503 1277 503 1245 503 c 2,61,-1
 1036 503 l 1,62,-1
 930 44 l 2,63,64
 924 17 924 17 903.5 -3.5 c 128,-1,65
 883 -24 883 -24 851.5 -24 c 128,-1,66
 820 -24 820 -24 803.5 -3.5 c 128,-1,67
 787 17 787 17 787 32 c 128,-1,68
 787 47 787 47 787.5 53.5 c 128,-1,69
 788 60 788 60 790 72.5 c 0,70,71
 793.824 96.3972 793.824 96.3972 809 159 c 2,72,-1
 889 503 l 1,73,-1
 546 503 l 1,74,-1
 440 44 l 2,75,76
 434 17 434 17 413.5 -3.5 c 128,-1,77
 393 -24 393 -24 361.5 -24 c 128,-1,0
 330 -24 330 -24 313.5 -3.5 c 128,-1,1
921 640 m 1,78,-1
 987 921 l 1,79,-1
 644 921 l 1,80,-1
 578 640 l 1,81,-1
 921 640 l 1,78,-1
EndSplineSet
EndChar

StartChar: yen
Encoding: 165 165 119
Width: 1539
Flags: HW
LayerCount: 2
Fore
SplineSet
991 66 m 1,0,-1
 1085 76 l 1,1,2
 1101 76 1101 76 1109.5 67 c 128,-1,3
 1118 58 1118 58 1118 44 c 128,-1,4
 1118 30 1118 30 1094.5 15 c 128,-1,5
 1071 0 1071 0 1038 0 c 128,-1,6
 1005 0 1005 0 986.5 0.5 c 128,-1,7
 968 1 968 1 949.5 2 c 0,8,9
 921.263 3.52631 921.263 3.52631 899.632 6.26316 c 128,-1,10
 878 9 878 9 862 10.5 c 128,-1,11
 846 12 846 12 828.5 13 c 0,12,13
 793.5 15 793.5 15 764 15 c 256,14,15
 686 15 686 15 657.5 10.5 c 128,-1,16
 629 6 629 6 613 4.5 c 128,-1,17
 597 3 597 3 578.5 2 c 0,18,19
 463.597 -4.21096 463.597 -4.21096 436.799 12.8945 c 128,-1,20
 410 30 410 30 410 44 c 0,21,22
 410 76 410 76 443 76 c 1,23,-1
 537 66 l 1,24,25
 594.158 66 594.158 66 615 102 c 0,26,27
 645.612 157.102 645.612 157.102 649.306 218.051 c 128,-1,28
 653 279 653 279 653 321 c 2,29,-1
 653 421 l 1,30,-1
 250 421 l 2,31,32
 218 421 218 421 198 430 c 128,-1,33
 178 439 178 439 178 472 c 128,-1,34
 178 505 178 505 198.5 511.5 c 128,-1,35
 219 518 219 518 253 518 c 2,36,-1
 653 518 l 1,37,-1
 653 709 l 1,38,-1
 250 709 l 2,39,40
 218 709 218 709 198 718 c 128,-1,41
 178 727 178 727 178 760 c 128,-1,42
 178 793 178 793 198.5 799.5 c 128,-1,43
 219 806 219 806 253 806 c 2,44,-1
 583 806 l 1,45,-1
 125 1426 l 2,46,47
 110 1447 110 1447 91.5 1455 c 128,-1,48
 73 1463 73 1463 36 1463 c 1,49,-1
 -19 1455 l 1,50,51
 -52 1455 -52 1455 -52 1481 c 0,52,53
 -52 1499 -52 1499 -30.5 1513.5 c 128,-1,54
 -9 1528 -9 1528 36 1528 c 1,55,-1
 233 1514 l 1,56,57
 499 1528 l 1,58,59
 595 1528 595 1528 595 1481 c 0,60,61
 595 1456 595 1456 563 1456 c 1,62,-1
 487 1465 l 1,63,64
 419 1465 419 1465 419 1424 c 0,65,66
 419 1385.04 419 1385.04 464 1321 c 2,67,-1
 818 806 l 1,68,-1
 823 806 l 1,69,-1
 1133 1204 l 1,70,-1
 1171.5 1261.5 l 1,71,72
 1249 1380.59 1249 1380.59 1249 1423.29 c 128,-1,73
 1249 1466 1249 1466 1181 1466 c 1,74,-1
 1105 1456 l 1,75,76
 1073 1456 1073 1456 1073 1481 c 0,77,78
 1073 1500 1073 1500 1095 1514 c 128,-1,79
 1117 1528 1117 1528 1157.5 1528 c 128,-1,80
 1198 1528 1198 1528 1224 1525.5 c 2,81,-1
 1272 1521 l 1,82,83
 1328 1514 1328 1514 1357.5 1514 c 0,84,85
 1404 1514 1404 1514 1433.5 1518.5 c 2,86,-1
 1480 1525.5 l 2,87,88
 1497 1528 1497 1528 1524 1528 c 128,-1,89
 1551 1528 1551 1528 1574 1515.5 c 128,-1,90
 1597 1503 1597 1503 1597 1479 c 128,-1,91
 1597 1455 1597 1455 1564 1455 c 1,92,-1
 1498 1463 l 1,93,94
 1445.47 1463 1445.47 1463 1415 1426 c 1,95,-1
 932 806 l 1,96,-1
 1303 806 l 2,97,98
 1360.19 806 1360.19 806 1372.5 782.5 c 0,99,100
 1378 772 1378 772 1378 748.5 c 0,101,102
 1378 709 1378 709 1304 709 c 2,103,-1
 875 709 l 1,104,-1
 875 518 l 1,105,-1
 1303 518 l 2,106,107
 1360.19 518 1360.19 518 1372.5 494.5 c 0,108,109
 1378 484 1378 484 1378 460.5 c 0,110,111
 1378 421 1378 421 1304 421 c 2,112,-1
 875 421 l 1,113,-1
 875 321 l 2,114,115
 875 196.533 875 196.533 889 158.267 c 128,-1,116
 903 120 903 120 913.5 101.5 c 0,117,118
 933.649 66.0001 933.649 66.0001 991 66 c 1,0,-1
EndSplineSet
EndChar

StartChar: Euro
Encoding: 8364 8364 120
Width: 1700
Flags: HW
LayerCount: 2
Fore
SplineSet
374 863 m 1,0,1
 375.857 766.428 375.857 766.428 393 670 c 1,2,-1
 1085 670 l 2,3,4
 1113 670 1113 670 1131.5 665 c 128,-1,5
 1150 660 1150 660 1150 637.5 c 128,-1,6
 1150 615 1150 615 1144.5 602.5 c 128,-1,7
 1139 590 1139 590 1128 583.5 c 0,8,9
 1110.23 573 1110.23 573 1066 573 c 2,10,-1
 417 573 l 1,11,12
 489.112 344.971 489.112 344.971 658.5 215 c 0,13,14
 818.803 92 818.803 92 1020 92 c 0,15,16
 1169.01 92 1169.01 92 1299 173.5 c 0,17,18
 1434.28 258.318 1434.28 258.318 1487 395 c 0,19,20
 1497 421 1497 421 1505 437.5 c 128,-1,21
 1513 454 1513 454 1530 454 c 0,22,23
 1557 454 1557 454 1557 410.5 c 128,-1,24
 1557 367 1557 367 1534.5 313.5 c 128,-1,25
 1512 260 1512 260 1471.5 210.5 c 128,-1,26
 1431 161 1431 161 1375.5 118.5 c 128,-1,27
 1320 76 1320 76 1253 44.5 c 0,28,29
 1109.43 -23 1109.43 -23 953.714 -23 c 128,-1,30
 798 -23 798 -23 665 20.5 c 128,-1,31
 532 64 532 64 431 142.5 c 0,32,33
 224.91 302.679 224.91 302.679 168 573 c 1,34,-1
 12 573 l 2,35,36
 -16 573 -16 573 -33 579.5 c 128,-1,37
 -50 586 -50 586 -50 608.5 c 128,-1,38
 -50 631 -50 631 -44 643 c 128,-1,39
 -38 655 -38 655 -27 661 c 0,40,41
 -10.5 670 -10.5 670 35 670 c 2,42,-1
 153 670 l 1,43,44
 149 716 149 716 149 764.5 c 128,-1,45
 149 813 149 813 155 863 c 1,46,-1
 12 863 l 2,47,48
 -16 863 -16 863 -33 869.5 c 128,-1,49
 -50 876 -50 876 -50 898.5 c 128,-1,50
 -50 921 -50 921 -44 933 c 128,-1,51
 -38 945 -38 945 -27 951 c 0,52,53
 -10.5 960 -10.5 960 35 960 c 2,54,-1
 172 960 l 1,55,56
 236.243 1229.02 236.243 1229.02 449.5 1395 c 128,-1,57
 662.779 1561 662.779 1561 940 1561 c 0,58,59
 1131.6 1561 1131.6 1561 1278 1500 c 0,60,61
 1318.38 1483 1318.38 1483 1331.19 1483 c 128,-1,62
 1344 1483 1344 1483 1350.5 1483.5 c 128,-1,63
 1357 1484 1357 1484 1364.5 1487.5 c 0,64,65
 1377.62 1493.62 1377.62 1493.62 1399.31 1515.31 c 2,66,-1
 1432.5 1548.5 l 2,67,68
 1460 1576 1460 1576 1473 1576 c 0,69,70
 1498 1576 1498 1576 1498 1523 c 0,71,72
 1498 1401.73 1498 1401.73 1514 1342.36 c 2,73,-1
 1539.5 1248 l 2,74,75
 1549 1213 1549 1213 1549 1190 c 256,76,77
 1549 1148 1549 1148 1525 1148 c 256,78,79
 1505.92 1148 1505.92 1148 1493 1169 c 0,80,81
 1416.67 1286.58 1416.67 1286.58 1252.5 1373.5 c 0,82,83
 1083.44 1463 1083.44 1463 954.222 1463 c 128,-1,84
 825 1463 825 1463 729.5 1427 c 128,-1,85
 634 1391 634 1391 560.5 1325 c 0,86,87
 404.919 1185.29 404.919 1185.29 379 960 c 1,88,-1
 1255 960 l 2,89,90
 1283 960 1283 960 1301 955 c 128,-1,91
 1319 950 1319 950 1319 927.5 c 128,-1,92
 1319 905 1319 905 1313.5 892.5 c 128,-1,93
 1308 880 1308 880 1297 873.5 c 0,94,95
 1279.23 863 1279.23 863 1236 863 c 2,96,-1
 374 863 l 1,0,1
EndSplineSet
EndChar

StartChar: cent
Encoding: 162 162 121
Width: 1216
Flags: HW
LayerCount: 2
Fore
SplineSet
726 -213 m 2,0,1
 726 -285 726 -285 680 -285 c 0,2,3
 629 -285 629 -285 629 -210 c 2,4,-1
 629 -21 l 1,5,6
 408.316 -2.26265 408.316 -2.26265 269.5 132.5 c 0,7,8
 122 275.693 122 275.693 122 505 c 0,9,10
 122 699.455 122 699.455 260 850 c 0,11,12
 404.575 1007.72 404.575 1007.72 629 1029 c 1,13,-1
 629 1194 l 2,14,15
 629 1269 629 1269 675 1269 c 0,16,17
 726 1269 726 1269 726 1195 c 2,18,-1
 726 1031 l 1,19,20
 801.229 1028.21 801.229 1028.21 853.615 1011.61 c 2,21,-1
 916 992 l 2,22,23
 926 989 926 989 937.5 989 c 0,24,25
 955 989 955 989 996.5 1010.5 c 128,-1,26
 1038 1032 1038 1032 1060 1032 c 0,27,28
 1089 1032 1089 1032 1089 995.5 c 128,-1,29
 1089 959 1089 959 1089.5 928 c 128,-1,30
 1090 897 1090 897 1093 871 c 0,31,32
 1098.98 819.167 1098.98 819.167 1112.49 780.084 c 128,-1,33
 1126 741 1126 741 1126 727 c 0,34,35
 1126 702 1126 702 1103 702 c 0,36,37
 1079.55 702 1079.55 702 1035.77 756 c 128,-1,38
 992 810 992 810 953.5 845 c 128,-1,39
 915 880 915 880 877.5 900 c 0,40,41
 812.483 934.676 812.483 934.676 726 939 c 1,42,-1
 726 94 l 1,43,44
 737 92 737 92 747 92 c 2,45,-1
 768 92 l 2,46,47
 951.333 92 951.333 92 1042 228 c 1,48,49
 1058 249 1058 249 1067.5 258 c 128,-1,50
 1077 267 1077 267 1089.5 267 c 128,-1,51
 1102 267 1102 267 1110.5 259.5 c 128,-1,52
 1119 252 1119 252 1119 242 c 0,53,54
 1119 203.64 1119 203.64 1069 140.32 c 128,-1,55
 1019 77 1019 77 929 30 c 128,-1,56
 839 -17 839 -17 726 -23 c 1,57,-1
 726 -213 l 2,0,1
629 934 m 1,58,59
 505.216 911.306 505.216 911.306 433 809 c 0,60,61
 358 702.75 358 702.75 358 532 c 0,62,63
 358 289.765 358 289.765 524 169.5 c 0,64,65
 573 134 573 134 629 115 c 1,66,-1
 629 934 l 1,58,59
EndSplineSet
EndChar

StartChar: dollar
Encoding: 36 36 122
Width: 1447
Flags: HW
LayerCount: 2
Fore
SplineSet
677 -21 m 1,0,1
 460.839 -7.72695 460.839 -7.72695 211 125 c 1,2,-1
 211 470 l 2,3,4
 211 585 211 585 247 585 c 0,5,6
 270.25 585 270.25 585 279 529 c 1,7,8
 310.979 234.797 310.979 234.797 515 125.5 c 0,9,10
 585 88 585 88 677 78 c 1,11,-1
 677 677 l 1,12,13
 430.026 737.33 430.026 737.33 309 867 c 0,14,15
 203 980.571 203 980.571 203 1138 c 256,16,17
 203 1298.48 203 1298.48 317.5 1412 c 0,18,19
 447.847 1541.23 447.847 1541.23 677 1558 c 1,20,-1
 677 1748 l 2,21,22
 677 1823 677 1823 723 1823 c 0,23,24
 774 1823 774 1823 774 1749 c 2,25,-1
 774 1560 l 1,26,27
 897.771 1556.74 897.771 1556.74 996 1524 c 1,28,-1
 1023.5 1514.5 l 2,29,30
 1046 1507 1046 1507 1056.5 1507 c 0,31,32
 1080.86 1507 1080.86 1507 1102.43 1536.5 c 0,33,34
 1137.16 1584 1137.16 1584 1151.08 1584 c 0,35,36
 1176.31 1584 1176.31 1584 1177.66 1547 c 128,-1,37
 1179 1510 1179 1510 1182 1483 c 128,-1,38
 1185 1456 1185 1456 1190.5 1424.5 c 0,39,40
 1201.24 1363.02 1201.24 1363.02 1215.62 1303.51 c 0,41,42
 1240 1202.62 1240 1202.62 1240 1165.31 c 128,-1,43
 1240 1128 1240 1128 1215 1128 c 0,44,45
 1196.76 1128 1196.76 1128 1173 1181 c 1,46,47
 1045.17 1444.9 1045.17 1444.9 774 1464 c 1,48,-1
 774 910 l 1,49,50
 1198.93 809.359 1198.93 809.359 1283 580.5 c 0,51,52
 1310 507 1310 507 1310 415.5 c 128,-1,53
 1310 324 1310 324 1273.5 244 c 128,-1,54
 1237 164 1237 164 1168 106.5 c 0,55,56
 1023.3 -14.0858 1023.3 -14.0858 774 -22 c 1,57,-1
 774 -213 l 2,58,59
 774 -285 774 -285 728 -285 c 0,60,61
 677 -285 677 -285 677 -210 c 2,62,-1
 677 -21 l 1,0,1
677 1462 m 1,63,64
 464.859 1443.82 464.859 1443.82 402.5 1317.5 c 0,65,66
 383 1278 383 1278 383 1233.5 c 128,-1,67
 383 1189 383 1189 395.5 1147.5 c 128,-1,68
 408 1106 408 1106 440.5 1068.5 c 0,69,70
 510.418 987.826 510.418 987.826 677 936 c 1,71,-1
 677 1462 l 1,63,64
774 75 m 1,72,73
 1122 85.7629 1122 85.7629 1122 344 c 0,74,75
 1122 558.435 1122 558.435 774 653 c 1,76,-1
 774 75 l 1,72,73
EndSplineSet
EndChar

StartChar: sterling
Encoding: 163 163 123
Width: 1367
Flags: HW
LayerCount: 2
Fore
SplineSet
96 -20 m 0,0,1
 68 -20 68 -20 68 11 c 256,2,3
 68 81.8462 68 81.8462 241 175 c 0,4,5
 335.313 224.93 335.313 224.93 356.657 254.465 c 0,6,7
 403 318.595 403 318.595 403 442.464 c 128,-1,8
 403 566.333 403 566.333 345 721 c 1,9,-1
 210 721 l 2,10,11
 118 721 118 721 118 773 c 0,12,13
 118 818 118 818 213 818 c 2,14,-1
 305 818 l 1,15,16
 228 1008.83 228 1008.83 228 1116.91 c 128,-1,17
 228 1225 228 1225 263.5 1304 c 128,-1,18
 299 1383 299 1383 360 1440 c 0,19,20
 489.491 1561 489.491 1561 674 1561 c 0,21,22
 770.565 1561 770.565 1561 829.283 1542.5 c 128,-1,23
 888 1524 888 1524 922.5 1510 c 0,24,25
 976.714 1488 976.714 1488 989.857 1488 c 0,26,27
 1014.54 1488 1014.54 1488 1048.27 1524 c 0,28,29
 1096.99 1576 1096.99 1576 1113 1576 c 0,30,31
 1138 1576 1138 1576 1138 1523 c 0,32,33
 1138 1410.36 1138 1410.36 1155.5 1345.68 c 0,34,35
 1189 1221.86 1189 1221.86 1189 1184.93 c 128,-1,36
 1189 1148 1189 1148 1165 1148 c 0,37,38
 1149.64 1148 1149.64 1148 1135 1171 c 0,39,40
 1053.14 1299.63 1053.14 1299.63 924 1382.5 c 0,41,42
 798.545 1463 798.545 1463 684 1463 c 0,43,44
 580.531 1463 580.531 1463 513.5 1397 c 0,45,46
 445 1329.55 445 1329.55 445 1219 c 0,47,48
 445 1100.53 445 1100.53 494 969 c 0,49,50
 513 918 513 918 544 848 c 1,51,-1
 556 818 l 1,52,-1
 973 818 l 2,53,54
 1068 818 1068 818 1068 766 c 0,55,56
 1068 721 1068 721 974 721 c 2,57,-1
 592 721 l 1,58,59
 625 613.316 625 613.316 625 541.158 c 128,-1,60
 625 469 625 469 615 433.5 c 128,-1,61
 605 398 605 398 587.5 366 c 0,62,63
 552.537 302.067 552.537 302.067 496 256 c 1,64,65
 613.626 247.598 613.626 247.598 690.313 219.799 c 128,-1,66
 767 192 767 192 818.5 170 c 128,-1,67
 870 148 870 148 910.5 132.5 c 128,-1,68
 951 117 951 117 982 108 c 0,69,70
 1037.11 92 1037.11 92 1083.06 92 c 0,71,72
 1167.84 92 1167.84 92 1223 149 c 0,73,74
 1249.25 177 1249.25 177 1274.62 177 c 128,-1,75
 1300 177 1300 177 1299.5 147 c 0,76,77
 1298.49 86.3188 1298.49 86.3188 1187.24 31.1594 c 128,-1,78
 1076 -24 1076 -24 974.5 -24 c 0,79,80
 792 -24 792 -24 614 32 c 0,81,82
 465.044 78.8934 465.044 78.8934 415.522 83.9467 c 128,-1,83
 366 89 366 89 324 89 c 0,84,85
 218.143 89 218.143 89 142 11 c 1,86,87
 114.1 -20 114.1 -20 96 -20 c 0,0,1
EndSplineSet
EndChar

StartChar: at
Encoding: 64 64 124
Width: 2325
Flags: HW
LayerCount: 2
Fore
SplineSet
1343 -239 m 1,0,-1
 1330 -190 l 1,1,2
 1330 -170 1330 -170 1343 -154 c 128,-1,3
 1356 -138 1356 -138 1384.5 -138 c 128,-1,4
 1413 -138 1413 -138 1433 -157 c 128,-1,5
 1453 -176 1453 -176 1453 -225 c 128,-1,6
 1453 -274 1453 -274 1410.5 -332.5 c 128,-1,7
 1368 -391 1368 -391 1293.5 -435 c 0,8,9
 1132.65 -530 1132.65 -530 898 -530 c 0,10,11
 579.462 -530 579.462 -530 369 -378 c 0,12,13
 132 -206.833 132 -206.833 132 120 c 0,14,15
 132 433.907 132 433.907 310 718.5 c 128,-1,16
 488.123 1003.29 488.123 1003.29 795.5 1174.5 c 0,17,18
 1121.35 1356 1121.35 1356 1514 1356 c 0,19,20
 1833.2 1356 1833.2 1356 2019.5 1213 c 0,21,22
 2215 1062.94 2215 1062.94 2215 793 c 0,23,24
 2215 609.25 2215 609.25 2111 430.5 c 0,25,26
 2015.8 266.88 2015.8 266.88 1864.5 158.5 c 0,27,28
 1715.82 52 1715.82 52 1579 52 c 0,29,30
 1569 52 1569 52 1557.5 44 c 2,31,-1
 1533.5 26.5 l 2,32,33
 1499.6 0.739507 1499.6 0.739507 1484.8 2.36975 c 0,34,35
 1431.8 8.2073 1431.8 8.2073 1403.4 6.10365 c 2,36,-1
 1362 3 l 2,37,38
 1335 0 1335 0 1303 0 c 0,39,40
 1230.53 0 1230.53 0 1251 116 c 1,41,42
 1106.48 -24 1106.48 -24 950 -24 c 0,43,44
 781.914 -24 781.914 -24 711.5 69.5 c 0,45,46
 662 135.23 662 135.23 662 228.615 c 128,-1,47
 662 322 662 322 682.5 396 c 128,-1,48
 703 470 703 470 742.5 538 c 128,-1,49
 782 606 782 606 838.5 664 c 128,-1,50
 895 722 895 722 966.5 765 c 0,51,52
 1119.48 857 1119.48 857 1309 857 c 0,53,54
 1530.32 857 1530.32 857 1636 742 c 1,55,-1
 1493 115 l 2,56,57
 1490 100 1490 100 1493.5 98 c 128,-1,58
 1497 96 1497 96 1506.5 99.5 c 2,59,-1
 1531 108.5 l 2,60,61
 1546 114 1546 114 1575.5 114 c 128,-1,62
 1605 114 1605 114 1654 133.5 c 128,-1,63
 1703 153 1703 153 1753 190 c 128,-1,64
 1803 227 1803 227 1849 281.5 c 128,-1,65
 1895 336 1895 336 1931 405.5 c 0,66,67
 2010 558.014 2010 558.014 2010 740 c 0,68,69
 2010 982.599 2010 982.599 1857.5 1118.5 c 0,70,71
 1707.69 1252 1707.69 1252 1444 1252 c 0,72,73
 1126.46 1252 1126.46 1252 868 1084 c 0,74,75
 634.182 932.018 634.182 932.018 496.5 678 c 0,76,77
 364 433.543 364 433.543 364 182 c 0,78,79
 364 -249.25 364 -249.25 679 -373 c 0,80,81
 791 -417 791 -417 952 -417 c 0,82,83
 1097.02 -417 1097.02 -417 1223.5 -355.5 c 0,84,85
 1343 -297.395 1343 -297.395 1343 -239 c 1,0,-1
1388 703 m 1,86,87
 1340.8 762 1340.8 762 1265 762 c 0,88,89
 1150.61 762 1150.61 762 1038 614 c 0,90,91
 919 457.6 919 457.6 919 262 c 0,92,93
 919 175.741 919 175.741 938 143.37 c 0,94,95
 971.674 86 971.674 86 1036 86 c 0,96,97
 1125.2 86 1125.2 86 1227 189.5 c 0,98,99
 1257 220 1257 220 1283 255 c 1,100,-1
 1388 703 l 1,86,87
EndSplineSet
EndChar

StartChar: currency
Encoding: 164 164 125
Width: 1451
Flags: HW
LayerCount: 2
Fore
SplineSet
986 313 m 1,0,1
 875.366 229 875.366 229 720.38 229 c 128,-1,2
 565.395 229 565.395 229 458 306 c 1,3,-1
 250 89 l 1,4,-1
 150 189 l 1,5,-1
 367 398 l 1,6,7
 299 496.909 299 496.909 299 628.455 c 128,-1,8
 299 760 299 760 369 860 c 1,9,-1
 150 1072 l 1,10,-1
 250 1172 l 1,11,-1
 461 952 l 1,12,13
 572.579 1032 572.579 1032 726.289 1032 c 128,-1,14
 880 1032 880 1032 988 951 c 1,15,-1
 1201 1172 l 1,16,-1
 1301 1072 l 1,17,-1
 1077 855 l 1,18,19
 1138 758.241 1138 758.241 1138 631.971 c 128,-1,20
 1138 505.7 1138 505.7 1075 407 c 1,21,-1
 1301 189 l 1,22,-1
 1201 89 l 1,23,-1
 986 313 l 1,0,1
439 630.5 m 0,24,25
 439 568 439 568 459.5 515 c 128,-1,26
 480 462 480 462 517.5 423.5 c 0,27,28
 596.883 342 596.883 342 721 342 c 0,29,30
 846.52 342 846.52 342 922 418.5 c 0,31,32
 1000 497.554 1000 497.554 1000 631 c 0,33,34
 1000 754.88 1000 754.88 920.5 836.5 c 128,-1,35
 841.117 918 841.117 918 717 918 c 128,-1,36
 592.766 918 592.766 918 515.5 836.5 c 0,37,38
 439 755.808 439 755.808 439 630.5 c 0,24,25
EndSplineSet
EndChar

StartChar: ordfeminine
Encoding: 170 170 126
Width: 1130
Flags: HW
LayerCount: 2
Fore
SplineSet
869 761 m 1,0,-1
 761 756 l 1,1,2
 721.378 756 721.378 756 713 818 c 1,3,4
 732.531 833.98 732.531 833.98 750 858 c 1,5,-1
 739 939 l 1,6,7
 722.667 915.667 722.667 915.667 710 903 c 1,8,-1
 710 1104 l 1,9,10
 756.964 1077.16 756.964 1077.16 773 1054 c 1,11,-1
 805 1120 l 1,12,13
 768.526 1154.74 768.526 1154.74 710 1184 c 1,14,-1
 710 1267 l 2,15,16
 710 1370 710 1370 657 1425 c 128,-1,17
 604 1480 604 1480 520 1480 c 128,-1,18
 436 1480 436 1480 383.5 1451.5 c 128,-1,19
 331 1423 331 1423 280 1353 c 0,20,21
 242.5 1303 242.5 1303 224 1303 c 256,22,23
 214 1303 214 1303 207.5 1309.5 c 128,-1,24
 201 1316 201 1316 201 1328 c 128,-1,25
 201 1340 201 1340 211 1369 c 0,26,27
 231 1427 231 1427 231 1532 c 0,28,29
 231 1566 231 1566 256 1566 c 0,30,31
 276 1566 276 1566 295.5 1555.5 c 0,32,33
 333.571 1535 333.571 1535 345 1535 c 256,34,35
 353 1535 353 1535 359.5 1537.5 c 128,-1,36
 366 1540 366 1540 387 1545.5 c 0,37,38
 446.182 1561 446.182 1561 546.091 1561 c 128,-1,39
 646 1561 646 1561 719.5 1536.5 c 128,-1,40
 793 1512 793 1512 835.5 1469 c 0,41,42
 911 1392.61 911 1392.61 911 1248 c 2,43,-1
 911 1037 l 2,44,45
 911 902.2 911 902.2 924 868.6 c 0,46,47
 944.351 816 944.351 816 994 816 c 1,48,-1
 1045 824 l 1,49,50
 1056 824 1056 824 1065.5 815.5 c 128,-1,51
 1075 807 1075 807 1075 794.5 c 128,-1,52
 1075 782 1075 782 1058 768 c 128,-1,53
 1041 754 1041 754 998 754 c 1,54,-1
 869 761 l 1,0,-1
713 818 m 1,55,56
 617.079 737 617.079 737 478 737 c 0,57,58
 236.055 737 236.055 737 170.5 882.5 c 0,59,60
 150 928 150 928 150 990 c 128,-1,61
 150 1052 150 1052 177.5 1099 c 128,-1,62
 205 1146 205 1146 251.5 1175.5 c 0,63,64
 340.559 1232 340.559 1232 473.28 1232 c 128,-1,65
 606 1232 606 1232 710 1184 c 1,66,-1
 710 1104 l 1,67,68
 620.7 1151 620.7 1151 532 1151 c 0,69,70
 457.756 1151 457.756 1151 410 1106.5 c 0,71,72
 365 1064.57 365 1064.57 365 1015.28 c 128,-1,73
 365 966 365 966 376 935 c 128,-1,74
 387 904 387 904 408.5 880.5 c 0,75,76
 454.702 830 454.702 830 545.851 830 c 128,-1,77
 637 830 637 830 710 903 c 1,78,-1
 710 870 l 2,79,80
 710 839 710 839 713 818 c 1,55,56
EndSplineSet
EndChar

StartChar: ordmasculine
Encoding: 186 186 127
Width: 1132
Flags: HW
LayerCount: 2
Fore
SplineSet
562 737 m 0,0,1
 448 737 448 737 363.5 775 c 128,-1,2
 279 813 279 813 227.5 872.5 c 0,3,4
 130 985.146 130 985.146 130 1148 c 0,5,6
 130 1318.46 130 1318.46 257 1439 c 0,7,8
 385.536 1561 385.536 1561 568 1561 c 0,9,10
 777.717 1561 777.717 1561 897.5 1434.5 c 0,11,12
 1002 1324.14 1002 1324.14 1002 1163 c 0,13,14
 1002 977.083 1002 977.083 891.5 860.5 c 0,15,16
 774.443 737 774.443 737 562 737 c 0,0,1
513.5 851.5 m 128,-1,18
 561 822 561 822 604 822 c 128,-1,19
 647 822 647 822 677.5 837 c 128,-1,20
 708 852 708 852 730.5 883 c 0,21,22
 779 949.822 779 949.822 779 1064.91 c 128,-1,23
 779 1180 779 1180 758 1255.5 c 128,-1,24
 737 1331 737 1331 702 1380 c 0,25,26
 633.429 1476 633.429 1476 528 1476 c 0,27,28
 441.435 1476 441.435 1476 393.5 1402.5 c 0,29,30
 348 1332.73 348 1332.73 348 1231.37 c 128,-1,31
 348 1130 348 1130 370 1058 c 128,-1,32
 392 986 392 986 429 933.5 c 128,-1,17
 466 881 466 881 513.5 851.5 c 128,-1,18
EndSplineSet
EndChar

StartChar: onesuperior
Encoding: 185 185 128
Width: 689
Flags: HW
LayerCount: 2
Fore
SplineSet
526 687 m 1,0,-1
 580 694 l 1,1,2
 594 694 594 694 601.5 686 c 128,-1,3
 609 678 609 678 609 666.5 c 128,-1,4
 609 655 609 655 594 643.5 c 128,-1,5
 579 632 579 632 552 632 c 0,6,7
 503 632 503 632 457 636 c 258,8,-1
 410.5 640 l 2,9,10
 387 642 387 642 364 642 c 256,11,12
 341 642 341 642 318.5 640 c 2,13,-1
 273 636 l 258,14,15
 227 632 227 632 189 632 c 0,16,17
 121 632 121 632 121 669 c 0,18,19
 121 678 121 678 128.5 686 c 128,-1,20
 136 694 136 694 150 694 c 1,21,-1
 204 687 l 1,22,23
 233.455 687 233.455 687 244.727 707 c 0,24,25
 269 750.065 269 750.065 269 841 c 2,26,-1
 269 1204 l 2,27,28
 269 1280 269 1280 256 1317 c 128,-1,29
 243 1354 243 1354 211 1354 c 1,30,-1
 134 1338 l 1,31,32
 124 1338 124 1338 117 1345 c 128,-1,33
 110 1352 110 1352 110 1362.5 c 0,34,35
 110 1390.36 110 1390.36 176.5 1414.68 c 0,36,37
 308.225 1462.85 308.225 1462.85 399 1534 c 0,38,39
 439.789 1565 439.789 1565 449 1565 c 0,40,41
 469 1565 469 1565 469 1546 c 0,42,43
 469 1532 469 1532 467.5 1517.5 c 128,-1,44
 466 1503 466 1503 464 1482.5 c 0,45,46
 461 1451.75 461 1451.75 461 1372 c 2,47,-1
 461 841 l 2,48,49
 461 687 461 687 526 687 c 1,0,-1
EndSplineSet
EndChar

StartChar: thorn
Encoding: 254 254 129
Width: 1364
Flags: HW
LayerCount: 2
Fore
SplineSet
50 -457 m 1,0,-1
 99 -464 l 1,1,2
 157.571 -464 157.571 -464 178 -412 c 1,3,4
 208 -331.231 208 -331.231 208 -182 c 2,5,-1
 208 1158 l 2,6,7
 208 1353 208 1353 164 1411 c 0,8,9
 144 1437 144 1437 115.5 1445.5 c 128,-1,10
 87 1454 87 1454 60.5 1457.5 c 128,-1,11
 34 1461 34 1461 19 1467.5 c 128,-1,12
 4 1474 4 1474 4 1489 c 0,13,14
 4 1528 4 1528 64 1528 c 1,15,-1
 209 1516 l 1,16,17
 228 1516 228 1516 246 1518 c 2,18,-1
 320 1526 l 2,19,20
 339 1528 339 1528 357 1528 c 128,-1,21
 375 1528 375 1528 389 1525 c 128,-1,22
 403 1522 403 1522 412.5 1509.5 c 0,23,24
 433 1482.53 433 1482.53 433 1406 c 2,25,-1
 433 948 l 1,26,27
 555.769 1032 555.769 1032 699.385 1032 c 128,-1,28
 843 1032 843 1032 945.5 996 c 128,-1,29
 1048 960 1048 960 1120 891.5 c 0,30,31
 1268 750.694 1268 750.694 1268 505 c 0,32,33
 1268 285.863 1268 285.863 1112 132 c 0,34,35
 953.833 -24 953.833 -24 724 -24 c 0,36,37
 549.286 -24 549.286 -24 433 50 c 1,38,-1
 433 -182 l 2,39,40
 433 -322.273 433 -322.273 443 -358.636 c 128,-1,41
 453 -395 453 -395 464 -418 c 0,42,43
 486 -464 486 -464 549 -464 c 1,44,-1
 598 -457 l 1,45,46
 630 -457 630 -457 630 -485 c 0,47,48
 630 -530 630 -530 531 -530 c 1,49,-1
 318 -515 l 1,50,51
 303 -515 303 -515 283.5 -516 c 2,52,-1
 245.5 -518 l 2,53,54
 210.913 -519.87 210.913 -519.87 189.957 -522.935 c 0,55,56
 141.652 -530 141.652 -530 112 -530 c 0,57,58
 17 -530 17 -530 17 -485 c 0,59,60
 17 -457 17 -457 50 -457 c 1,0,-1
669 941 m 0,61,62
 542.524 941 542.524 941 433 841 c 1,63,-1
 433 236 l 1,64,65
 488.166 114.055 488.166 114.055 627 78.5 c 0,66,67
 668 68 668 68 728 68 c 128,-1,68
 788 68 788 68 849 100 c 128,-1,69
 910 132 910 132 952 185 c 0,70,71
 1038 293.524 1038 293.524 1038 455 c 0,72,73
 1038 674 1038 674 933 809 c 0,74,75
 830.333 941 830.333 941 669 941 c 0,61,62
EndSplineSet
EndChar

StartChar: twosuperior
Encoding: 178 178 130
Width: 906
Flags: HW
LayerCount: 2
Fore
SplineSet
780 881 m 128,-1,1
 796 881 796 881 796 864 c 256,2,3
 796 850.556 796 850.556 783 821.278 c 128,-1,4
 770 792 770 792 762 772 c 128,-1,5
 754 752 754 752 747.5 731 c 128,-1,6
 741 710 741 710 735 686 c 2,7,-1
 722 632 l 1,8,-1
 169 632 l 2,9,10
 140 632 140 632 140 664.5 c 128,-1,11
 140 697 140 697 149.5 736 c 128,-1,12
 159 775 159 775 187.5 822.5 c 0,13,14
 248.471 924.119 248.471 924.119 402 1061 c 0,15,16
 507.449 1154.28 507.449 1154.28 538.725 1197.64 c 0,17,18
 590 1268.73 590 1268.73 590 1312.36 c 128,-1,19
 590 1356 590 1356 580 1383.5 c 128,-1,20
 570 1411 570 1411 550 1431 c 0,21,22
 508 1473 508 1473 435 1473 c 0,23,24
 329.985 1473 329.985 1473 263 1379.5 c 0,25,26
 239 1346 239 1346 225.5 1300.5 c 128,-1,27
 212 1255 212 1255 192 1255 c 0,28,29
 167 1255 167 1255 167 1295 c 2,30,-1
 167 1459 l 1,31,32
 251.687 1528.56 251.687 1528.56 388 1553.5 c 0,33,34
 429 1561 429 1561 487 1561 c 128,-1,35
 545 1561 545 1561 604 1544 c 128,-1,36
 663 1527 663 1527 703.5 1497 c 0,37,38
 785 1436.63 785 1436.63 785 1340 c 0,39,40
 785 1239.48 785 1239.48 643 1116 c 0,41,42
 597 1076 597 1076 516 1014.5 c 0,43,44
 355.382 892.55 355.382 892.55 300 784 c 1,45,-1
 485 784 l 2,46,47
 632.517 784 632.517 784 692 818.5 c 0,48,49
 717 833 717 833 740.5 857 c 128,-1,0
 764 881 764 881 780 881 c 128,-1,1
EndSplineSet
EndChar

StartChar: onehalf
Encoding: 189 189 131
Width: 2082
Flags: HW
LayerCount: 2
Fore
SplineSet
384.5 -9.5 m 128,-1,1
 370 5 370 5 370 21.5 c 128,-1,2
 370 38 370 38 373 48.5 c 128,-1,3
 376 59 376 59 384 72.5 c 128,-1,4
 392 86 392 86 405.5 104 c 2,5,-1
 1472 1473 l 1,6,7
 1529.86 1549.27 1529.86 1549.27 1557.5 1558 c 0,8,9
 1567 1561 1567 1561 1584 1561 c 128,-1,10
 1601 1561 1601 1561 1617.5 1547 c 128,-1,11
 1634 1533 1634 1533 1634 1514 c 0,12,13
 1634 1480.52 1634 1480.52 1585 1417 c 2,14,-1
 517 44 l 2,15,16
 471.254 -13.1831 471.254 -13.1831 454.127 -18.5916 c 128,-1,17
 437 -24 437 -24 418 -24 c 128,-1,0
 399 -24 399 -24 384.5 -9.5 c 128,-1,1
526 687 m 1,18,-1
 580 694 l 1,19,20
 594 694 594 694 601.5 686 c 128,-1,21
 609 678 609 678 609 666.5 c 128,-1,22
 609 655 609 655 594 643.5 c 128,-1,23
 579 632 579 632 552 632 c 0,24,25
 503 632 503 632 457 636 c 258,26,-1
 410.5 640 l 2,27,28
 387 642 387 642 364 642 c 256,29,30
 341 642 341 642 318.5 640 c 2,31,-1
 273 636 l 258,32,33
 227 632 227 632 189 632 c 0,34,35
 121 632 121 632 121 669 c 0,36,37
 121 678 121 678 128.5 686 c 128,-1,38
 136 694 136 694 150 694 c 1,39,-1
 204 687 l 1,40,41
 233.455 687 233.455 687 244.727 707 c 0,42,43
 269 750.065 269 750.065 269 841 c 2,44,-1
 269 1204 l 2,45,46
 269 1280 269 1280 256 1317 c 128,-1,47
 243 1354 243 1354 211 1354 c 1,48,-1
 134 1338 l 1,49,50
 124 1338 124 1338 117 1345 c 128,-1,51
 110 1352 110 1352 110 1362.5 c 0,52,53
 110 1390.36 110 1390.36 176.5 1414.68 c 0,54,55
 308.225 1462.85 308.225 1462.85 399 1534 c 0,56,57
 439.789 1565 439.789 1565 449 1565 c 0,58,59
 469 1565 469 1565 469 1546 c 0,60,61
 469 1532 469 1532 467.5 1517.5 c 128,-1,62
 466 1503 466 1503 464 1482.5 c 0,63,64
 461 1451.75 461 1451.75 461 1372 c 2,65,-1
 461 841 l 2,66,67
 461 687 461 687 526 687 c 1,18,-1
1956 249 m 128,-1,69
 1972 249 1972 249 1972 232 c 256,70,71
 1972 218.556 1972 218.556 1959 189.278 c 128,-1,72
 1946 160 1946 160 1938 140 c 128,-1,73
 1930 120 1930 120 1923.5 99 c 128,-1,74
 1917 78 1917 78 1911 54 c 2,75,-1
 1898 0 l 1,76,-1
 1345 0 l 2,77,78
 1316 0 1316 0 1316 32.5 c 128,-1,79
 1316 65 1316 65 1325.5 104 c 128,-1,80
 1335 143 1335 143 1363.5 190.5 c 0,81,82
 1424.47 292.119 1424.47 292.119 1578 429 c 0,83,84
 1683.45 522.282 1683.45 522.282 1714.72 565.641 c 0,85,86
 1766 636.727 1766 636.727 1766 680.364 c 128,-1,87
 1766 724 1766 724 1756 751.5 c 128,-1,88
 1746 779 1746 779 1726 799 c 0,89,90
 1684 841 1684 841 1611 841 c 0,91,92
 1505.99 841 1505.99 841 1439 747.5 c 0,93,94
 1415 714 1415 714 1401.5 668.5 c 128,-1,95
 1388 623 1388 623 1368 623 c 0,96,97
 1343 623 1343 623 1343 663 c 2,98,-1
 1343 827 l 1,99,100
 1427.69 896.565 1427.69 896.565 1564 921.5 c 0,101,102
 1605 929 1605 929 1663 929 c 128,-1,103
 1721 929 1721 929 1780 912 c 128,-1,104
 1839 895 1839 895 1879.5 865 c 0,105,106
 1961 804.63 1961 804.63 1961 708 c 0,107,108
 1961 607.478 1961 607.478 1819 484 c 0,109,110
 1773 444 1773 444 1692 382.5 c 0,111,112
 1531.38 260.55 1531.38 260.55 1476 152 c 1,113,-1
 1661 152 l 2,114,115
 1808.52 152 1808.52 152 1868 186.5 c 0,116,117
 1893 201 1893 201 1916.5 225 c 128,-1,68
 1940 249 1940 249 1956 249 c 128,-1,69
EndSplineSet
EndChar

StartChar: threesuperior
Encoding: 179 179 132
Width: 891
Flags: HW
LayerCount: 2
Fore
SplineSet
150 699 m 1,0,-1
 150 863 l 2,1,2
 150 903 150 903 175 903 c 0,3,4
 195 903 195 903 206 864.5 c 128,-1,5
 217 826 217 826 238.5 798 c 128,-1,6
 260 770 260 770 289.5 750.5 c 0,7,8
 350.769 710 350.769 710 408.885 710 c 128,-1,9
 467 710 467 710 498.5 723.5 c 128,-1,10
 530 737 530 737 551 759 c 0,11,12
 594 804.048 594 804.048 594 860.024 c 128,-1,13
 594 916 594 916 581 957 c 128,-1,14
 568 998 568 998 543 1029.5 c 0,15,16
 488.635 1098 488.635 1098 404 1098 c 1,17,-1
 329 1085 l 1,18,19
 302 1085 302 1085 302 1109 c 0,20,21
 302 1132.12 302 1132.12 361.5 1156.56 c 128,-1,22
 421 1181 421 1181 450 1201.5 c 128,-1,23
 479 1222 479 1222 499.5 1246 c 0,24,25
 543 1296.93 543 1296.93 543 1350.96 c 128,-1,26
 543 1405 543 1405 507.5 1437.5 c 128,-1,27
 472 1470 472 1470 408 1470 c 128,-1,28
 344 1470 344 1470 293.5 1429 c 128,-1,29
 243 1388 243 1388 226.5 1332 c 128,-1,30
 210 1276 210 1276 190 1276 c 0,31,32
 165 1276 165 1276 165 1316 c 2,33,-1
 165 1480 l 1,34,35
 284.368 1561 284.368 1561 446 1561 c 0,36,37
 644.125 1561 644.125 1561 713.5 1450 c 0,38,39
 736 1414 736 1414 736 1375 c 128,-1,40
 736 1336 736 1336 721 1306 c 128,-1,41
 706 1276 706 1276 679.5 1248.5 c 0,42,43
 624.804 1191.74 624.804 1191.74 545 1159 c 1,44,45
 643.608 1141.85 643.608 1141.85 709.5 1079 c 0,46,47
 781 1010.8 781 1010.8 781 929.4 c 128,-1,48
 781 848 781 848 747.5 793.5 c 128,-1,49
 714 739 714 739 660.5 700 c 0,50,51
 548.013 618 548.013 618 409.263 618 c 128,-1,52
 270.512 618 270.512 618 150 699 c 1,0,-1
EndSplineSet
EndChar

StartChar: onequarter
Encoding: 188 188 133
Width: 2031
Flags: HW
LayerCount: 2
Fore
SplineSet
384.5 -9.5 m 128,-1,1
 370 5 370 5 370 21.5 c 128,-1,2
 370 38 370 38 373 48.5 c 128,-1,3
 376 59 376 59 384 72.5 c 128,-1,4
 392 86 392 86 405.5 104 c 2,5,-1
 1472 1473 l 1,6,7
 1529.86 1549.27 1529.86 1549.27 1557.5 1558 c 0,8,9
 1567 1561 1567 1561 1584 1561 c 128,-1,10
 1601 1561 1601 1561 1617.5 1547 c 128,-1,11
 1634 1533 1634 1533 1634 1514 c 0,12,13
 1634 1480.52 1634 1480.52 1585 1417 c 2,14,-1
 517 44 l 2,15,16
 471.254 -13.1831 471.254 -13.1831 454.127 -18.5916 c 128,-1,17
 437 -24 437 -24 418 -24 c 128,-1,0
 399 -24 399 -24 384.5 -9.5 c 128,-1,1
1116 256 m 2,18,19
 1064 256 1064 256 1064 278 c 0,20,21
 1064 297.737 1064 297.737 1095 332 c 2,22,-1
 1608 907 l 2,23,24
 1645.27 948 1645.27 948 1663.14 948 c 128,-1,25
 1681 948 1681 948 1681 901 c 2,26,-1
 1681 364 l 1,27,-1
 1741 364 l 2,28,29
 1812.47 364 1812.47 364 1859 398 c 0,30,31
 1876.5 412 1876.5 412 1886 412 c 0,32,33
 1902 412 1902 412 1902 397 c 0,34,35
 1902 389 1902 389 1894 378 c 128,-1,36
 1886 367 1886 367 1879.5 356.5 c 128,-1,37
 1873 346 1873 346 1865.5 332.5 c 0,38,39
 1846.33 298 1846.33 298 1840.67 281.5 c 0,40,41
 1831.91 256 1831.91 256 1801 256 c 2,42,-1
 1681 256 l 1,43,-1
 1681 209 l 2,44,45
 1681 55 1681 55 1746 55 c 1,46,-1
 1800 62 l 1,47,48
 1814 62 1814 62 1821.5 54 c 128,-1,49
 1829 46 1829 46 1829 34.5 c 128,-1,50
 1829 23 1829 23 1814 11.5 c 128,-1,51
 1799 0 1799 0 1772 0 c 0,52,53
 1723 0 1723 0 1677 4 c 258,54,-1
 1630.5 8 l 2,55,56
 1607 10 1607 10 1584 10 c 256,57,58
 1561 10 1561 10 1538.5 8 c 2,59,-1
 1493 4 l 258,60,61
 1378.74 -5.93548 1378.74 -5.93548 1359.87 8.53226 c 128,-1,62
 1341 23 1341 23 1341 34.5 c 0,63,64
 1341 62 1341 62 1370 62 c 1,65,-1
 1424 55 l 1,66,67
 1453.45 55 1453.45 55 1464.73 75 c 0,68,69
 1494 126.936 1494 126.936 1494 209 c 2,70,-1
 1494 256 l 1,71,-1
 1116 256 l 2,18,19
1494 364 m 1,72,-1
 1494 676 l 1,73,-1
 1222 364 l 1,74,-1
 1494 364 l 1,72,-1
526 687 m 1,75,-1
 580 694 l 1,76,77
 594 694 594 694 601.5 686 c 128,-1,78
 609 678 609 678 609 666.5 c 128,-1,79
 609 655 609 655 594 643.5 c 128,-1,80
 579 632 579 632 552 632 c 0,81,82
 503 632 503 632 457 636 c 258,83,-1
 410.5 640 l 2,84,85
 387 642 387 642 364 642 c 256,86,87
 341 642 341 642 318.5 640 c 2,88,-1
 273 636 l 258,89,90
 227 632 227 632 189 632 c 0,91,92
 121 632 121 632 121 669 c 0,93,94
 121 678 121 678 128.5 686 c 128,-1,95
 136 694 136 694 150 694 c 1,96,-1
 204 687 l 1,97,98
 233.455 687 233.455 687 244.727 707 c 0,99,100
 269 750.065 269 750.065 269 841 c 2,101,-1
 269 1204 l 2,102,103
 269 1280 269 1280 256 1317 c 128,-1,104
 243 1354 243 1354 211 1354 c 1,105,-1
 134 1338 l 1,106,107
 124 1338 124 1338 117 1345 c 128,-1,108
 110 1352 110 1352 110 1362.5 c 0,109,110
 110 1390.36 110 1390.36 176.5 1414.68 c 0,111,112
 308.225 1462.85 308.225 1462.85 399 1534 c 0,113,114
 439.789 1565 439.789 1565 449 1565 c 0,115,116
 469 1565 469 1565 469 1546 c 0,117,118
 469 1532 469 1532 467.5 1517.5 c 128,-1,119
 466 1503 466 1503 464 1482.5 c 0,120,121
 461 1451.75 461 1451.75 461 1372 c 2,122,-1
 461 841 l 2,123,124
 461 687 461 687 526 687 c 1,75,-1
EndSplineSet
EndChar

StartChar: threequarters
Encoding: 190 190 134
Width: 2063
Flags: HW
LayerCount: 2
Fore
SplineSet
436.5 -9.5 m 128,-1,1
 422 5 422 5 422 21.5 c 128,-1,2
 422 38 422 38 425 48.5 c 128,-1,3
 428 59 428 59 436 72.5 c 128,-1,4
 444 86 444 86 457.5 104 c 2,5,-1
 1524 1473 l 1,6,7
 1581.86 1549.27 1581.86 1549.27 1609.5 1558 c 0,8,9
 1619 1561 1619 1561 1636 1561 c 128,-1,10
 1653 1561 1653 1561 1669.5 1547 c 128,-1,11
 1686 1533 1686 1533 1686 1514 c 0,12,13
 1686 1480.52 1686 1480.52 1637 1417 c 2,14,-1
 569 44 l 2,15,16
 523.254 -13.1831 523.254 -13.1831 506.127 -18.5915 c 128,-1,17
 489 -24 489 -24 470 -24 c 128,-1,0
 451 -24 451 -24 436.5 -9.5 c 128,-1,1
1167 256 m 2,18,19
 1115 256 1115 256 1115 278 c 0,20,21
 1115 297.737 1115 297.737 1146 332 c 2,22,-1
 1659 907 l 2,23,24
 1696.27 948 1696.27 948 1714.14 948 c 128,-1,25
 1732 948 1732 948 1732 901 c 2,26,-1
 1732 364 l 1,27,-1
 1792 364 l 2,28,29
 1863.47 364 1863.47 364 1910 398 c 0,30,31
 1927.5 412 1927.5 412 1937 412 c 0,32,33
 1953 412 1953 412 1953 397 c 0,34,35
 1953 389 1953 389 1945 378 c 128,-1,36
 1937 367 1937 367 1930.5 356.5 c 128,-1,37
 1924 346 1924 346 1916.5 332.5 c 0,38,39
 1897.33 298 1897.33 298 1891.67 281.5 c 0,40,41
 1882.91 256 1882.91 256 1852 256 c 2,42,-1
 1732 256 l 1,43,-1
 1732 209 l 2,44,45
 1732 55 1732 55 1797 55 c 1,46,-1
 1851 62 l 1,47,48
 1865 62 1865 62 1872.5 54 c 128,-1,49
 1880 46 1880 46 1880 34.5 c 128,-1,50
 1880 23 1880 23 1865 11.5 c 128,-1,51
 1850 0 1850 0 1823 0 c 0,52,53
 1774 0 1774 0 1728 4 c 258,54,-1
 1681.5 8 l 2,55,56
 1658 10 1658 10 1635 10 c 256,57,58
 1612 10 1612 10 1589.5 8 c 2,59,-1
 1544 4 l 258,60,61
 1429.74 -5.93548 1429.74 -5.93548 1410.87 8.53226 c 128,-1,62
 1392 23 1392 23 1392 34.5 c 0,63,64
 1392 62 1392 62 1421 62 c 1,65,-1
 1475 55 l 1,66,67
 1504.45 55 1504.45 55 1515.73 75 c 0,68,69
 1545 126.936 1545 126.936 1545 209 c 2,70,-1
 1545 256 l 1,71,-1
 1167 256 l 2,18,19
1545 364 m 1,72,-1
 1545 676 l 1,73,-1
 1273 364 l 1,74,-1
 1545 364 l 1,72,-1
150 699 m 1,75,-1
 150 863 l 2,76,77
 150 903 150 903 175 903 c 0,78,79
 195 903 195 903 206 864.5 c 128,-1,80
 217 826 217 826 238.5 798 c 128,-1,81
 260 770 260 770 289.5 750.5 c 0,82,83
 350.769 710 350.769 710 408.885 710 c 128,-1,84
 467 710 467 710 498.5 723.5 c 128,-1,85
 530 737 530 737 551 759 c 0,86,87
 594 804.048 594 804.048 594 860.024 c 128,-1,88
 594 916 594 916 581 957 c 128,-1,89
 568 998 568 998 543 1029.5 c 0,90,91
 488.635 1098 488.635 1098 404 1098 c 1,92,-1
 329 1085 l 1,93,94
 302 1085 302 1085 302 1109 c 0,95,96
 302 1132.12 302 1132.12 361.5 1156.56 c 128,-1,97
 421 1181 421 1181 450 1201.5 c 128,-1,98
 479 1222 479 1222 499.5 1246 c 0,99,100
 543 1296.93 543 1296.93 543 1350.96 c 128,-1,101
 543 1405 543 1405 507.5 1437.5 c 128,-1,102
 472 1470 472 1470 408 1470 c 128,-1,103
 344 1470 344 1470 293.5 1429 c 128,-1,104
 243 1388 243 1388 226.5 1332 c 128,-1,105
 210 1276 210 1276 190 1276 c 0,106,107
 165 1276 165 1276 165 1316 c 2,108,-1
 165 1480 l 1,109,110
 284.368 1561 284.368 1561 446 1561 c 0,111,112
 644.125 1561 644.125 1561 713.5 1450 c 0,113,114
 736 1414 736 1414 736 1375 c 128,-1,115
 736 1336 736 1336 721 1306 c 128,-1,116
 706 1276 706 1276 679.5 1248.5 c 0,117,118
 624.804 1191.74 624.804 1191.74 545 1159 c 1,119,120
 643.608 1141.85 643.608 1141.85 709.5 1079 c 0,121,122
 781 1010.8 781 1010.8 781 929.4 c 128,-1,123
 781 848 781 848 747.5 793.5 c 128,-1,124
 714 739 714 739 660.5 700 c 0,125,126
 548.013 618 548.013 618 409.263 618 c 128,-1,127
 270.512 618 270.512 618 150 699 c 1,75,-1
EndSplineSet
EndChar

StartChar: copyright
Encoding: 169 169 135
Width: 1907
Flags: HW
LayerCount: 2
Fore
SplineSet
130 765.5 m 0,0,1
 130 871 130 871 156.5 970 c 128,-1,2
 183 1069 183 1069 233.5 1157 c 128,-1,3
 284 1245 284 1245 356.5 1319 c 128,-1,4
 429 1393 429 1393 521.5 1447 c 0,5,6
 716.778 1561 716.778 1561 960 1561 c 0,7,8
 1176.43 1561 1176.43 1561 1365 1460.5 c 0,9,10
 1655.02 1305.93 1655.02 1305.93 1746.5 991 c 0,11,12
 1777 886 1777 886 1777 770 c 128,-1,13
 1777 654 1777 654 1746 550.5 c 128,-1,14
 1715 447 1715 447 1660 359 c 128,-1,15
 1605 271 1605 271 1528.5 200 c 128,-1,16
 1452 129 1452 129 1361 79.5 c 0,17,18
 1170.73 -24 1170.73 -24 959 -24 c 0,19,20
 730.846 -24 730.846 -24 538 85 c 0,21,22
 351.775 190.257 351.775 190.257 242.5 370 c 0,23,24
 130 555.047 130 555.047 130 765.5 c 0,0,1
313 1035 m 128,-1,26
 260 910 260 910 260 790.5 c 128,-1,27
 260 671 260 671 285 584 c 128,-1,28
 310 497 310 497 356 421.5 c 128,-1,29
 402 346 402 346 467 284.5 c 128,-1,30
 532 223 532 223 611.5 178.5 c 0,31,32
 776.753 86 776.753 86 975 86 c 0,33,34
 1151.67 86 1151.67 86 1308 172.5 c 0,35,36
 1548.1 305.354 1548.1 305.354 1623 576.5 c 0,37,38
 1648 667 1648 667 1648 769.5 c 128,-1,39
 1648 872 1648 872 1621 962 c 128,-1,40
 1594 1052 1594 1052 1546 1128 c 128,-1,41
 1498 1204 1498 1204 1432 1264 c 128,-1,42
 1366 1324 1366 1324 1289 1365.5 c 0,43,44
 1130.36 1451 1130.36 1451 967.681 1451 c 128,-1,45
 805 1451 805 1451 678.5 1398 c 128,-1,46
 552 1345 552 1345 459 1252.5 c 128,-1,25
 366 1160 366 1160 313 1035 c 128,-1,26
1353 944 m 0,47,48
 1353 922 1353 922 1333 922 c 0,49,50
 1312.5 922 1312.5 922 1277.75 965.5 c 128,-1,51
 1243 1009 1243 1009 1213 1038 c 128,-1,52
 1183 1067 1183 1067 1148.5 1086.5 c 0,53,54
 1078.62 1126 1078.62 1126 1002.31 1126 c 128,-1,55
 926 1126 926 1126 879 1101.5 c 128,-1,56
 832 1077 832 1077 796 1036.5 c 0,57,58
 717 947.625 717 947.625 717 847.312 c 128,-1,59
 717 747 717 747 746 670 c 128,-1,60
 775 593 775 593 823.5 536 c 0,61,62
 927.307 414 927.307 414 1072 414 c 0,63,64
 1162.51 414 1162.51 414 1248.5 482.5 c 0,65,66
 1278 506 1278 506 1295.5 531.5 c 128,-1,67
 1313 557 1313 557 1321.5 562 c 128,-1,68
 1330 567 1330 567 1340.5 567 c 128,-1,69
 1351 567 1351 567 1359 558.5 c 128,-1,70
 1367 550 1367 550 1367 540.5 c 0,71,72
 1367 506.727 1367 506.727 1335.5 467.364 c 128,-1,73
 1304 428 1304 428 1265 399 c 128,-1,74
 1226 370 1226 370 1179.5 349.5 c 0,75,76
 1083.1 307 1083.1 307 975 307 c 128,-1,77
 867 307 867 307 778 342.5 c 128,-1,78
 689 378 689 378 624.5 439 c 0,79,80
 489 567.147 489 567.147 489 754 c 0,81,82
 489 944 489 944 621.5 1076.5 c 0,83,84
 757 1212 757 1212 954 1212 c 0,85,86
 1049.86 1212 1049.86 1212 1103.93 1197.5 c 2,87,-1
 1172.5 1179 l 2,88,89
 1187 1175 1187 1175 1198 1175 c 0,90,91
 1214.18 1175 1214.18 1175 1242 1193 c 256,92,93
 1279.09 1217 1279.09 1217 1295 1217 c 0,94,95
 1320 1217 1320 1217 1320 1182.5 c 128,-1,96
 1320 1148 1320 1148 1320.5 1121 c 128,-1,97
 1321 1094 1321 1094 1323.5 1071 c 0,98,99
 1329.01 1020.31 1329.01 1020.31 1341.01 988.154 c 128,-1,100
 1353 956 1353 956 1353 944 c 0,47,48
EndSplineSet
EndChar

StartChar: registered
Encoding: 174 174 136
Width: 1373
Flags: HW
LayerCount: 2
Fore
SplineSet
686.5 632 m 0,0,1
 574 632 574 632 471.5 674.5 c 128,-1,2
 369 717 369 717 293 790 c 0,3,4
 130 946.566 130 946.566 130 1168 c 0,5,6
 130 1383.91 130 1383.91 283.5 1539.5 c 0,7,8
 444.805 1703 444.805 1703 691 1703 c 0,9,10
 912.993 1703 912.993 1703 1073 1556.5 c 0,11,12
 1243 1400.85 1243 1400.85 1243 1167 c 0,13,14
 1243 940.987 1243 940.987 1074.5 783.5 c 0,15,16
 912.406 632 912.406 632 686.5 632 c 0,0,1
689 726 m 0,17,18
 780 726 780 726 858 757.5 c 128,-1,19
 936 789 936 789 996 846.5 c 0,20,21
 1127 972.042 1127 972.042 1127 1164 c 0,22,23
 1127 1354.92 1127 1354.92 990.5 1480.5 c 0,24,25
 858.435 1602 858.435 1602 680 1602 c 0,26,27
 491.576 1602 491.576 1602 363.5 1475 c 0,28,29
 236 1348.57 236 1348.57 236 1163 c 0,30,31
 236 981.691 236 981.691 368.5 853.5 c 0,32,33
 500.286 726 500.286 726 689 726 c 0,17,18
553 918 m 1,34,-1
 448 911 l 1,35,36
 411 911 411 911 411 935 c 0,37,38
 411 951 411 951 428 951 c 1,39,-1
 457 947 l 1,40,41
 490 947 490 947 490 1050 c 2,42,-1
 490 1287 l 2,43,44
 490 1389 490 1389 457 1389 c 1,45,-1
 431 1385 l 1,46,47
 411 1385 411 1385 411 1401 c 0,48,49
 411 1425 411 1425 448 1425 c 0,50,51
 463 1425 463 1425 470 1424.5 c 2,52,-1
 492 1423 l 1,53,54
 529.5 1418 529.5 1418 576 1418 c 1,55,-1
 723 1427 l 1,56,57
 866.6 1427 866.6 1427 912.5 1342 c 0,58,59
 926 1317 926 1317 926 1284.5 c 128,-1,60
 926 1252 926 1252 909.5 1223 c 128,-1,61
 893 1194 893 1194 866.5 1175 c 0,62,63
 813.5 1137 813.5 1137 738 1137 c 1,64,65
 815.627 1101.51 815.627 1101.51 869 1009 c 1,66,-1
 889 976.5 l 2,67,68
 908.52 946 908.52 946 926 946 c 1,69,-1
 954 951 l 1,70,71
 968 951 968 951 968 938 c 128,-1,72
 968 925 968 925 951.5 915.5 c 128,-1,73
 935 906 935 906 894.5 906 c 128,-1,74
 854 906 854 906 804.5 941 c 128,-1,75
 755 976 755 976 707 1058 c 1,76,77
 666.342 1122.2 666.342 1122.2 617 1137 c 1,78,-1
 617 1050 l 2,79,80
 617 947 617 947 649 947 c 257,81,-1
 677 951 l 1,82,83
 695 951 695 951 695 935 c 0,84,85
 695 911 695 911 659 911 c 1,86,-1
 553 918 l 1,34,-1
617 1198 m 1,87,88
 654.8 1180 654.8 1180 691.4 1180 c 128,-1,89
 728 1180 728 1180 744.5 1185 c 128,-1,90
 761 1190 761 1190 773.5 1201 c 0,91,92
 801 1225.2 801 1225.2 801 1260.6 c 128,-1,93
 801 1296 801 1296 789.5 1313.5 c 128,-1,94
 778 1331 778 1331 760 1342.5 c 0,95,96
 724.783 1365 724.783 1365 682 1365 c 0,97,98
 617 1365 617 1365 617 1320 c 2,99,-1
 617 1198 l 1,87,88
EndSplineSet
EndChar

StartChar: asciitilde
Encoding: 126 126 137
Width: 1437
Flags: HW
LayerCount: 2
Fore
SplineSet
449 700 m 0,0,1
 333.18 700 333.18 700 235 474 c 1,2,-1
 115 533 l 1,3,4
 160.505 659.173 160.505 659.173 252.5 746 c 0,5,6
 348.917 837 348.917 837 454 837 c 0,7,8
 582.632 837 582.632 837 766 703 c 256,9,10
 911.035 597.013 911.035 597.013 970 583.5 c 0,11,12
 994 578 994 578 1019 578 c 128,-1,13
 1044 578 1044 578 1069.5 590 c 128,-1,14
 1095 602 1095 602 1120.5 629 c 0,15,16
 1174.94 686.646 1174.94 686.646 1215 803 c 1,17,-1
 1335 745 l 1,18,19
 1225.12 441 1225.12 441 1004 441 c 0,20,21
 935.424 441 935.424 441 882.712 465.5 c 0,22,23
 802.357 502.848 802.357 502.848 726.178 557.924 c 2,24,-1
 614.5 638 l 2,25,26
 547.206 685.39 547.206 685.39 513.603 692.695 c 128,-1,27
 480 700 480 700 449 700 c 0,0,1
EndSplineSet
EndChar

StartChar: dotlessi
Encoding: 305 305 138
Width: 855
Flags: HW
LayerCount: 2
Fore
SplineSet
238 0 m 0,0,1
 143 0 143 0 143 45 c 0,2,3
 143 73 143 73 176 73 c 1,4,-1
 225 66 l 1,5,6
 283.571 66 283.571 66 304 118 c 1,7,8
 334 198.769 334 198.769 334 348 c 2,9,-1
 334 639 l 2,10,11
 334 834 334 834 290 892 c 0,12,13
 270 918 270 918 241.5 926.5 c 128,-1,14
 213 935 213 935 186.5 938.5 c 128,-1,15
 160 942 160 942 145 948.5 c 128,-1,16
 130 955 130 955 130 970 c 0,17,18
 130 1009 130 1009 190 1009 c 1,19,-1
 335 997 l 1,20,21
 354 997 354 997 372 999 c 2,22,-1
 446 1007 l 2,23,24
 465 1009 465 1009 483 1009 c 128,-1,25
 501 1009 501 1009 515 1006 c 128,-1,26
 529 1003 529 1003 538.5 990.5 c 0,27,28
 559 963.526 559 963.526 559 887 c 2,29,-1
 559 348 l 2,30,31
 559 207.727 559 207.727 569 171.364 c 128,-1,32
 579 135 579 135 590 112 c 0,33,34
 612 66 612 66 675 66 c 1,35,-1
 724 73 l 1,36,37
 756 73 756 73 756 45 c 0,38,39
 756 0 756 0 657 0 c 0,40,41
 628 0 628 0 610.5 2.5 c 128,-1,42
 593 5 593 5 578 6.5 c 2,43,-1
 547 9.5 l 2,44,45
 531 11 531 11 513 12 c 128,-1,46
 495 13 495 13 477 14 c 128,-1,47
 459 15 459 15 444 15 c 256,48,49
 429 15 429 15 409.5 14 c 2,50,-1
 371.5 12 l 2,51,52
 336.913 10.1304 336.913 10.1304 315.957 7.06522 c 0,53,54
 267.652 1.50006e-06 267.652 1.50006e-06 238 0 c 0,0,1
EndSplineSet
EndChar

StartChar: ae
Encoding: 230 230 139
Width: 2012
Flags: HW
LayerCount: 2
Fore
SplineSet
1033 156 m 1,0,1
 915.698 26.3509 915.698 26.3509 732.5 -11.5 c 0,2,3
 672 -24 672 -24 588 -24 c 128,-1,4
 504 -24 504 -24 423 -1.5 c 128,-1,5
 342 21 342 21 286.5 62 c 0,6,7
 173 145.847 173 145.847 173 293 c 0,8,9
 173 432.96 173 432.96 305.5 522 c 128,-1,10
 437.94 611 437.94 611 614.143 611 c 128,-1,11
 790.345 611 790.345 611 912 555 c 1,12,13
 903.335 858.261 903.335 858.261 743.5 921 c 0,14,15
 690 942 690 942 613 942 c 0,16,17
 459.067 942 459.067 942 330 766 c 1,18,19
 282.762 704 282.762 704 258.881 704 c 128,-1,20
 235 704 235 704 235 726 c 128,-1,21
 235 748 235 748 248 786 c 0,22,23
 273 859.077 273 859.077 273 995 c 0,24,25
 273 1039 273 1039 305 1039 c 0,26,27
 327 1039 327 1039 354 1025 c 0,28,29
 404.143 999 404.143 999 419 999 c 256,30,31
 429 999 429 999 438 1002 c 128,-1,32
 447 1005 447 1005 473.5 1012.5 c 0,33,34
 542.4 1032 542.4 1032 659 1032 c 0,35,36
 935.541 1032 935.541 1032 1051 854 c 1,37,38
 1168.32 980.585 1168.32 980.585 1352 1019.5 c 0,39,40
 1411 1032 1411 1032 1471 1032 c 0,41,42
 1766.61 1032 1766.61 1032 1912 768 c 1,43,44
 1936 726.545 1936 726.545 1936 699.773 c 0,45,46
 1936 650.84 1936 650.84 1892 635 c 0,47,48
 1599.22 529.901 1599.22 529.901 1320 463.5 c 2,49,-1
 1155 424 l 1,50,51
 1200.67 264.145 1200.67 264.145 1320.5 174 c 0,52,53
 1429.5 92 1429.5 92 1537.75 92 c 0,54,55
 1750.39 92 1750.39 92 1845 228 c 0,56,57
 1860 249 1860 249 1869.5 258 c 128,-1,58
 1879 267 1879 267 1892 267 c 0,59,60
 1920 267 1920 267 1920 241 c 0,61,62
 1920 205.875 1920 205.875 1883 155 c 0,63,64
 1751.21 -24.0001 1751.21 -24.0001 1468.5 -24 c 128,-1,65
 1185.79 -24 1185.79 -24 1033 156 c 1,0,1
1139 508 m 1,66,67
 1464.03 587.118 1464.03 587.118 1675 660 c 0,68,69
 1699 667.5 1699 667.5 1699 687.75 c 128,-1,70
 1699 708 1699 708 1691 733.5 c 128,-1,71
 1683 759 1683 759 1668 787 c 128,-1,72
 1653 815 1653 815 1631 842.5 c 128,-1,73
 1609 870 1609 870 1580.5 891.5 c 0,74,75
 1516.21 940 1516.21 940 1450.1 940 c 128,-1,76
 1384 940 1384 940 1328 917 c 128,-1,77
 1272 894 1272 894 1229 850 c 0,78,79
 1134 752.791 1134 752.791 1134 591 c 0,80,81
 1134 558 1134 558 1139 508 c 1,66,67
915.5 168.5 m 0,82,83
 953 194 953 194 984 226 c 1,84,85
 921.778 331.778 921.778 331.778 914 464 c 1,86,87
 807.739 516 807.739 516 681.87 516 c 128,-1,88
 556 516 556 516 481 455.5 c 128,-1,89
 406 395 406 395 406 299.106 c 128,-1,90
 406 203.211 406 203.211 481.655 144.606 c 128,-1,91
 557.309 86 557.309 86 675.743 86 c 128,-1,92
 794.176 86 794.176 86 915.5 168.5 c 0,82,83
EndSplineSet
EndChar

StartChar: oe
Encoding: 339 339 140
Width: 2101
Flags: HW
LayerCount: 2
Fore
SplineSet
135.5 381 m 128,-1,1
 123 443 123 443 123 527 c 128,-1,2
 123 611 123 611 166.5 707.5 c 128,-1,3
 210 804 210 804 285.5 876 c 0,4,5
 449.083 1032 449.083 1032 684 1032 c 0,6,7
 957.345 1032 957.345 1032 1122 841 c 1,8,9
 1133 854 1133 854 1145 866 c 2,10,-1
 1170 890 l 1,11,12
 1327.06 1032 1327.06 1032 1558 1032 c 0,13,14
 1736.41 1032 1736.41 1032 1861.5 935.5 c 0,15,16
 1936.23 877.854 1936.23 877.854 1999 768 c 0,17,18
 2025 722 2025 722 2025 695 c 256,19,20
 2025 651.323 2025 651.323 1979 635 c 0,21,22
 1704.5 534.75 1704.5 534.75 1414.5 464.5 c 1,23,-1
 1252 426 l 1,24,25
 1287.27 271.201 1287.27 271.201 1396.5 180 c 0,26,27
 1501.9 92 1501.9 92 1636 92 c 0,28,29
 1762.6 92 1762.6 92 1876 173 c 0,30,31
 1911 198 1911 198 1929 223.5 c 128,-1,32
 1947 249 1947 249 1956.5 258 c 128,-1,33
 1966 267 1966 267 1979 267 c 0,34,35
 2007 267 2007 267 2007 241 c 0,36,37
 2007 205.875 2007 205.875 1972 157.938 c 128,-1,38
 1937 110 1937 110 1892.5 76.5 c 128,-1,39
 1848 43 1848 43 1796 20.5 c 0,40,41
 1693.16 -24 1693.16 -24 1563.08 -24 c 128,-1,42
 1433 -24 1433 -24 1320.5 24.5 c 128,-1,43
 1208 73 1208 73 1130 160 c 1,44,45
 1058 77 1058 77 944.5 26.5 c 128,-1,46
 831 -24 831 -24 707 -24 c 128,-1,47
 583 -24 583 -24 500.5 -1.5 c 128,-1,48
 418 21 418 21 355 59.5 c 128,-1,49
 292 98 292 98 248 150 c 128,-1,50
 204 202 204 202 176 260.5 c 128,-1,0
 148 319 148 319 135.5 381 c 128,-1,1
380 728 m 128,-1,52
 359 662 359 662 359 568 c 128,-1,53
 359 474 359 474 390.5 379 c 128,-1,54
 422 284 422 284 474.5 214 c 0,55,56
 587 64 587 64 734 64 c 0,57,58
 846.326 64 846.326 64 922.5 160 c 0,59,60
 1002 260.192 1002 260.192 1002 397.596 c 128,-1,61
 1002 535 1002 535 969 633.5 c 128,-1,62
 936 732 936 732 883 800.5 c 128,-1,63
 830 869 830 869 763 905 c 128,-1,64
 696 941 696 941 634 941 c 128,-1,65
 572 941 572 941 523 914.5 c 128,-1,66
 474 888 474 888 437.5 841 c 128,-1,51
 401 794 401 794 380 728 c 128,-1,52
1240 511 m 1,67,68
 1559.19 588.641 1559.19 588.641 1762 660 c 0,69,70
 1786 667.5 1786 667.5 1786 687.75 c 128,-1,71
 1786 708 1786 708 1778 733.5 c 128,-1,72
 1770 759 1770 759 1755 787 c 128,-1,73
 1740 815 1740 815 1718 842.5 c 128,-1,74
 1696 870 1696 870 1667.5 891.5 c 0,75,76
 1603.21 940 1603.21 940 1537.1 940 c 128,-1,77
 1471 940 1471 940 1418 916.5 c 128,-1,78
 1365 893 1365 893 1325 845 c 0,79,80
 1239 741.8 1239 741.8 1239 552 c 2,81,-1
 1239 531 l 2,82,83
 1239 521 1239 521 1240 511 c 1,67,68
EndSplineSet
EndChar

